<svg width="360" height="178" viewBox="0 0 360 178" fill="none" xmlns="http://www.w3.org/2000/svg"><g filter="url(#filter0_b)"><path fill="#fff" d="M0 0h360v178H0z"/></g><path d="M288.58 13.245c0-1.008-.711-1.656-1.773-1.809-.351-.054-.702-.117-1.062-.162-.477-.063-.954-.324-.954-.9 0-.288.099-.504.261-.693.279-.315.675-.441 1.134-.441.495 0 .882.162 1.125.441.18.207.297.486.315.801h.837a1.917 1.917 0 0 0-.612-1.368c-.423-.405-1.035-.612-1.656-.612-.666 0-1.233.216-1.674.63a1.76 1.76 0 0 0-.558 1.26c0 1.017.747 1.548 1.701 1.692l1.008.153c.756.117 1.071.531 1.071 1.026a.94.94 0 0 1-.324.747c-.288.27-.702.369-1.188.369-.45 0-.936-.117-1.224-.396-.261-.252-.45-.63-.45-1.008h-.837c0 .603.279 1.152.684 1.53.432.396 1.053.612 1.827.612.684 0 1.368-.207 1.809-.639.315-.306.54-.702.54-1.233zM295.001 15l-2.259-6.381h-.936L289.556 15h.81l.513-1.512h2.772l.522 1.512h.828zm-1.611-2.268h-2.259l1.125-3.312 1.134 3.312zM302.594 15V8.619h-1.125l-1.917 5.193-1.926-5.193h-1.152V15h.765V9.573l1.98 5.337h.63l1.98-5.292V15h.765zm6.772-4.455c0-.558-.18-1.017-.486-1.35-.342-.369-.873-.576-1.62-.576h-2.367V15h.801v-2.475h1.575c.702 0 1.224-.189 1.566-.531.342-.342.531-.828.531-1.449zm-.828 0c0 .855-.432 1.251-1.287 1.251h-1.557V9.348h1.548c.792 0 1.296.387 1.296 1.197zM314.906 15v-.747h-3.069V8.619h-.801V15h3.87zm5.791 0v-.738h-3.465v-2.205h3.042v-.756h-3.042V9.357h3.465v-.738h-4.266V15h4.266zm5.252 0V8.619h-.819V15h.819zm6.666-1.755c0-1.008-.711-1.656-1.773-1.809-.351-.054-.702-.117-1.062-.162-.477-.063-.954-.324-.954-.9 0-.288.099-.504.261-.693.279-.315.675-.441 1.134-.441.495 0 .882.162 1.125.441.18.207.297.486.315.801h.837a1.917 1.917 0 0 0-.612-1.368c-.423-.405-1.035-.612-1.656-.612-.666 0-1.233.216-1.674.63a1.76 1.76 0 0 0-.558 1.26c0 1.017.747 1.548 1.701 1.692l1.008.153c.756.117 1.071.531 1.071 1.026a.94.94 0 0 1-.324.747c-.288.27-.702.369-1.188.369-.45 0-.936-.117-1.224-.396-.261-.252-.45-.63-.45-1.008h-.837c0 .603.279 1.152.684 1.53.432.396 1.053.612 1.827.612.684 0 1.368-.207 1.809-.639.315-.306.54-.702.54-1.233zm6.213 0c0-1.008-.711-1.656-1.773-1.809-.351-.054-.702-.117-1.062-.162-.477-.063-.954-.324-.954-.9 0-.288.099-.504.261-.693.279-.315.675-.441 1.134-.441.495 0 .882.162 1.125.441.18.207.297.486.315.801h.837a1.917 1.917 0 0 0-.612-1.368c-.423-.405-1.035-.612-1.656-.612-.666 0-1.233.216-1.674.63a1.76 1.76 0 0 0-.558 1.26c0 1.017.747 1.548 1.701 1.692l1.008.153c.756.117 1.071.531 1.071 1.026a.94.94 0 0 1-.324.747c-.288.27-.702.369-1.188.369-.45 0-.936-.117-1.224-.396-.261-.252-.45-.63-.45-1.008h-.837c0 .603.279 1.152.684 1.53.432.396 1.053.612 1.827.612.684 0 1.368-.207 1.809-.639.315-.306.54-.702.54-1.233zm6.329-.585V8.619h-.801v4.059c0 1.017-.423 1.692-1.53 1.692s-1.53-.675-1.53-1.692V8.619h-.801v4.041c0 1.593.9 2.457 2.331 2.457s2.331-.864 2.331-2.457zm6.384 2.34v-.738h-3.465v-2.205h3.042v-.756h-3.042V9.357h3.465v-.738h-4.266V15h4.266z" fill="#9FA6BF"/><g clip-path="url(#clip0)"><path d="M26.785 45.196v-9.988h-1.282v9.988h1.282zm6.41-.099V44.07s-.719.127-1.226.127c-.662 0-.958-.282-.958-.972v-4.128h2.113v-1.028h-2.113v-2.1l-1.197.283v1.817h-1.38v1.028h1.38v4.269c0 .957.422 1.93 1.958 1.93a5.16 5.16 0 0 0 1.423-.198zm14.837.099v-4.691c0-1.578-.761-2.62-2.381-2.62-.902 0-1.817.465-2.198 1.352-.31-.873-1.07-1.352-2.127-1.352-.803 0-1.62.394-2 1.197l-.113-1.014h-1.042v7.128h1.197v-3.79c0-.591.127-1.352.479-1.803.296-.38.704-.634 1.212-.634 1.14 0 1.436.69 1.436 1.69v4.537h1.198v-3.79c0-.746.127-1.465.605-1.958a1.446 1.446 0 0 1 1.085-.479c1.127 0 1.451.69 1.451 1.69v4.537h1.197zm8.479-.07v-.888s-.183.042-.31.042c-.24 0-.395-.099-.395-.479V40.35c0-.409-.07-.775-.21-1.099-.339-.775-1.128-1.366-2.508-1.366-.874 0-1.719.253-2.198.76a2.11 2.11 0 0 0-.62 1.494h1.17c0-.353.126-.634.352-.86.24-.24.648-.422 1.296-.422.577 0 .93.14 1.169.366.324.296.366.733.366 1.085v.52l-2.17.128c-1.943.112-2.535 1.31-2.535 2.225 0 1.1.817 2.198 2.451 2.198 1 0 1.888-.45 2.297-1.17h.028c0 .606.394 1.085 1.028 1.085.296 0 .535-.042.789-.169zm-1.888-2.945c0 .592-.183 1.184-.605 1.62-.38.395-.916.578-1.465.578-1.015 0-1.41-.592-1.41-1.226 0-.901.846-1.24 1.564-1.282l1.916-.112v.422zm9.21-4.113H62.58l-2 5.62-2.1-5.62h-1.352l2.846 7.128-.45 1.197c-.198.535-.564.719-1.072.719-.464 0-.845-.113-.845-.113v1.042c.099.029.493.141 1.085.141 1.07 0 1.592-.605 1.93-1.521l3.212-8.593zm10.46 7.128v-4.691c0-1.648-.859-2.62-2.479-2.62-.803 0-1.662.394-2.085 1.127v-3.987h-1.197v10.17h1.197v-3.31c0-.549.014-1.296.254-1.817.31-.648.86-1.099 1.55-1.099 1.126 0 1.563.634 1.563 1.705v4.522h1.197zm8.48-.07v-.888s-.183.042-.31.042c-.24 0-.395-.099-.395-.479V40.35c0-.409-.07-.775-.211-1.099-.338-.775-1.127-1.366-2.507-1.366-.874 0-1.72.253-2.198.76-.366.38-.606.846-.62 1.494h1.17c0-.353.126-.634.352-.86.239-.24.647-.422 1.296-.422.577 0 .93.14 1.169.366.324.296.366.733.366 1.085v.52l-2.17.128c-1.943.112-2.535 1.31-2.535 2.225 0 1.1.817 2.198 2.451 2.198 1 0 1.888-.45 2.296-1.17h.028c0 .606.395 1.085 1.029 1.085.296 0 .535-.042.789-.169zm-1.888-2.945c0 .592-.183 1.184-.606 1.62-.38.395-.915.578-1.465.578-1.014 0-1.408-.592-1.408-1.226 0-.901.845-1.24 1.563-1.282l1.916-.112v.422zm10.095-.55c0-1.182-.353-2.267-1.029-2.958-.465-.478-1.14-.774-2.014-.774-.803 0-1.719.394-2.127 1.113l-.085-.93H84.67v10.17h1.197V44.38c.38.648 1.296 1.014 2.07 1.014.832 0 1.494-.282 1.959-.718.718-.69 1.085-1.818 1.085-3.043zm-1.226.015c0 1.31-.423 2.733-2.014 2.733-.522 0-.874-.212-1.156-.465-.591-.521-.788-1.38-.788-2.268 0-.888.197-1.747.788-2.268.282-.254.634-.465 1.156-.465 1.591 0 2.014 1.423 2.014 2.733zm9.535-.014c0-1.183-.353-2.268-1.029-2.959-.465-.478-1.14-.774-2.014-.774-.803 0-1.719.394-2.127 1.113l-.085-.93h-1.056v10.17h1.197V44.38c.38.648 1.296 1.014 2.07 1.014.832 0 1.494-.282 1.959-.718.718-.69 1.085-1.818 1.085-3.043zm-1.226.014c0 1.31-.422 2.733-2.014 2.733-.522 0-.874-.212-1.156-.465-.591-.521-.788-1.38-.788-2.268 0-.888.197-1.747.788-2.268.282-.254.635-.465 1.156-.465 1.591 0 2.014 1.423 2.014 2.733zm9.04-.338c.014-.958-.324-1.874-.901-2.508-.522-.563-1.254-.915-2.17-.915-1.24 0-2.183.634-2.69 1.493-.395.662-.55 1.423-.55 2.282 0 1.014.296 1.958.888 2.648.549.648 1.366 1.07 2.366 1.07.676 0 1.31-.196 1.817-.534a2.62 2.62 0 0 0 1.099-1.761h-1.169c-.099.38-.225.577-.423.775-.295.31-.76.464-1.324.464-.549 0-.986-.183-1.31-.507-.437-.436-.69-1.14-.69-1.789h5.043l.014-.718zm-1.225-.31h-3.804c.028-1.042.662-2.1 1.958-2.1.634 0 1.113.255 1.409.649.282.38.437.916.437 1.45zm8.998 4.198v-4.691c0-1.648-.845-2.62-2.465-2.62-.803 0-1.789.436-2.156 1.253l-.098-1.07h-1.043v7.128h1.198v-3.31c0-.55.014-1.297.253-1.818.31-.648.86-1.099 1.55-1.099 1.127 0 1.564.634 1.564 1.705v4.522h1.197zm9.416-.099V44.07s-.718.127-1.225.127c-.663 0-.958-.282-.958-.972v-4.128h2.113v-1.028h-2.113v-2.1l-1.198.283v1.817h-1.38v1.028h1.38v4.269c0 .957.423 1.93 1.958 1.93.662 0 1.099-.113 1.423-.198zm7.491.099v-4.691c0-1.648-.859-2.62-2.479-2.62-.803 0-1.662.394-2.085 1.127v-3.987h-1.197v10.17h1.197v-3.31c0-.549.014-1.296.253-1.817.31-.648.86-1.099 1.55-1.099 1.127 0 1.564.634 1.564 1.705v4.522h1.197zm8.479-.07v-.888s-.183.042-.31.042c-.239 0-.394-.099-.394-.479V40.35c0-.409-.071-.775-.211-1.099-.339-.775-1.127-1.366-2.508-1.366-.873 0-1.719.253-2.197.76a2.11 2.11 0 0 0-.62 1.494h1.169c0-.353.127-.634.352-.86.24-.24.648-.422 1.296-.422.578 0 .93.14 1.169.366.324.296.367.733.367 1.085v.52l-2.17.128c-1.944.112-2.535 1.31-2.535 2.225 0 1.1.817 2.198 2.451 2.198 1 0 1.887-.45 2.296-1.17h.028c0 .606.394 1.085 1.028 1.085.296 0 .536-.042.789-.169zm-1.887-2.945c0 .592-.184 1.184-.606 1.62-.381.395-.916.578-1.465.578-1.014 0-1.409-.592-1.409-1.226 0-.901.845-1.24 1.564-1.282l1.916-.112v.422zm7.405 2.916V44.07s-.718.127-1.225.127c-.662 0-.958-.282-.958-.972v-4.128h2.113v-1.028h-2.113v-2.1l-1.198.283v1.817h-1.38v1.028h1.38v4.269c0 .957.423 1.93 1.958 1.93.663 0 1.099-.113 1.423-.198zm13.936-7.03h-1.17l-1.38 5.382-1.789-5.297h-1.029l-1.817 5.297-1.366-5.381h-1.184l1.832 7.128h1.141l1.902-5.452 1.859 5.452h1.155l1.846-7.128zm7.518 3.24c.014-.957-.324-1.873-.902-2.507-.521-.563-1.253-.915-2.169-.915-1.24 0-2.183.634-2.691 1.493-.394.662-.549 1.423-.549 2.282 0 1.014.296 1.958.888 2.648.549.648 1.366 1.07 2.366 1.07.676 0 1.31-.196 1.817-.534a2.62 2.62 0 0 0 1.099-1.761h-1.169c-.099.38-.225.577-.423.775-.295.31-.76.464-1.324.464-.549 0-.986-.183-1.31-.507-.437-.436-.69-1.14-.69-1.789h5.043l.014-.718zm-1.226-.31h-3.803c.028-1.041.662-2.098 1.958-2.098.634 0 1.113.254 1.409.648.282.38.436.916.436 1.45zm12.246 4.199v-4.691c0-1.648-.846-2.62-2.466-2.62-.803 0-1.789.436-2.155 1.253l-.099-1.07h-1.042v7.128h1.197v-3.31c0-.55.014-1.297.254-1.818.31-.648.859-1.099 1.55-1.099 1.126 0 1.563.634 1.563 1.705v4.522h1.198zm8.226-3.888c.014-.958-.324-1.874-.902-2.508-.521-.563-1.254-.915-2.169-.915-1.24 0-2.184.634-2.691 1.493-.394.662-.549 1.423-.549 2.282 0 1.014.296 1.958.887 2.648.55.648 1.367 1.07 2.367 1.07.676 0 1.31-.196 1.817-.534.578-.395 1-1.057 1.099-1.761h-1.169c-.099.38-.226.577-.423.775-.296.31-.761.464-1.324.464-.549 0-.986-.183-1.31-.507-.437-.436-.69-1.14-.69-1.789h5.043l.014-.718zm-1.226-.31h-3.803c.028-1.042.662-2.1 1.958-2.1.634 0 1.113.255 1.409.649.281.38.436.916.436 1.45zm8.985.31c.014-.958-.324-1.874-.902-2.508-.521-.563-1.254-.915-2.169-.915-1.24 0-2.184.634-2.691 1.493-.394.662-.549 1.423-.549 2.282 0 1.014.295 1.958.887 2.648.55.648 1.367 1.07 2.367 1.07.676 0 1.31-.196 1.817-.534.578-.395 1-1.057 1.099-1.761h-1.169c-.099.38-.226.577-.423.775-.296.31-.761.464-1.324.464-.55 0-.986-.183-1.31-.507-.437-.436-.691-1.14-.691-1.789h5.044l.014-.718zm-1.226-.31h-3.803c.028-1.042.662-2.1 1.958-2.1.634 0 1.113.255 1.408.649.282.38.437.916.437 1.45zm8.999 4.198V35.025h-1.198v3.874c-.38-.648-1.296-1.014-2.071-1.014-.831 0-1.493.281-1.958.718-.718.69-1.084 1.817-1.084 3.043 0 1.183.352 2.268 1.028 2.958.465.48 1.141.775 2.014.775.803 0 1.719-.395 2.127-1.113l.085.93h1.057zm-1.127-3.564c0 .887-.198 1.747-.789 2.268-.282.253-.634.465-1.155.465-1.592 0-2.015-1.423-2.015-2.733s.423-2.733 2.015-2.733c.521 0 .873.211 1.155.465.591.521.789 1.38.789 2.268zm10.68 3.465V44.07s-.718.127-1.225.127c-.662 0-.958-.282-.958-.972v-4.128h2.113v-1.028h-2.113v-2.1l-1.198.283v1.817h-1.38v1.028h1.38v4.269c0 .957.423 1.93 1.958 1.93.663 0 1.099-.113 1.423-.198zm7.382-3.465c0-1.127-.24-2.155-1.014-2.916-.522-.507-1.254-.831-2.156-.831-.901 0-1.634.324-2.155.83-.775.761-1.014 1.79-1.014 2.917 0 1.127.239 2.155 1.014 2.916.521.507 1.254.83 2.155.83.902 0 1.634-.323 2.156-.83.774-.76 1.014-1.79 1.014-2.916zm-1.226 0c0 .83-.155 1.69-.662 2.212-.296.295-.718.507-1.282.507-.563 0-.986-.212-1.282-.508-.507-.52-.662-1.38-.662-2.211s.155-1.69.662-2.212c.296-.296.719-.507 1.282-.507.564 0 .986.211 1.282.507.507.521.662 1.38.662 2.212zm12.299 3.564V35.025h-1.197v3.874c-.38-.648-1.296-1.014-2.071-1.014-.831 0-1.493.281-1.958.718-.718.69-1.085 1.817-1.085 3.043 0 1.183.353 2.268 1.029 2.958.465.48 1.141.775 2.014.775.803 0 1.719-.395 2.127-1.113l.085.93h1.056zm-1.127-3.564c0 .887-.197 1.747-.788 2.268-.282.253-.634.465-1.156.465-1.591 0-2.014-1.423-2.014-2.733s.423-2.733 2.014-2.733c.522 0 .874.211 1.156.465.591.521.788 1.38.788 2.268zm9.491-.324c.014-.958-.324-1.874-.901-2.508-.522-.563-1.254-.915-2.17-.915-1.239 0-2.183.634-2.69 1.493-.395.662-.55 1.423-.55 2.282 0 1.014.296 1.958.888 2.648.549.648 1.366 1.07 2.366 1.07.676 0 1.31-.196 1.818-.534.577-.395 1-1.057 1.098-1.761h-1.169c-.099.38-.225.577-.423.775-.295.31-.76.464-1.324.464-.549 0-.986-.183-1.31-.507-.436-.436-.69-1.14-.69-1.789h5.043l.014-.718zm-1.225-.31h-3.804c.028-1.042.662-2.1 1.958-2.1.634 0 1.113.255 1.409.649.282.38.437.916.437 1.45zm8.773 1.803h-1.212c-.056.465-.225.789-.479 1.056-.281.296-.718.48-1.211.48a1.8 1.8 0 0 1-1.24-.465c-.563-.48-.718-1.367-.718-2.24 0-.874.155-1.761.718-2.24a1.8 1.8 0 0 1 1.24-.465c.465 0 .873.17 1.155.437.268.268.451.62.507 1.113h1.212a2.736 2.736 0 0 0-.846-1.832c-.493-.479-1.183-.76-2.028-.76-1.282 0-2.085.591-2.592 1.338-.381.563-.592 1.338-.592 2.409 0 1.07.211 1.845.592 2.409.507.746 1.324 1.338 2.606 1.338.873 0 1.549-.282 2.057-.775.479-.465.774-1.042.831-1.803zm3.271-6.367v-1.409h-1.395v1.409h1.395zm-.084 8.762v-7.128h-1.226v7.128h1.226zm8.387 0V35.025h-1.197v3.874c-.38-.648-1.296-1.014-2.071-1.014-.831 0-1.493.281-1.958.718-.718.69-1.085 1.817-1.085 3.043 0 1.183.353 2.268 1.029 2.958.465.48 1.141.775 2.014.775.803 0 1.719-.395 2.127-1.113l.085.93h1.056zm-1.127-3.564c0 .887-.197 1.747-.788 2.268-.282.253-.634.465-1.156.465-1.591 0-2.014-1.423-2.014-2.733s.423-2.733 2.014-2.733c.522 0 .874.211 1.156.465.591.521.788 1.38.788 2.268zm9.491-.324c.014-.958-.324-1.874-.901-2.508-.522-.563-1.254-.915-2.17-.915-1.239 0-2.183.634-2.69 1.493-.395.662-.55 1.423-.55 2.282 0 1.014.296 1.958.888 2.648.549.648 1.366 1.07 2.366 1.07.677 0 1.31-.196 1.818-.534.577-.395 1-1.057 1.098-1.761h-1.169c-.098.38-.225.577-.422.775-.296.31-.761.464-1.325.464-.549 0-.986-.183-1.31-.507-.436-.436-.69-1.14-.69-1.789h5.043l.014-.718zm-1.225-.31h-3.804c.028-1.042.662-2.1 1.958-2.1.634 0 1.113.255 1.409.649.282.38.437.916.437 1.45zm10.174 4.1v-1.03s-.718.128-1.226.128c-.662 0-.957-.282-.957-.972v-4.128h2.113v-1.028h-2.113v-2.1l-1.198.283v1.817h-1.38v1.028h1.38v4.269c0 .957.423 1.93 1.958 1.93.662 0 1.099-.113 1.423-.198zm7.382-3.466c0-1.127-.24-2.155-1.015-2.916-.521-.507-1.253-.831-2.155-.831-.902 0-1.634.324-2.155.83-.775.761-1.015 1.79-1.015 2.917 0 1.127.24 2.155 1.015 2.916.521.507 1.253.83 2.155.83.902 0 1.634-.323 2.155-.83.775-.76 1.015-1.79 1.015-2.916zm-1.226 0c0 .83-.155 1.69-.662 2.212-.296.295-.719.507-1.282.507-.564 0-.986-.212-1.282-.508-.507-.52-.662-1.38-.662-2.211s.155-1.69.662-2.212c.296-.296.718-.507 1.282-.507.563 0 .986.211 1.282.507.507.521.662 1.38.662 2.212zm13.152 3.564v-4.691c0-1.578-.761-2.62-2.381-2.62-.901 0-1.817.465-2.197 1.352-.31-.873-1.071-1.352-2.128-1.352-.803 0-1.62.394-2 1.197l-.113-1.014h-1.042v7.128h1.197v-3.79c0-.591.127-1.352.479-1.803.296-.38.705-.634 1.212-.634 1.141 0 1.437.69 1.437 1.69v4.537h1.197v-3.79c0-.746.127-1.465.606-1.958a1.444 1.444 0 0 1 1.084-.479c1.127 0 1.451.69 1.451 1.69v4.537h1.198zm8.296-3.564c0-1.127-.239-2.155-1.014-2.916-.521-.507-1.254-.831-2.156-.831-.901 0-1.634.324-2.155.83-.775.761-1.014 1.79-1.014 2.917 0 1.127.239 2.155 1.014 2.916.521.507 1.254.83 2.155.83.902 0 1.635-.323 2.156-.83.775-.76 1.014-1.79 1.014-2.916zm-1.226 0c0 .83-.154 1.69-.662 2.212-.295.295-.718.507-1.282.507-.563 0-.986-.212-1.281-.508-.508-.52-.663-1.38-.663-2.211s.155-1.69.663-2.212c.295-.296.718-.507 1.281-.507.564 0 .987.211 1.282.507.508.521.662 1.38.662 2.212zm7.137-2.395v-1.17a3.784 3.784 0 0 0-.563-.041c-.902 0-1.761.422-2.127 1.295l-.099-1.253h-1.057v7.128h1.184v-3.17c0-.746.07-1.733.648-2.282.324-.31.789-.563 1.352-.563.211 0 .451.014.662.056zm5.338 0v-1.17a3.797 3.797 0 0 0-.564-.041c-.901 0-1.761.422-2.127 1.295l-.098-1.253h-1.057v7.128h1.183v-3.17c0-.746.071-1.733.648-2.282.324-.31.789-.563 1.353-.563.211 0 .45.014.662.056zm7.103 2.395c0-1.127-.24-2.155-1.015-2.916-.521-.507-1.253-.831-2.155-.831-.902 0-1.634.324-2.155.83-.775.761-1.015 1.79-1.015 2.917 0 1.127.24 2.155 1.015 2.916.521.507 1.253.83 2.155.83.902 0 1.634-.323 2.155-.83.775-.76 1.015-1.79 1.015-2.916zm-1.226 0c0 .83-.155 1.69-.662 2.212-.296.295-.718.507-1.282.507-.563 0-.986-.212-1.282-.508-.507-.52-.662-1.38-.662-2.211s.155-1.69.662-2.212c.296-.296.719-.507 1.282-.507.564 0 .986.211 1.282.507.507.521.662 1.38.662 2.212zm12.182-3.564h-1.17l-1.38 5.381-1.789-5.297h-1.029l-1.817 5.297-1.366-5.381h-1.184l1.832 7.128h1.141l1.902-5.452 1.859 5.452h1.155l1.846-7.128zm2.936 7.128V43.52h-1.662v1.676h1.662z" fill="#1C1E29"/><g style="mix-blend-mode:multiply" filter="url(#filter1_d)"><path fill-rule="evenodd" clip-rule="evenodd" d="M22.696 31.196h180v18.782h-180V31.196z" fill="#DBEAFF"/></g><path fill-rule="evenodd" clip-rule="evenodd" d="M49.304 71.892a6.26 6.26 0 0 1 6.261-6.261h248.87a6.26 6.26 0 0 1 6.261 6.26v69.653a6.26 6.26 0 0 1-6.261 6.261H55.565a6.26 6.26 0 0 1-6.26-6.261V71.892z" fill="#fff" stroke="#E4E6F2" stroke-width=".783" stroke-linecap="square"/><path d="M78.531 85.561h-.648a1.143 1.143 0 0 1-.274.718c-.198.219-.529.38-.91.38-.337 0-.668-.133-.908-.38-.408-.422-.422-1.098-.422-1.62 0-.52.014-1.197.422-1.62.24-.246.57-.38.909-.38.38 0 .704.148.901.366.162.183.268.423.275.698h.648a1.704 1.704 0 0 0-.493-1.141c-.303-.303-.789-.515-1.331-.515-.5 0-.993.184-1.352.536-.543.528-.627 1.26-.627 2.056s.084 1.529.627 2.057a1.93 1.93 0 0 0 1.352.535c.542 0 1.035-.232 1.338-.535a1.74 1.74 0 0 0 .493-1.155zm4.64 1.592v-.585h-2.402V82.16h-.627v4.994h3.029zm5.042 0l-1.768-4.994h-.733l-1.76 4.994h.633l.402-1.184h2.17l.408 1.184h.648zm-1.261-1.775h-1.768l.88-2.592.888 2.592zm6.29 1.775l-1-2.198c.239-.077.45-.197.598-.352.24-.253.38-.55.38-.986 0-.437-.155-.76-.394-1.014-.275-.282-.683-.444-1.268-.444H89.6v4.994h.627v-2.078h1.38l.944 2.078h.69zm-.67-3.536c0 .634-.422.873-1.014.873h-1.331v-1.753h1.331c.592 0 1.014.246 1.014.88zm2.959 3.536v-4.994h-.641v4.994h.64zm5.028-4.41v-.584h-3.606v.585h1.486v4.409h.634v-4.41h1.486zm4.705-.584h-.669l-1.303 2.374-1.31-2.374h-.705l1.677 2.965v2.029h.634v-2.029l1.676-2.965zm1.903 2.212v-.782h-.775v.782h.775zm0 2.789v-.775h-.775v.775h.775zm7.216-1.599h-.648a1.144 1.144 0 0 1-.275.718c-.197.219-.528.38-.908.38-.339 0-.67-.133-.909-.38-.409-.422-.423-1.098-.423-1.62 0-.52.014-1.197.423-1.62.239-.246.57-.38.909-.38.38 0 .704.148.901.366.162.183.268.423.275.698h.648a1.702 1.702 0 0 0-.493-1.141c-.303-.303-.789-.515-1.331-.515a1.93 1.93 0 0 0-1.353.536c-.542.528-.627 1.26-.627 2.056s.085 1.529.627 2.057a1.93 1.93 0 0 0 1.353.535c.542 0 1.035-.232 1.338-.535.289-.296.472-.69.493-1.155zm5.252-.902c0-.796-.099-1.528-.641-2.056a1.913 1.913 0 0 0-1.345-.536c-.5 0-.986.184-1.346.536-.542.528-.641 1.26-.641 2.056s.099 1.529.641 2.057c.36.352.846.535 1.346.535.5 0 .986-.183 1.345-.535.542-.528.641-1.26.641-2.057zm-.648 0c0 .522-.021 1.198-.43 1.62-.239.247-.57.374-.908.374-.338 0-.669-.127-.909-.374-.408-.422-.43-1.098-.43-1.62 0-.52.022-1.197.43-1.62.24-.246.571-.373.909-.373.338 0 .669.127.908.373.409.423.43 1.1.43 1.62zm6.112 2.494v-4.994h-.605v4.029l-2.451-4.029h-.705v4.994h.606v-4.015l2.451 4.015h.704zm5.517-1.592h-.648a1.143 1.143 0 0 1-.274.718c-.198.219-.529.38-.909.38a1.27 1.27 0 0 1-.909-.38c-.408-.422-.422-1.098-.422-1.62 0-.52.014-1.197.422-1.62.24-.246.571-.38.909-.38.38 0 .704.148.902.366.162.183.267.423.274.698h.648a1.702 1.702 0 0 0-.493-1.141c-.303-.303-.789-.515-1.331-.515-.5 0-.993.184-1.352.536-.543.528-.627 1.26-.627 2.056s.084 1.529.627 2.057a1.93 1.93 0 0 0 1.352.535c.542 0 1.035-.232 1.338-.535.289-.296.472-.69.493-1.155zm2.252 1.592v-4.994h-.641v4.994h.641zm5.451-1.374c0-.788-.557-1.296-1.388-1.415-.274-.043-.549-.092-.831-.127-.373-.05-.746-.254-.746-.704 0-.226.077-.395.204-.543.218-.246.528-.345.887-.345.388 0 .691.127.881.345.141.162.232.38.246.627h.655a1.5 1.5 0 0 0-.479-1.07c-.331-.318-.81-.48-1.296-.48-.521 0-.965.17-1.31.494a1.379 1.379 0 0 0-.436.986c0 .796.584 1.211 1.331 1.324l.789.12c.591.091.838.415.838.802a.736.736 0 0 1-.254.585c-.225.211-.549.289-.929.289-.353 0-.733-.092-.958-.31a1.137 1.137 0 0 1-.353-.789h-.655c0 .472.219.902.536 1.197.338.31.824.48 1.43.48.535 0 1.07-.163 1.415-.5a1.3 1.3 0 0 0 .423-.966zm5.019 1.374v-.578h-2.711V84.85h2.38v-.592h-2.38v-1.521h2.711v-.578H140v4.994h3.338zm5.451 0v-4.994h-.605v4.029l-2.452-4.029h-.704v4.994h.606v-4.015l2.451 4.015h.704zm5.376 0v-.578h-2.711V84.85h2.38v-.592h-2.38v-1.521h2.711v-.578h-3.338v4.994h3.338zm5.072-1.374c0-.788-.557-1.296-1.388-1.415-.275-.043-.549-.092-.831-.127-.373-.05-.747-.254-.747-.704 0-.226.078-.395.205-.543.218-.246.528-.345.887-.345.388 0 .69.127.881.345.14.162.232.38.246.627h.655a1.5 1.5 0 0 0-.479-1.07c-.331-.318-.81-.48-1.296-.48-.521 0-.965.17-1.31.494a1.376 1.376 0 0 0-.437.986c0 .796.585 1.211 1.332 1.324l.789.12c.591.091.838.415.838.802a.736.736 0 0 1-.254.585c-.225.211-.549.289-.93.289-.352 0-.732-.092-.958-.31a1.14 1.14 0 0 1-.352-.789h-.655c0 .472.219.902.536 1.197.338.31.824.48 1.429.48.536 0 1.071-.163 1.416-.5a1.3 1.3 0 0 0 .423-.966zm5.097 0c0-.788-.557-1.296-1.388-1.415-.274-.043-.549-.092-.831-.127-.373-.05-.747-.254-.747-.704 0-.226.078-.395.205-.543.218-.246.528-.345.887-.345.388 0 .69.127.881.345.141.162.232.38.246.627h.655a1.5 1.5 0 0 0-.479-1.07c-.331-.318-.81-.48-1.296-.48-.521 0-.965.17-1.31.494a1.38 1.38 0 0 0-.437.986c0 .796.585 1.211 1.332 1.324l.789.12c.591.091.838.415.838.802a.736.736 0 0 1-.254.585c-.225.211-.549.289-.93.289-.352 0-.732-.092-.957-.31a1.137 1.137 0 0 1-.353-.789h-.655c0 .472.219.902.536 1.197.338.31.824.48 1.429.48.536 0 1.071-.163 1.416-.5a1.3 1.3 0 0 0 .423-.966z" fill="#8189A9"/><path fill-rule="evenodd" clip-rule="evenodd" d="M62.217 85.979a1.957 1.957 0 1 0 0-3.913 1.957 1.957 0 0 0 0 3.913z" fill="#4B6EE0"/><path d="M77.038 119.544v-9.988h-1.282v9.988h1.282zm6.41-.099v-1.028s-.719.127-1.226.127c-.662 0-.958-.282-.958-.972v-4.128h2.113v-1.028h-2.113v-2.099l-1.197.282v1.817h-1.38v1.028h1.38v4.269c0 .958.423 1.93 1.958 1.93.662 0 1.099-.113 1.423-.198zm14.837.099v-4.691c0-1.578-.761-2.62-2.381-2.62-.902 0-1.817.465-2.198 1.352-.31-.873-1.07-1.352-2.127-1.352-.803 0-1.62.394-2 1.197l-.113-1.014h-1.042v7.128h1.197v-3.789c0-.592.127-1.353.48-1.804.295-.38.704-.633 1.21-.633 1.142 0 1.438.69 1.438 1.69v4.536h1.197v-3.789c0-.747.127-1.465.606-1.959a1.448 1.448 0 0 1 1.084-.478c1.127 0 1.451.69 1.451 1.69v4.536h1.198zm8.479-.07v-.888s-.183.042-.31.042c-.239 0-.394-.098-.394-.479v-3.451a2.73 2.73 0 0 0-.212-1.099c-.338-.775-1.127-1.366-2.507-1.366-.873 0-1.719.253-2.198.761a2.11 2.11 0 0 0-.619 1.493h1.169c0-.352.127-.634.352-.86.239-.239.648-.422 1.296-.422.577 0 .93.141 1.169.366.324.296.366.733.366 1.085v.521l-2.169.127c-1.944.112-2.536 1.31-2.536 2.226 0 1.098.817 2.197 2.451 2.197 1.001 0 1.888-.451 2.297-1.169h.028c0 .606.394 1.085 1.028 1.085.296 0 .535-.043.789-.169zm-1.888-2.945c0 .592-.183 1.184-.605 1.62-.381.395-.916.578-1.465.578-1.015 0-1.409-.592-1.409-1.226 0-.901.845-1.239 1.564-1.282l1.915-.112v.422zm9.211-4.113h-1.254l-2 5.621-2.099-5.621h-1.353l2.846 7.128-.451 1.197c-.197.536-.563.719-1.07.719-.465 0-.846-.113-.846-.113v1.043c.099.028.493.14 1.085.14 1.071 0 1.592-.605 1.93-1.521l3.212-8.593zm13.643 7.128v-1.62h-1.62v1.62h1.62zm-3.789 0v-1.62h-1.606v1.62h1.606zm-3.775 0v-1.62h-1.606v1.62h1.606zm18.963 0v-4.691c0-1.648-.845-2.62-2.465-2.62-.803 0-1.789.437-2.156 1.254l-.098-1.071h-1.043v7.128h1.198v-3.31c0-.55.014-1.296.253-1.818.31-.648.86-1.098 1.55-1.098 1.127 0 1.563.633 1.563 1.704v4.522h1.198zm8.226-3.888c.014-.958-.324-1.874-.902-2.508-.521-.563-1.253-.915-2.169-.915-1.24 0-2.183.634-2.691 1.493-.394.662-.549 1.423-.549 2.282 0 1.014.296 1.958.888 2.648.549.648 1.366 1.071 2.366 1.071.676 0 1.31-.197 1.817-.535a2.623 2.623 0 0 0 1.099-1.761h-1.169c-.099.38-.225.577-.423.775-.295.31-.76.465-1.324.465-.549 0-.986-.184-1.31-.508-.437-.436-.69-1.141-.69-1.789h5.043l.014-.718zm-1.226-.31h-3.803c.028-1.042.662-2.099 1.958-2.099.634 0 1.113.254 1.409.648.282.38.436.916.436 1.451zm8.985.31c.014-.958-.324-1.874-.902-2.508-.521-.563-1.253-.915-2.169-.915-1.24 0-2.184.634-2.691 1.493-.394.662-.549 1.423-.549 2.282 0 1.014.296 1.958.887 2.648.55.648 1.367 1.071 2.367 1.071.676 0 1.31-.197 1.817-.535.578-.395 1-1.057 1.099-1.761h-1.169c-.099.38-.226.577-.423.775-.296.31-.761.465-1.324.465-.549 0-.986-.184-1.31-.508-.437-.436-.69-1.141-.69-1.789h5.043l.014-.718zm-1.226-.31h-3.803c.028-1.042.662-2.099 1.958-2.099.634 0 1.113.254 1.409.648.281.38.436.916.436 1.451zm8.999 4.198v-10.171h-1.198v3.874c-.38-.648-1.296-1.014-2.07-1.014-.832 0-1.494.282-1.958.718-.719.691-1.085 1.817-1.085 3.043 0 1.183.352 2.268 1.028 2.958.465.479 1.141.775 2.015.775.803 0 1.718-.394 2.127-1.113l.084.93h1.057zm-1.127-3.564c0 .887-.197 1.747-.789 2.268-.282.254-.634.465-1.155.465-1.592 0-2.015-1.423-2.015-2.733s.423-2.733 2.015-2.733c.521 0 .873.211 1.155.465.592.521.789 1.38.789 2.268z" fill="#1C1E29"/><path d="M74.347 116.892h88.435" stroke="#EA1537" stroke-width=".783" stroke-linecap="square"/><path fill-rule="evenodd" clip-rule="evenodd" d="M180.611 117.283h-10.394a.377.377 0 0 1-.391-.391.377.377 0 0 1 .391-.391h10.394l-3.62-3.644a.328.328 0 0 1-.122-.269c0-.115.041-.204.122-.269a.326.326 0 0 1 .269-.123c.115 0 .204.041.269.123l4.305 4.304a.327.327 0 0 1 .122.269.327.327 0 0 1-.122.269l-4.28 4.304a.386.386 0 0 1-.281.123.388.388 0 0 1-.282-.123.327.327 0 0 1-.122-.269c0-.114.041-.204.122-.269l3.62-3.644z" fill="#9FA6BF"/><rect x="189.391" y="103.196" width="98.609" height="25.044" rx="3.13" fill="#11A683"/><path d="M207.344 110.556h-1.141l-1.592 8.128-2.31-7.987h-1.127l-2.31 8.002-1.592-8.143h-1.169l2 9.988h1.324l2.31-8.044 2.282 8.044h1.339l1.986-9.988zm7.306 6.1c.014-.958-.324-1.874-.901-2.508-.522-.563-1.254-.915-2.17-.915-1.239 0-2.183.634-2.69 1.493-.395.662-.55 1.423-.55 2.282 0 1.014.296 1.958.888 2.648.549.648 1.366 1.071 2.366 1.071.677 0 1.31-.197 1.818-.535.577-.395 1-1.057 1.098-1.761h-1.169c-.098.38-.225.577-.422.775-.296.31-.761.465-1.325.465-.549 0-.986-.184-1.31-.508-.436-.436-.69-1.141-.69-1.789h5.043l.014-.718zm-1.225-.31h-3.804c.028-1.042.662-2.099 1.958-2.099.634 0 1.113.254 1.409.648.282.38.437.916.437 1.451zm16.344 4.198v-4.691c0-1.578-.761-2.62-2.381-2.62-.901 0-1.817.465-2.197 1.352-.31-.873-1.071-1.352-2.127-1.352-.803 0-1.62.394-2.001 1.197l-.112-1.014h-1.043v7.128h1.198v-3.789c0-.592.126-1.353.479-1.804.295-.38.704-.633 1.211-.633 1.141 0 1.437.69 1.437 1.69v4.536h1.197v-3.789c0-.747.127-1.465.606-1.959a1.449 1.449 0 0 1 1.085-.478c1.127 0 1.451.69 1.451 1.69v4.536h1.197zm8.479-.07v-.888s-.183.042-.309.042c-.24 0-.395-.098-.395-.479v-3.451c0-.408-.07-.775-.211-1.099-.338-.775-1.127-1.366-2.508-1.366-.873 0-1.718.253-2.197.761-.367.38-.606.845-.62 1.493h1.169c0-.352.127-.634.352-.86.24-.239.648-.422 1.296-.422.578 0 .93.141 1.17.366.324.296.366.733.366 1.085v.521l-2.17.127c-1.944.112-2.535 1.31-2.535 2.226 0 1.098.817 2.197 2.451 2.197 1 0 1.888-.451 2.296-1.169h.028c0 .606.395 1.085 1.029 1.085.295 0 .535-.043.788-.169zm-1.887-2.945c0 .592-.183 1.184-.606 1.62-.38.395-.916.578-1.465.578-1.014 0-1.409-.592-1.409-1.226 0-.901.846-1.239 1.564-1.282l1.916-.112v.422zm9.21-4.113h-1.254l-2 5.621-2.099-5.621h-1.352l2.845 7.128-.45 1.197c-.198.536-.564.719-1.071.719-.465 0-.845-.113-.845-.113v1.043c.098.028.493.14 1.084.14 1.071 0 1.592-.605 1.93-1.521l3.212-8.593zm10.46 7.128v-4.691c0-1.648-.845-2.62-2.465-2.62-.803 0-1.789.437-2.156 1.254l-.098-1.071h-1.043v7.128h1.198v-3.31c0-.55.014-1.296.253-1.818.31-.648.86-1.098 1.55-1.098 1.127 0 1.564.633 1.564 1.704v4.522h1.197zm8.226-3.888c.014-.958-.324-1.874-.901-2.508-.522-.563-1.254-.915-2.17-.915-1.239 0-2.183.634-2.69 1.493-.395.662-.55 1.423-.55 2.282 0 1.014.296 1.958.888 2.648.549.648 1.366 1.071 2.366 1.071.677 0 1.31-.197 1.818-.535.577-.395 1-1.057 1.098-1.761h-1.169c-.098.38-.225.577-.422.775-.296.31-.761.465-1.325.465-.549 0-.986-.184-1.31-.508-.436-.436-.69-1.141-.69-1.789h5.043l.014-.718zm-1.225-.31h-3.804c.028-1.042.662-2.099 1.958-2.099.634 0 1.113.254 1.409.648.282.38.437.916.437 1.451zm8.984.31c.014-.958-.324-1.874-.901-2.508-.522-.563-1.254-.915-2.17-.915-1.24 0-2.183.634-2.69 1.493-.395.662-.55 1.423-.55 2.282 0 1.014.296 1.958.888 2.648.549.648 1.366 1.071 2.366 1.071.676 0 1.31-.197 1.817-.535a2.623 2.623 0 0 0 1.099-1.761h-1.169c-.099.38-.225.577-.423.775-.295.31-.76.465-1.324.465-.549 0-.986-.184-1.31-.508-.437-.436-.69-1.141-.69-1.789h5.043l.014-.718zm-1.225-.31h-3.804c.028-1.042.662-2.099 1.958-2.099.634 0 1.113.254 1.409.648.282.38.437.916.437 1.451zm8.998 4.198v-10.171h-1.197v3.874c-.381-.648-1.296-1.014-2.071-1.014-.831 0-1.493.282-1.958.718-.719.691-1.085 1.817-1.085 3.043 0 1.183.352 2.268 1.028 2.958.465.479 1.141.775 2.015.775.803 0 1.718-.394 2.127-1.113l.084.93h1.057zm-1.127-3.564c0 .887-.197 1.747-.789 2.268-.282.254-.634.465-1.155.465-1.592 0-2.014-1.423-2.014-2.733s.422-2.733 2.014-2.733c.521 0 .873.211 1.155.465.592.521.789 1.38.789 2.268z" fill="#fff"/></g><defs><filter id="filter0_b" x="-16" y="-16" width="392" height="210" filterUnits="userSpaceOnUse" color-interpolation-filters="sRGB"><feFlood flood-opacity="0" result="BackgroundImageFix"/><feGaussianBlur in="BackgroundImage" stdDeviation="8"/><feComposite in2="SourceAlpha" operator="in" result="effect1_backgroundBlur"/><feBlend in="SourceGraphic" in2="effect1_backgroundBlur" result="shape"/></filter><filter id="filter1_d" x="22.696" y="31.196" width="180" height="20.348" filterUnits="userSpaceOnUse" color-interpolation-filters="sRGB"><feFlood flood-opacity="0" result="BackgroundImageFix"/><feColorMatrix in="SourceAlpha" values="0 0 0 0 0 0 0 0 0 0 0 0 0 0 0 0 0 0 127 0"/><feOffset dy="1.565"/><feColorMatrix values="0 0 0 0 0.290196 0 0 0 0 0.431373 0 0 0 0 0.878431 0 0 0 1 0"/><feBlend in2="BackgroundImageFix" result="effect1_dropShadow"/><feBlend in="SourceGraphic" in2="effect1_dropShadow" result="shape"/></filter><clipPath id="clip0"><path fill="#fff" d="M0 31.196h360v116.609H0z"/></clipPath></defs></svg>