<svg width="360" height="178" viewBox="0 0 360 178" fill="none" xmlns="http://www.w3.org/2000/svg"><g filter="url(#filter0_b)"><path fill="#fff" d="M0 0h360v178H0z"/></g><path d="M288.58 13.245c0-1.008-.711-1.656-1.773-1.809-.351-.054-.702-.117-1.062-.162-.477-.063-.954-.324-.954-.9 0-.288.099-.504.261-.693.279-.315.675-.441 1.134-.441.495 0 .882.162 1.125.441.18.207.297.486.315.801h.837a1.917 1.917 0 0 0-.612-1.368c-.423-.405-1.035-.612-1.656-.612-.666 0-1.233.216-1.674.63a1.76 1.76 0 0 0-.558 1.26c0 1.017.747 1.548 1.701 1.692l1.008.153c.756.117 1.071.531 1.071 1.026a.94.94 0 0 1-.324.747c-.288.27-.702.369-1.188.369-.45 0-.936-.117-1.224-.396-.261-.252-.45-.63-.45-1.008h-.837c0 .603.279 1.152.684 1.53.432.396 1.053.612 1.827.612.684 0 1.368-.207 1.809-.639.315-.306.54-.702.54-1.233zM295.001 15l-2.259-6.381h-.936L289.556 15h.81l.513-1.512h2.772l.522 1.512h.828zm-1.611-2.268h-2.259l1.125-3.312 1.134 3.312zM302.594 15V8.619h-1.125l-1.917 5.193-1.926-5.193h-1.152V15h.765V9.573l1.98 5.337h.63l1.98-5.292V15h.765zm6.772-4.455c0-.558-.18-1.017-.486-1.35-.342-.369-.873-.576-1.62-.576h-2.367V15h.801v-2.475h1.575c.702 0 1.224-.189 1.566-.531.342-.342.531-.828.531-1.449zm-.828 0c0 .855-.432 1.251-1.287 1.251h-1.557V9.348h1.548c.792 0 1.296.387 1.296 1.197zM314.906 15v-.747h-3.069V8.619h-.801V15h3.87zm5.791 0v-.738h-3.465v-2.205h3.042v-.756h-3.042V9.357h3.465v-.738h-4.266V15h4.266zm5.252 0V8.619h-.819V15h.819zm6.666-1.755c0-1.008-.711-1.656-1.773-1.809-.351-.054-.702-.117-1.062-.162-.477-.063-.954-.324-.954-.9 0-.288.099-.504.261-.693.279-.315.675-.441 1.134-.441.495 0 .882.162 1.125.441.18.207.297.486.315.801h.837a1.917 1.917 0 0 0-.612-1.368c-.423-.405-1.035-.612-1.656-.612-.666 0-1.233.216-1.674.63a1.76 1.76 0 0 0-.558 1.26c0 1.017.747 1.548 1.701 1.692l1.008.153c.756.117 1.071.531 1.071 1.026a.94.94 0 0 1-.324.747c-.288.27-.702.369-1.188.369-.45 0-.936-.117-1.224-.396-.261-.252-.45-.63-.45-1.008h-.837c0 .603.279 1.152.684 1.53.432.396 1.053.612 1.827.612.684 0 1.368-.207 1.809-.639.315-.306.54-.702.54-1.233zm6.213 0c0-1.008-.711-1.656-1.773-1.809-.351-.054-.702-.117-1.062-.162-.477-.063-.954-.324-.954-.9 0-.288.099-.504.261-.693.279-.315.675-.441 1.134-.441.495 0 .882.162 1.125.441.18.207.297.486.315.801h.837a1.917 1.917 0 0 0-.612-1.368c-.423-.405-1.035-.612-1.656-.612-.666 0-1.233.216-1.674.63a1.76 1.76 0 0 0-.558 1.26c0 1.017.747 1.548 1.701 1.692l1.008.153c.756.117 1.071.531 1.071 1.026a.94.94 0 0 1-.324.747c-.288.27-.702.369-1.188.369-.45 0-.936-.117-1.224-.396-.261-.252-.45-.63-.45-1.008h-.837c0 .603.279 1.152.684 1.53.432.396 1.053.612 1.827.612.684 0 1.368-.207 1.809-.639.315-.306.54-.702.54-1.233zm6.329-.585V8.619h-.801v4.059c0 1.017-.423 1.692-1.53 1.692s-1.53-.675-1.53-1.692V8.619h-.801v4.041c0 1.593.9 2.457 2.331 2.457s2.331-.864 2.331-2.457zm6.384 2.34v-.738h-3.465v-2.205h3.042v-.756h-3.042V9.357h3.465v-.738h-4.266V15h4.266z" fill="#9FA6BF"/><path d="M67.644 53v-9.882h-1.268V53h1.268zm7.917-2.049c0-1.059-.795-1.784-1.798-1.951-.753-.125-1.31-.181-1.7-.237-.586-.084-.948-.334-.948-.92 0-.39.265-.766.71-.948.335-.139.544-.139.823-.139.474 0 .864.112 1.157.376.209.182.39.516.404.879h1.185c0-.572-.196-.976-.502-1.352-.474-.6-1.31-.892-2.244-.892-.878 0-1.617.306-2.077.78-.32.32-.585.836-.585 1.38 0 1.073.669 1.728 1.728 1.895l1.589.21c.725.097 1.101.473 1.101 1.003a1 1 0 0 1-.348.766c-.363.307-.809.39-1.297.39-.446 0-.947-.083-1.268-.32a1.375 1.375 0 0 1-.571-1.101h-1.185c0 .6.25 1.199.683 1.617.6.585 1.408.794 2.286.794.92 0 1.756-.237 2.3-.794.334-.349.557-.822.557-1.436zm8.905 1.951v-1.017s-.71.126-1.212.126c-.656 0-.948-.28-.948-.962v-4.084h2.09v-1.017h-2.09V43.87l-1.185.279v1.798h-1.366v1.017h1.366v4.223c0 .948.418 1.91 1.937 1.91a5.1 5.1 0 0 0 1.408-.196zm7.411.098v-4.641c0-1.63-.85-2.592-2.453-2.592-.794 0-1.644.39-2.062 1.115v-3.945h-1.185V53h1.185v-3.275c0-.544.014-1.282.25-1.798.307-.641.85-1.087 1.534-1.087 1.115 0 1.547.627 1.547 1.686V53h1.184zm8.166-3.847c.014-.947-.32-1.853-.892-2.48-.515-.558-1.24-.906-2.146-.906-1.226 0-2.16.627-2.662 1.477-.39.655-.544 1.408-.544 2.258 0 1.003.293 1.937.879 2.62.543.641 1.352 1.06 2.341 1.06.669 0 1.296-.196 1.798-.53.571-.39.99-1.046 1.087-1.743h-1.157c-.097.377-.223.572-.418.767-.293.307-.752.46-1.31.46-.544 0-.976-.181-1.296-.502-.432-.432-.683-1.129-.683-1.77h4.989l.014-.71zm-1.212-.306h-3.763c.028-1.032.655-2.077 1.937-2.077.627 0 1.101.25 1.394.641.279.377.432.906.432 1.436zm7.007-1.742v-1.157a3.743 3.743 0 0 0-.557-.042c-.892 0-1.742.418-2.105 1.282l-.097-1.24h-1.046V53h1.171v-3.136c0-.739.07-1.714.641-2.258a1.94 1.94 0 0 1 1.338-.557c.209 0 .446.014.655.056zm7.095 2.048c.014-.947-.321-1.853-.892-2.48-.516-.558-1.241-.906-2.147-.906-1.226 0-2.16.627-2.662 1.477-.39.655-.543 1.408-.543 2.258 0 1.003.292 1.937.878 2.62.543.641 1.352 1.06 2.341 1.06.669 0 1.296-.196 1.798-.53.572-.39.99-1.046 1.087-1.743h-1.157c-.097.377-.223.572-.418.767-.292.307-.752.46-1.31.46-.543 0-.975-.181-1.296-.502-.432-.432-.683-1.129-.683-1.77h4.99l.014-.71zm-1.213-.306h-3.763c.028-1.032.655-2.077 1.937-2.077.627 0 1.101.25 1.394.641.279.377.432.906.432 1.436zm12.324 4.083v-.878s-.181.042-.307.042c-.236 0-.39-.098-.39-.474v-3.414a2.69 2.69 0 0 0-.209-1.088c-.334-.766-1.115-1.351-2.481-1.351-.864 0-1.7.25-2.174.752a2.09 2.09 0 0 0-.613 1.477h1.157c0-.348.125-.627.348-.85.237-.237.641-.418 1.282-.418.572 0 .92.14 1.157.363.321.292.362.724.362 1.073v.515l-2.146.126c-1.923.111-2.509 1.296-2.509 2.202 0 1.087.809 2.174 2.426 2.174.989 0 1.867-.446 2.271-1.157h.028c0 .6.39 1.074 1.018 1.074.292 0 .529-.042.78-.168zm-1.868-2.913c0 .586-.181 1.171-.599 1.603-.376.39-.906.572-1.449.572-1.004 0-1.394-.586-1.394-1.213 0-.892.836-1.226 1.547-1.268l1.895-.112v.418zM131.62 53v-4.641c0-1.63-.836-2.592-2.439-2.592-.794 0-1.77.432-2.132 1.24l-.098-1.06h-1.031V53h1.185v-3.275c0-.544.014-1.282.25-1.798.307-.641.851-1.087 1.534-1.087 1.115 0 1.547.627 1.547 1.686V53h1.184zm7.822-7.052h-1.241l-1.979 5.56-2.076-5.56h-1.338L135.623 53l-.446 1.185c-.195.53-.557.71-1.059.71-.46 0-.836-.111-.836-.111v1.031c.097.028.487.14 1.073.14 1.059 0 1.575-.6 1.909-1.505l3.178-8.502zm5.088 6.954v-1.017s-.711.126-1.213.126c-.655 0-.948-.28-.948-.962v-4.084h2.091v-1.017h-2.091V43.87l-1.184.279v1.798h-1.366v1.017h1.366v4.223c0 .948.418 1.91 1.937 1.91a5.09 5.09 0 0 0 1.408-.196zm7.411.098v-4.641c0-1.63-.85-2.592-2.453-2.592-.794 0-1.645.39-2.063 1.115v-3.945h-1.184V53h1.184v-3.275c0-.544.014-1.282.251-1.798.307-.641.85-1.087 1.533-1.087 1.115 0 1.547.627 1.547 1.686V53h1.185zm3.776-8.669v-1.394h-1.38v1.394h1.38zM155.633 53v-7.052h-1.212V53h1.212zm8.299 0v-4.641c0-1.63-.836-2.592-2.439-2.592-.795 0-1.77.432-2.133 1.24l-.097-1.06h-1.032V53h1.185v-3.275c0-.544.014-1.282.251-1.798.307-.641.85-1.087 1.533-1.087 1.115 0 1.547.627 1.547 1.686V53h1.185zm8.473 1.045a1.9 1.9 0 0 0-.557-1.38c-.558-.57-1.492-.738-2.328-.738h-1.394c-.446 0-1.059-.084-1.059-.697 0-.334.335-.544.599-.627a3.12 3.12 0 0 0 1.185.195c.934 0 1.645-.335 2.105-.836a2.5 2.5 0 0 0 .641-1.687c0-.627-.168-1.087-.46-1.463.069-.39.404-.641.864-.641.097 0 .195 0 .265.014v-.962a2.952 2.952 0 0 0-.349-.028c-.669 0-1.212.362-1.449.99-.432-.265-.948-.418-1.617-.418-.934 0-1.603.292-2.09.794-.405.418-.669.948-.669 1.714 0 .67.292 1.366.808 1.826-.53.25-.934.739-.934 1.366 0 .544.349 1.003.822 1.185-.557.278-1.003.822-1.003 1.56 0 .558.209.962.502 1.255.683.683 1.742.822 2.676.822.989 0 2.16-.153 2.843-.822a1.98 1.98 0 0 0 .599-1.422zm-1.965-5.77c0 .892-.641 1.575-1.603 1.575-1.003 0-1.603-.683-1.603-1.575 0-.892.641-1.547 1.603-1.547 1.004 0 1.603.655 1.603 1.547zm.808 5.77a.986.986 0 0 1-.292.725c-.446.446-1.324.502-1.924.502-.613 0-1.421-.028-1.881-.488a.997.997 0 0 1-.293-.739c0-.543.418-.961.892-1.115h1.631c.85 0 1.867.07 1.867 1.115zm11.561-4.892c.014-.947-.32-1.853-.892-2.48-.515-.558-1.24-.906-2.146-.906-1.226 0-2.16.627-2.662 1.477-.39.655-.544 1.408-.544 2.258 0 1.003.293 1.937.879 2.62.543.641 1.351 1.06 2.341 1.06.669 0 1.296-.196 1.798-.53a2.6 2.6 0 0 0 1.087-1.743h-1.157c-.097.377-.223.572-.418.767-.293.307-.753.46-1.31.46-.544 0-.976-.181-1.296-.502-.432-.432-.683-1.129-.683-1.77h4.989l.014-.71zm-1.212-.306h-3.763c.028-1.032.655-2.077 1.937-2.077.627 0 1.101.25 1.394.641.279.377.432.906.432 1.436zM187.071 53v-1.004s-.097.014-.488.014c-.488 0-.641-.25-.641-.724v-8.349h-1.184v8.418c0 1.115.446 1.729 1.477 1.729.571 0 .836-.084.836-.084zm7.011-2.049c0-1.059-.795-1.784-1.798-1.951-.753-.125-1.31-.181-1.7-.237-.586-.084-.948-.334-.948-.92 0-.39.265-.766.711-.948.334-.139.543-.139.822-.139.474 0 .864.112 1.157.376.209.182.39.516.404.879h1.185c0-.572-.196-.976-.502-1.352-.474-.6-1.31-.892-2.244-.892-.878 0-1.617.306-2.077.78-.32.32-.585.836-.585 1.38 0 1.073.669 1.728 1.728 1.895l1.589.21c.725.097 1.101.473 1.101 1.003a1 1 0 0 1-.348.766c-.363.307-.809.39-1.297.39-.446 0-.947-.083-1.268-.32a1.376 1.376 0 0 1-.571-1.101h-1.185c0 .6.251 1.199.683 1.617.599.585 1.408.794 2.286.794.919 0 1.756-.237 2.299-.794.335-.349.558-.822.558-1.436zm7.728-1.798c.014-.947-.321-1.853-.892-2.48-.516-.558-1.241-.906-2.147-.906-1.226 0-2.16.627-2.662 1.477-.39.655-.543 1.408-.543 2.258 0 1.003.293 1.937.878 2.62.543.641 1.352 1.06 2.341 1.06a3.25 3.25 0 0 0 1.798-.53c.572-.39.99-1.046 1.087-1.743h-1.156c-.098.377-.223.572-.419.767-.292.307-.752.46-1.31.46-.543 0-.975-.181-1.296-.502-.432-.432-.683-1.129-.683-1.77h4.99l.014-.71zm-1.213-.306h-3.763c.028-1.032.655-2.077 1.937-2.077.628 0 1.101.25 1.394.641.279.377.432.906.432 1.436zM208.378 53v-9.882h-1.269V53h1.269zm11.379-2.37h-1.198c-.056.46-.223.781-.474 1.046-.279.293-.711.474-1.199.474a1.78 1.78 0 0 1-1.226-.46c-.558-.474-.711-1.352-.711-2.216 0-.864.153-1.742.711-2.216a1.78 1.78 0 0 1 1.226-.46c.46 0 .864.167 1.143.432.265.265.446.613.502 1.101h1.198a2.7 2.7 0 0 0-.836-1.812c-.488-.474-1.171-.752-2.007-.752-1.268 0-2.063.585-2.564 1.324-.377.557-.586 1.324-.586 2.383 0 1.06.209 1.826.586 2.383.501.739 1.31 1.324 2.578 1.324.864 0 1.533-.279 2.035-.766.474-.46.766-1.032.822-1.784zm7.85 2.3v-.878s-.181.042-.307.042c-.237 0-.39-.098-.39-.474v-3.414c0-.405-.07-.767-.209-1.088-.334-.766-1.115-1.351-2.481-1.351-.864 0-1.7.25-2.174.752a2.09 2.09 0 0 0-.613 1.477h1.157c0-.348.125-.627.348-.85.237-.237.641-.418 1.282-.418.572 0 .92.14 1.157.363.321.292.362.724.362 1.073v.515l-2.146.126c-1.923.111-2.509 1.296-2.509 2.202 0 1.087.809 2.174 2.425 2.174.99 0 1.868-.446 2.272-1.157h.028c0 .6.39 1.074 1.018 1.074.292 0 .529-.042.78-.168zm-1.868-2.913c0 .586-.181 1.171-.599 1.603-.376.39-.906.572-1.449.572-1.004 0-1.394-.586-1.394-1.213 0-.892.836-1.226 1.547-1.268l1.895-.112v.418zM235.183 53v-4.641c0-1.63-.836-2.592-2.439-2.592-.794 0-1.77.432-2.132 1.24l-.098-1.06h-1.031V53h1.185v-3.275c0-.544.013-1.282.25-1.798.307-.641.851-1.087 1.534-1.087 1.114 0 1.547.627 1.547 1.686V53h1.184zm11.365 0V42.937h-1.185v3.833c-.376-.641-1.282-1.003-2.048-1.003-.823 0-1.478.278-1.938.71-.71.683-1.073 1.798-1.073 3.01 0 1.171.349 2.245 1.018 2.928.46.474 1.128.766 1.993.766.794 0 1.7-.39 2.104-1.1l.084.919h1.045zm-1.115-3.526c0 .878-.195 1.728-.78 2.244-.279.25-.628.46-1.143.46-1.575 0-1.993-1.408-1.993-2.704 0-1.296.418-2.704 1.993-2.704.515 0 .864.21 1.143.46.585.516.78 1.366.78 2.244zm9.432 0c0-1.115-.237-2.132-1.004-2.885-.515-.502-1.24-.822-2.132-.822-.892 0-1.617.32-2.133.822-.766.753-1.003 1.77-1.003 2.885 0 1.115.237 2.132 1.003 2.885.516.502 1.241.822 2.133.822.892 0 1.617-.32 2.132-.822.767-.753 1.004-1.77 1.004-2.885zm-1.213 0c0 .822-.153 1.672-.655 2.188-.293.293-.711.502-1.268.502-.558 0-.976-.21-1.268-.502-.502-.516-.655-1.366-.655-2.188 0-.822.153-1.673.655-2.188.292-.293.71-.502 1.268-.502.557 0 .975.21 1.268.502.502.515.655 1.366.655 2.188zm10.203-5.561v-.99a7.328 7.328 0 0 0-1.31-.125c-1.226 0-2.048.836-2.048 1.895v1.255h-1.283v1.003h1.283V53h1.184v-6.049h2.035v-1.003h-2.035v-1.185c0-.571.377-.962 1.004-.962.501 0 .794.07 1.17.112zm6.893 5.56c0-1.114-.237-2.131-1.003-2.884-.516-.502-1.241-.822-2.133-.822-.892 0-1.616.32-2.132.822-.767.753-1.003 1.77-1.003 2.885 0 1.115.236 2.132 1.003 2.885.516.502 1.24.822 2.132.822.892 0 1.617-.32 2.133-.822.766-.753 1.003-1.77 1.003-2.885zm-1.212 0c0 .823-.154 1.673-.655 2.189-.293.293-.711.502-1.269.502-.557 0-.975-.21-1.268-.502-.502-.516-.655-1.366-.655-2.188 0-.822.153-1.673.655-2.188.293-.293.711-.502 1.268-.502.558 0 .976.21 1.269.502.501.515.655 1.366.655 2.188zm7.061-2.368v-1.157a3.767 3.767 0 0 0-.558-.042c-.892 0-1.742.418-2.104 1.282l-.098-1.24h-1.045V53h1.17v-3.136c0-.739.07-1.714.642-2.258.32-.306.78-.557 1.338-.557.209 0 .446.014.655.056zM286.872 53v-7.052h-1.185v3.665c0 .725-.139 1.492-.585 1.952-.307.32-.697.53-1.171.53-1.115 0-1.505-.628-1.505-1.687v-4.46h-1.185v4.627c0 1.63.809 2.592 2.411 2.592.823 0 1.729-.432 2.091-1.24l.098 1.073h1.031zm7.903-7.456c0-1.659-1.352-2.648-2.927-2.648-2.049 0-3.122 1.49-3.122 3.066h1.254c0-1.087.655-1.993 1.868-1.993.502 0 .976.18 1.282.501.265.28.418.642.418 1.06 0 .752-.292 1.184-.85 1.616-1.101.85-1.561 1.338-1.561 2.83v.39h1.143v-.349c0-.85.098-1.254.99-1.909.947-.697 1.505-1.45 1.505-2.564zM292.433 53v-1.533h-1.477V53h1.477z" fill="#1C1E29"/><g style="mix-blend-mode:multiply" filter="url(#filter1_d)"><path fill-rule="evenodd" clip-rule="evenodd" d="M279.195 39h10.065v18.583h-10.065V39z" fill="#F2DFFF"/></g><path fill-rule="evenodd" clip-rule="evenodd" d="M89.493 79.263a6.194 6.194 0 0 1 6.194-6.194h168.021a6.194 6.194 0 0 1 6.195 6.194v68.912a6.194 6.194 0 0 1-6.195 6.194H95.688a6.194 6.194 0 0 1-6.195-6.194V79.263z" fill="#fff" stroke="#E4E6F2" stroke-width=".774" stroke-linecap="square"/><path d="M118.622 91.984c0-.711-.091-1.45-.634-1.965a1.858 1.858 0 0 0-1.296-.502h-1.722v4.94h1.722c.481 0 .947-.16 1.296-.494.536-.516.634-1.268.634-1.98zm-.627 0c0 .53-.035 1.163-.425 1.56-.23.23-.558.342-.878.342h-1.101v-3.798h1.101c.32 0 .648.112.878.342.39.404.425 1.024.425 1.554zm5.614 2.474v-.572h-2.683V92.18h2.356v-.586h-2.356v-1.505h2.683v-.571h-3.303v4.94h3.303zm4.668 0v-.579h-2.376v-4.362h-.62v4.94h2.996zm2.048 0v-4.941h-.634v4.94h.634zm5.323-4.941h-.634l-1.338 4.174-1.366-4.174h-.641l1.666 4.94h.648l1.665-4.94zm4.648 4.94v-.57h-2.683v-1.708h2.356v-.586h-2.356v-1.505h2.683v-.571h-3.303v4.94h3.303zm5.275 0l-.99-2.174a1.43 1.43 0 0 0 .593-.348c.236-.251.376-.544.376-.976 0-.432-.153-.752-.39-1.003-.272-.279-.676-.44-1.255-.44h-1.937v4.941h.62v-2.055h1.366l.934 2.055h.683zm-.662-3.498c0 .627-.418.864-1.004.864h-1.317v-1.735h1.317c.586 0 1.004.244 1.004.871zm5.404-1.442h-.662l-1.29 2.348-1.296-2.348h-.697l1.659 2.934v2.007h.627V92.45l1.659-2.934zm1.882 2.188v-.774h-.766v.774h.766zm0 2.76v-.767h-.766v.767h.766zm6.896-4.377v-.571h-3.199v4.94h.62v-2.174h2.3v-.585h-2.3v-1.61h2.579zm5.045 1.903c0-.788-.097-1.513-.634-2.035a1.892 1.892 0 0 0-1.331-.53c-.495 0-.975.181-1.331.53-.536.522-.634 1.247-.634 2.035 0 .787.098 1.512.634 2.034.356.349.836.53 1.331.53s.976-.181 1.331-.53c.537-.522.634-1.247.634-2.034zm-.641 0c0 .515-.021 1.184-.425 1.602-.237.244-.564.37-.899.37a1.25 1.25 0 0 1-.899-.37c-.404-.418-.425-1.087-.425-1.602 0-.516.021-1.185.425-1.603a1.25 1.25 0 0 1 .899-.37c.335 0 .662.126.899.37.404.418.425 1.087.425 1.603zm5.929 2.466l-.989-2.174a1.42 1.42 0 0 0 .592-.348c.237-.251.376-.544.376-.976 0-.432-.153-.752-.39-1.003-.272-.279-.676-.44-1.254-.44h-1.938v4.941h.621v-2.055h1.365l.934 2.055h.683zm-.662-3.498c0 .627-.418.864-1.003.864h-1.317v-1.735h1.317c.585 0 1.003.244 1.003.871zm7.031 3.498v-4.94h-.871l-1.484 4.02-1.491-4.02h-.892v4.94h.592v-4.202l1.533 4.133h.488l1.533-4.098v4.167h.592zm5.588 0l-1.749-4.94h-.725l-1.742 4.94h.627l.397-1.17h2.146l.405 1.17h.641zm-1.248-1.756h-1.749l.871-2.564.878 2.564zm5.617 1.757v-.579h-2.376v-4.362h-.621v4.94h2.997zm2.048 0v-4.941h-.635v4.94h.635zm4.974-4.363v-.578h-3.567v.578h1.47v4.362h.627v-4.362h1.47zm4.655-.578h-.662l-1.289 2.348-1.296-2.348h-.697l1.659 2.934v2.007h.627V92.45l1.658-2.934z" fill="#8189A9"/><path fill-rule="evenodd" clip-rule="evenodd" d="M102.272 93.2a1.935 1.935 0 1 0 0-3.87 1.935 1.935 0 0 0 0 3.87z" fill="#8F4EBF"/><g clip-path="url(#clip0)"><rect x="151.439" y="110.234" width="35.617" height="24.777" rx="3.12" fill="#11A683"/><path d="M164.431 119.505h-1.24l-1.98 5.561-2.076-5.561h-1.338l2.815 7.052-.446 1.185c-.195.53-.557.711-1.059.711-.46 0-.836-.112-.836-.112v1.032a3.85 3.85 0 0 0 1.073.139c1.059 0 1.575-.599 1.909-1.505l3.178-8.502zm6.96 3.526c0-1.115-.237-2.132-1.003-2.885-.516-.501-1.241-.822-2.133-.822-.892 0-1.616.321-2.132.822-.767.753-1.004 1.77-1.004 2.885 0 1.115.237 2.133 1.004 2.885.516.502 1.24.823 2.132.823.892 0 1.617-.321 2.133-.823.766-.752 1.003-1.77 1.003-2.885zm-1.212 0c0 .823-.154 1.673-.655 2.188-.293.293-.711.502-1.269.502-.557 0-.975-.209-1.268-.502-.502-.515-.655-1.365-.655-2.188 0-.822.153-1.672.655-2.188.293-.293.711-.502 1.268-.502.558 0 .976.209 1.269.502.501.516.655 1.366.655 2.188zm8.775 3.526v-7.052h-1.185v3.666c0 .724-.139 1.491-.585 1.951-.307.32-.697.529-1.171.529-1.115 0-1.505-.627-1.505-1.686v-4.46h-1.185v4.627c0 1.631.808 2.593 2.411 2.593.823 0 1.728-.432 2.091-1.241l.097 1.073h1.032z" fill="#fff"/><path d="M121.088 126.557v-7.052h-1.184v3.666c0 .724-.14 1.491-.586 1.951-.306.32-.697.529-1.171.529-1.115 0-1.505-.627-1.505-1.686v-4.46h-1.184v4.627c0 1.631.808 2.593 2.411 2.593.822 0 1.728-.432 2.09-1.241l.098 1.073h1.031z" fill="#1C1E29"/><path fill-rule="evenodd" clip-rule="evenodd" d="M141.201 124.172h-10.284a.375.375 0 0 1-.278-.109.375.375 0 0 1-.109-.278c0-.113.036-.206.109-.279a.378.378 0 0 1 .278-.108h10.284l-3.581-3.606a.32.32 0 0 1-.121-.266.32.32 0 0 1 .121-.266.32.32 0 0 1 .266-.121.32.32 0 0 1 .266.121l4.259 4.258c.08.065.121.154.121.267a.324.324 0 0 1-.121.266l-4.235 4.258a.38.38 0 0 1-.556 0 .32.32 0 0 1-.121-.266c0-.113.04-.201.121-.266l3.581-3.605z" fill="#9FA6BF"/><path d="M114.273 123.785h8.517" stroke="#EA1537" stroke-width=".774" stroke-linecap="square"/></g><defs><filter id="filter0_b" x="-16" y="-16" width="392" height="210" filterUnits="userSpaceOnUse" color-interpolation-filters="sRGB"><feFlood flood-opacity="0" result="BackgroundImageFix"/><feGaussianBlur in="BackgroundImage" stdDeviation="8"/><feComposite in2="SourceAlpha" operator="in" result="effect1_backgroundBlur"/><feBlend in="SourceGraphic" in2="effect1_backgroundBlur" result="shape"/></filter><filter id="filter1_d" x="279.195" y="39" width="10.066" height="20.132" filterUnits="userSpaceOnUse" color-interpolation-filters="sRGB"><feFlood flood-opacity="0" result="BackgroundImageFix"/><feColorMatrix in="SourceAlpha" values="0 0 0 0 0 0 0 0 0 0 0 0 0 0 0 0 0 0 127 0"/><feOffset dy="1.549"/><feColorMatrix values="0 0 0 0 0.560747 0 0 0 0 0.299609 0 0 0 0 0.749529 0 0 0 1 0"/><feBlend in2="BackgroundImageFix" result="effect1_dropShadow"/><feBlend in="SourceGraphic" in2="effect1_dropShadow" result="shape"/></filter><clipPath id="clip0"><path fill="#fff" d="M114.274 110.234h72.783v24.777h-72.783z"/></clipPath></defs></svg>