<svg width="360" height="178" viewBox="0 0 360 178" fill="none" xmlns="http://www.w3.org/2000/svg"><g filter="url(#filter0_b)"><path fill="#fff" d="M0 0h360v178H0z"/></g><path d="M288.58 13.245c0-1.008-.711-1.656-1.773-1.809-.351-.054-.702-.117-1.062-.162-.477-.063-.954-.324-.954-.9 0-.288.099-.504.261-.693.279-.315.675-.441 1.134-.441.495 0 .882.162 1.125.441.18.207.297.486.315.801h.837a1.917 1.917 0 0 0-.612-1.368c-.423-.405-1.035-.612-1.656-.612-.666 0-1.233.216-1.674.63a1.76 1.76 0 0 0-.558 1.26c0 1.017.747 1.548 1.701 1.692l1.008.153c.756.117 1.071.531 1.071 1.026a.94.94 0 0 1-.324.747c-.288.27-.702.369-1.188.369-.45 0-.936-.117-1.224-.396-.261-.252-.45-.63-.45-1.008h-.837c0 .603.279 1.152.684 1.53.432.396 1.053.612 1.827.612.684 0 1.368-.207 1.809-.639.315-.306.54-.702.54-1.233zM295.001 15l-2.259-6.381h-.936L289.556 15h.81l.513-1.512h2.772l.522 1.512h.828zm-1.611-2.268h-2.259l1.125-3.312 1.134 3.312zM302.594 15V8.619h-1.125l-1.917 5.193-1.926-5.193h-1.152V15h.765V9.573l1.98 5.337h.63l1.98-5.292V15h.765zm6.772-4.455c0-.558-.18-1.017-.486-1.35-.342-.369-.873-.576-1.62-.576h-2.367V15h.801v-2.475h1.575c.702 0 1.224-.189 1.566-.531.342-.342.531-.828.531-1.449zm-.828 0c0 .855-.432 1.251-1.287 1.251h-1.557V9.348h1.548c.792 0 1.296.387 1.296 1.197zM314.906 15v-.747h-3.069V8.619h-.801V15h3.87zm5.791 0v-.738h-3.465v-2.205h3.042v-.756h-3.042V9.357h3.465v-.738h-4.266V15h4.266zm5.252 0V8.619h-.819V15h.819zm6.666-1.755c0-1.008-.711-1.656-1.773-1.809-.351-.054-.702-.117-1.062-.162-.477-.063-.954-.324-.954-.9 0-.288.099-.504.261-.693.279-.315.675-.441 1.134-.441.495 0 .882.162 1.125.441.18.207.297.486.315.801h.837a1.917 1.917 0 0 0-.612-1.368c-.423-.405-1.035-.612-1.656-.612-.666 0-1.233.216-1.674.63a1.76 1.76 0 0 0-.558 1.26c0 1.017.747 1.548 1.701 1.692l1.008.153c.756.117 1.071.531 1.071 1.026a.94.94 0 0 1-.324.747c-.288.27-.702.369-1.188.369-.45 0-.936-.117-1.224-.396-.261-.252-.45-.63-.45-1.008h-.837c0 .603.279 1.152.684 1.53.432.396 1.053.612 1.827.612.684 0 1.368-.207 1.809-.639.315-.306.54-.702.54-1.233zm6.213 0c0-1.008-.711-1.656-1.773-1.809-.351-.054-.702-.117-1.062-.162-.477-.063-.954-.324-.954-.9 0-.288.099-.504.261-.693.279-.315.675-.441 1.134-.441.495 0 .882.162 1.125.441.18.207.297.486.315.801h.837a1.917 1.917 0 0 0-.612-1.368c-.423-.405-1.035-.612-1.656-.612-.666 0-1.233.216-1.674.63a1.76 1.76 0 0 0-.558 1.26c0 1.017.747 1.548 1.701 1.692l1.008.153c.756.117 1.071.531 1.071 1.026a.94.94 0 0 1-.324.747c-.288.27-.702.369-1.188.369-.45 0-.936-.117-1.224-.396-.261-.252-.45-.63-.45-1.008h-.837c0 .603.279 1.152.684 1.53.432.396 1.053.612 1.827.612.684 0 1.368-.207 1.809-.639.315-.306.54-.702.54-1.233zm6.329-.585V8.619h-.801v4.059c0 1.017-.423 1.692-1.53 1.692s-1.53-.675-1.53-1.692V8.619h-.801v4.041c0 1.593.9 2.457 2.331 2.457s2.331-.864 2.331-2.457zm6.384 2.34v-.738h-3.465v-2.205h3.042v-.756h-3.042V9.357h3.465v-.738h-4.266V15h4.266z" fill="#9FA6BF"/><path d="M54.02 35.979h-1.146l-1.597 8.155-2.318-8.014h-1.13l-2.319 8.028-1.597-8.17H42.74L44.747 46h1.329l2.318-8.07 2.29 8.07h1.342l1.993-10.021zm7.33 6.12c.014-.961-.325-1.88-.904-2.516-.523-.565-1.258-.919-2.177-.919-1.244 0-2.191.636-2.7 1.499-.396.664-.551 1.427-.551 2.29 0 1.017.297 1.964.89 2.656.552.65 1.371 1.075 2.375 1.075.678 0 1.314-.198 1.823-.537a2.633 2.633 0 0 0 1.103-1.767h-1.173c-.1.381-.227.58-.424.777-.297.311-.764.467-1.329.467-.551 0-.99-.184-1.315-.51-.438-.437-.692-1.144-.692-1.794h5.06l.014-.721zm-1.23-.311h-3.816c.029-1.046.664-2.106 1.965-2.106.636 0 1.117.254 1.413.65.283.382.438.919.438 1.456zm4.478-4.07v-1.74h-1.343v1.74l.297 2.162h.75l.296-2.163zm7.896 1.13h-1.216l-1.993 5.739-2.063-5.739h-1.258L68.607 46h1.3l2.587-7.152zM79.68 42.1c.015-.961-.325-1.88-.904-2.516-.523-.565-1.258-.919-2.177-.919-1.244 0-2.19.636-2.7 1.499-.395.664-.55 1.427-.55 2.29 0 1.017.296 1.964.89 2.656.551.65 1.37 1.075 2.374 1.075.679 0 1.315-.198 1.824-.537a2.633 2.633 0 0 0 1.102-1.767h-1.173c-.099.381-.226.58-.424.777-.297.311-.763.467-1.329.467-.55 0-.99-.184-1.314-.51-.438-.437-.693-1.144-.693-1.794h5.06l.014-.721zm-1.23-.311h-3.816c.029-1.046.665-2.106 1.965-2.106.636 0 1.117.254 1.414.65.282.382.438.919.438 1.456zm12.838.65c0-1.23-.367-2.36-1.088-3.053-.467-.438-1.13-.72-1.965-.72-.777 0-1.696.367-2.078 1.017v-3.887h-1.201V46h1.06l.085-.933c.41.721 1.329 1.117 2.134 1.117.877 0 1.555-.297 2.021-.778.679-.692 1.032-1.78 1.032-2.968zm-1.23-.014c0 1.315-.424 2.742-2.02 2.742-.524 0-.877-.212-1.16-.466-.593-.523-.791-1.386-.791-2.276 0-.89.198-1.753.791-2.276.283-.254.636-.466 1.16-.466 1.597 0 2.02 1.428 2.02 2.742zm9.07-.325c.015-.961-.324-1.88-.904-2.516-.523-.565-1.258-.919-2.177-.919-1.243 0-2.19.636-2.7 1.499-.395.664-.55 1.427-.55 2.29 0 1.017.297 1.964.89 2.656.551.65 1.371 1.075 2.375 1.075.678 0 1.314-.198 1.823-.537a2.633 2.633 0 0 0 1.102-1.767h-1.173c-.099.381-.226.58-.424.777-.296.311-.763.467-1.328.467-.552 0-.99-.184-1.315-.51-.438-.437-.692-1.144-.692-1.794h5.06l.014-.721zm-1.229-.311h-3.816c.028-1.046.664-2.106 1.965-2.106.636 0 1.116.254 1.413.65.283.382.438.919.438 1.456zm9.015.311c.014-.961-.325-1.88-.905-2.516-.523-.565-1.258-.919-2.177-.919-1.243 0-2.19.636-2.699 1.499-.396.664-.551 1.427-.551 2.29 0 1.017.296 1.964.89 2.656.551.65 1.371 1.075 2.375 1.075.678 0 1.314-.198 1.823-.537a2.634 2.634 0 0 0 1.102-1.767h-1.173c-.099.381-.226.58-.424.777-.297.311-.763.467-1.328.467-.552 0-.99-.184-1.315-.51-.438-.437-.693-1.144-.693-1.794h5.061l.014-.721zm-1.23-.311h-3.816c.028-1.046.664-2.106 1.964-2.106.636 0 1.117.254 1.414.65.283.382.438.919.438 1.456zM114.713 46v-4.707c0-1.653-.848-2.629-2.474-2.629-.805 0-1.795.438-2.162 1.258l-.099-1.074h-1.046V46h1.201v-3.322c0-.55.014-1.3.255-1.823.311-.65.862-1.102 1.554-1.102 1.131 0 1.569.636 1.569 1.71V46h1.202zm11.737-.07v-.891s-.184.042-.311.042c-.24 0-.396-.099-.396-.48v-3.463c0-.41-.07-.778-.212-1.103-.339-.777-1.13-1.37-2.515-1.37-.877 0-1.725.254-2.205.763a2.116 2.116 0 0 0-.622 1.498h1.173c0-.354.127-.636.353-.862.24-.24.65-.424 1.301-.424.579 0 .932.14 1.173.367.325.297.367.735.367 1.088v.523l-2.176.128c-1.951.113-2.545 1.314-2.545 2.233 0 1.102.82 2.205 2.46 2.205 1.003 0 1.894-.453 2.304-1.173h.028c0 .607.396 1.088 1.032 1.088.296 0 .537-.042.791-.17zm-1.894-2.955c0 .594-.184 1.188-.608 1.626-.381.395-.918.58-1.47.58-1.017 0-1.413-.594-1.413-1.23 0-.905.848-1.244 1.569-1.287l1.922-.113v.424zm10.129-.537c0-1.23-.368-2.36-1.089-3.053-.466-.438-1.13-.72-1.964-.72-.778 0-1.696.367-2.078 1.017v-3.887h-1.201V46h1.06l.084-.933c.41.721 1.329 1.117 2.135 1.117.876 0 1.554-.297 2.021-.778.678-.692 1.032-1.78 1.032-2.968zm-1.23-.014c0 1.315-.424 2.742-2.021 2.742-.523 0-.877-.212-1.159-.466-.594-.523-.792-1.386-.792-2.276 0-.89.198-1.753.792-2.276.282-.254.636-.466 1.159-.466 1.597 0 2.021 1.428 2.021 2.742zM139.062 46v-1.018s-.099.014-.494.014c-.495 0-.65-.254-.65-.735v-8.466h-1.202v8.537c0 1.13.452 1.753 1.498 1.753.58 0 .848-.085.848-.085zm7.508-3.901c.014-.961-.326-1.88-.905-2.516-.523-.565-1.258-.919-2.177-.919-1.243 0-2.19.636-2.699 1.499-.396.664-.552 1.427-.552 2.29 0 1.017.297 1.964.891 2.656.551.65 1.371 1.075 2.374 1.075.679 0 1.315-.198 1.824-.537a2.634 2.634 0 0 0 1.102-1.767h-1.173c-.099.381-.226.58-.424.777-.297.311-.763.467-1.329.467-.551 0-.989-.184-1.314-.51-.438-.437-.693-1.144-.693-1.794h5.06l.015-.721zm-1.23-.311h-3.816c.028-1.046.664-2.106 1.964-2.106.636 0 1.117.254 1.414.65.282.382.438.919.438 1.456zm10.208 4.113V44.87s-.72.127-1.229.127c-.665 0-.961-.282-.961-.975V39.88h2.12v-1.032h-2.12v-2.106l-1.202.283v1.823h-1.385v1.032h1.385v4.283c0 .96.424 1.936 1.965 1.936.664 0 1.102-.113 1.427-.198zm7.407-3.477c0-1.13-.241-2.163-1.018-2.926-.523-.509-1.258-.834-2.163-.834-.904 0-1.639.325-2.162.834-.777.764-1.018 1.795-1.018 2.926 0 1.13.241 2.163 1.018 2.926.523.509 1.258.834 2.162.834.905 0 1.64-.325 2.163-.834.777-.763 1.018-1.795 1.018-2.926zm-1.23 0c0 .834-.155 1.696-.664 2.22-.297.296-.721.508-1.287.508-.565 0-.989-.212-1.286-.509-.509-.523-.664-1.385-.664-2.219 0-.834.155-1.696.664-2.219.297-.297.721-.509 1.286-.509.566 0 .99.212 1.287.509.509.523.664 1.385.664 2.219zM174.065 46V35.795h-1.201v3.887c-.382-.65-1.3-1.018-2.078-1.018-.834 0-1.498.283-1.964.721-.721.693-1.089 1.824-1.089 3.053 0 1.187.354 2.276 1.032 2.968.466.48 1.145.778 2.021.778.806 0 1.725-.396 2.135-1.117l.084.933h1.06zm-1.13-3.576c0 .89-.198 1.753-.792 2.276-.283.254-.636.466-1.159.466-1.597 0-2.021-1.427-2.021-2.742 0-1.314.424-2.742 2.021-2.742.523 0 .876.212 1.159.466.594.523.792 1.386.792 2.276zm9.565 0c0-1.13-.241-2.163-1.018-2.926-.523-.509-1.258-.834-2.163-.834-.904 0-1.639.325-2.162.834-.777.764-1.018 1.795-1.018 2.926 0 1.13.241 2.163 1.018 2.926.523.509 1.258.834 2.162.834.905 0 1.64-.325 2.163-.834.777-.763 1.018-1.795 1.018-2.926zm-1.23 0c0 .834-.155 1.696-.664 2.22-.297.296-.721.508-1.287.508-.565 0-.989-.212-1.286-.509-.509-.523-.664-1.385-.664-2.219 0-.834.155-1.696.664-2.219.297-.297.721-.509 1.286-.509.566 0 .99.212 1.287.509.509.523.664 1.385.664 2.219zm11.86 1.498c0-1.074-.806-1.809-1.823-1.978-.764-.128-1.329-.184-1.725-.24-.594-.086-.961-.34-.961-.934 0-.395.269-.777.721-.96.339-.142.551-.142.834-.142.48 0 .876.113 1.173.382.212.183.396.523.41.89h1.201c0-.58-.198-.99-.509-1.371-.48-.608-1.328-.905-2.275-.905-.891 0-1.64.311-2.106.792-.325.325-.594.848-.594 1.4 0 1.087.679 1.752 1.753 1.921l1.611.212c.735.1 1.117.481 1.117 1.018 0 .325-.156.622-.354.778-.367.31-.819.395-1.314.395-.452 0-.961-.085-1.286-.325a1.392 1.392 0 0 1-.58-1.116h-1.201c0 .607.254 1.215.692 1.64.608.593 1.428.805 2.318.805.933 0 1.781-.24 2.332-.806.34-.353.566-.834.566-1.456zm7.879-1.498c0-1.13-.24-2.163-1.017-2.926-.523-.509-1.258-.834-2.163-.834-.904 0-1.639.325-2.162.834-.778.764-1.018 1.795-1.018 2.926 0 1.13.24 2.163 1.018 2.926.523.509 1.258.834 2.162.834.905 0 1.64-.325 2.163-.834.777-.763 1.017-1.795 1.017-2.926zm-1.229 0c0 .834-.156 1.696-.665 2.22-.296.296-.72.508-1.286.508-.565 0-.989-.212-1.286-.509-.509-.523-.664-1.385-.664-2.219 0-.834.155-1.696.664-2.219.297-.297.721-.509 1.286-.509.566 0 .99.212 1.286.509.509.523.665 1.385.665 2.219zM212.976 46v-4.707c0-1.583-.764-2.629-2.389-2.629-.905 0-1.823.467-2.205 1.357-.311-.876-1.074-1.357-2.134-1.357-.806 0-1.626.396-2.007 1.202l-.113-1.018h-1.046V46h1.201v-3.802c0-.594.127-1.357.481-1.81.297-.38.706-.635 1.215-.635 1.145 0 1.442.692 1.442 1.696V46h1.201v-3.802c0-.75.128-1.47.608-1.965a1.45 1.45 0 0 1 1.088-.48c1.131 0 1.456.692 1.456 1.696V46h1.202zm8.281-3.901c.015-.961-.325-1.88-.904-2.516-.523-.565-1.258-.919-2.177-.919-1.244 0-2.191.636-2.7 1.499-.395.664-.551 1.427-.551 2.29 0 1.017.297 1.964.891 2.656.551.65 1.371 1.075 2.374 1.075.679 0 1.315-.198 1.824-.537a2.634 2.634 0 0 0 1.102-1.767h-1.173c-.099.381-.226.58-.424.777-.297.311-.763.467-1.329.467-.551 0-.989-.184-1.314-.51-.438-.437-.693-1.144-.693-1.794h5.06l.014-.721zm-1.229-.311h-3.817c.029-1.046.665-2.106 1.965-2.106.636 0 1.117.254 1.414.65.282.382.438.919.438 1.456zm12.837.636c0-1.187-.353-2.276-1.032-2.968-.466-.48-1.145-.778-2.021-.778-.806 0-1.724.396-2.134 1.117l-.085-.933h-1.06v10.205h1.201V45.18c.382.65 1.301 1.018 2.078 1.018.834 0 1.498-.283 1.965-.721.721-.692 1.088-1.823 1.088-3.053zm-1.23.014c0 1.315-.424 2.742-2.021 2.742-.523 0-.876-.212-1.159-.466-.593-.523-.791-1.385-.791-2.276 0-.89.198-1.753.791-2.275.283-.255.636-.467 1.159-.467 1.597 0 2.021 1.428 2.021 2.742zm7.163-2.417v-1.173a3.81 3.81 0 0 0-.566-.042c-.904 0-1.767.424-2.134 1.3l-.099-1.258h-1.06V46h1.187v-3.18c0-.75.071-1.739.65-2.29a1.967 1.967 0 0 1 1.357-.565c.212 0 .453.014.665.056zm7.126 2.403c0-1.13-.24-2.163-1.017-2.926-.523-.509-1.258-.834-2.163-.834-.905 0-1.64.325-2.162.834-.778.764-1.018 1.795-1.018 2.926 0 1.13.24 2.163 1.018 2.926.522.509 1.257.834 2.162.834s1.64-.325 2.163-.834c.777-.763 1.017-1.795 1.017-2.926zm-1.229 0c0 .834-.156 1.696-.665 2.22-.297.296-.721.508-1.286.508-.565 0-.989-.212-1.286-.509-.509-.523-.664-1.385-.664-2.219 0-.834.155-1.696.664-2.219.297-.297.721-.509 1.286-.509.565 0 .989.212 1.286.509.509.523.665 1.385.665 2.219zm9.408 4.636c0-.594-.227-1.06-.566-1.4-.565-.579-1.512-.748-2.36-.748h-1.414c-.452 0-1.074-.085-1.074-.707 0-.34.339-.551.608-.636.452.155.721.198 1.201.198.947 0 1.668-.34 2.135-.848.395-.438.65-1.032.65-1.71 0-.637-.17-1.103-.467-1.485.071-.395.41-.65.877-.65.099 0 .198 0 .268.014v-.975a2.977 2.977 0 0 0-.353-.028c-.679 0-1.23.367-1.47 1.003-.438-.268-.961-.424-1.64-.424-.947 0-1.625.297-2.12.806-.41.424-.678.961-.678 1.739 0 .678.297 1.385.82 1.851-.538.255-.947.75-.947 1.385 0 .551.353 1.018.833 1.202-.565.282-1.017.834-1.017 1.583 0 .565.212.975.509 1.272.692.692 1.766.834 2.713.834 1.004 0 2.191-.156 2.884-.834.339-.34.608-.82.608-1.442zm-1.993-5.852c0 .905-.651 1.598-1.626 1.598-1.017 0-1.625-.693-1.625-1.597 0-.905.65-1.57 1.625-1.57 1.018 0 1.626.665 1.626 1.57zm.819 5.852c0 .311-.113.551-.296.735-.453.452-1.343.509-1.951.509-.622 0-1.442-.028-1.908-.495a1.009 1.009 0 0 1-.297-.749c0-.551.424-.975.905-1.13h1.653c.863 0 1.894.07 1.894 1.13zm6.559-7.039v-1.173a3.787 3.787 0 0 0-.565-.042c-.905 0-1.767.424-2.134 1.3l-.099-1.258h-1.06V46h1.187v-3.18c0-.75.071-1.739.65-2.29a1.965 1.965 0 0 1 1.357-.565c.212 0 .452.014.664.056zm7.195 2.078c.014-.961-.325-1.88-.905-2.516-.523-.565-1.258-.919-2.176-.919-1.244 0-2.191.636-2.7 1.499-.396.664-.551 1.427-.551 2.29 0 1.017.297 1.964.89 2.656.551.65 1.371 1.075 2.375 1.075.678 0 1.314-.198 1.823-.537a2.632 2.632 0 0 0 1.103-1.767h-1.174c-.099.381-.226.58-.424.777-.296.311-.763.467-1.328.467-.551 0-.99-.184-1.315-.51-.438-.437-.692-1.144-.692-1.794h5.06l.014-.721zm-1.23-.311h-3.816c.028-1.046.664-2.106 1.965-2.106.636 0 1.116.254 1.413.65.283.382.438.919.438 1.456zm8.548 2.134c0-1.074-.805-1.809-1.823-1.978-.763-.128-1.329-.184-1.724-.24-.594-.086-.961-.34-.961-.934 0-.395.268-.777.72-.96.34-.142.552-.142.834-.142.481 0 .877.113 1.173.382.212.183.396.523.41.89h1.202c0-.58-.198-.99-.509-1.371-.481-.608-1.329-.905-2.276-.905-.89 0-1.639.311-2.106.792-.325.325-.593.848-.593 1.4 0 1.087.678 1.752 1.752 1.921l1.612.212c.735.1 1.116.481 1.116 1.018 0 .325-.155.622-.353.778-.368.31-.82.395-1.315.395-.452 0-.961-.085-1.286-.325a1.394 1.394 0 0 1-.579-1.116h-1.202c0 .607.255 1.215.693 1.64.608.593 1.427.805 2.318.805.933 0 1.781-.24 2.332-.806.339-.353.565-.834.565-1.456zm7.371 0c0-1.074-.806-1.809-1.823-1.978-.763-.128-1.329-.184-1.725-.24-.593-.086-.961-.34-.961-.934 0-.395.269-.777.721-.96.339-.142.551-.142.834-.142.481 0 .876.113 1.173.382.212.183.396.523.41.89h1.202c0-.58-.198-.99-.509-1.371-.481-.608-1.329-.905-2.276-.905-.89 0-1.64.311-2.106.792-.325.325-.594.848-.594 1.4 0 1.087.679 1.752 1.753 1.921l1.611.212c.735.1 1.117.481 1.117 1.018 0 .325-.156.622-.353.778-.368.31-.82.395-1.315.395-.452 0-.961-.085-1.286-.325a1.398 1.398 0 0 1-.58-1.116h-1.201c0 .607.254 1.215.693 1.64.607.593 1.427.805 2.318.805.932 0 1.781-.24 2.332-.806.339-.353.565-.834.565-1.456zM292.481 46v-4.707c0-1.653-.862-2.629-2.488-2.629-.805 0-1.667.396-2.092 1.131v-4H286.7V46h1.201v-3.322c0-.55.015-1.3.255-1.823.311-.65.862-1.102 1.555-1.102 1.13 0 1.569.636 1.569 1.71V46h1.201zm8.281-3.901c.015-.961-.325-1.88-.904-2.516-.523-.565-1.258-.919-2.177-.919-1.244 0-2.191.636-2.699 1.499-.396.664-.552 1.427-.552 2.29 0 1.017.297 1.964.891 2.656.551.65 1.371 1.075 2.374 1.075.679 0 1.315-.198 1.824-.537a2.634 2.634 0 0 0 1.102-1.767h-1.173c-.099.381-.226.58-.424.777-.297.311-.763.467-1.329.467-.551 0-.989-.184-1.314-.51-.438-.437-.693-1.144-.693-1.794h5.06l.014-.721zm-1.229-.311h-3.817c.029-1.046.665-2.106 1.965-2.106.636 0 1.117.254 1.414.65.282.382.438.919.438 1.456zm7.106-1.767v-1.173a3.797 3.797 0 0 0-.565-.042c-.905 0-1.767.424-2.134 1.3l-.099-1.258h-1.06V46h1.187v-3.18c0-.75.07-1.739.65-2.29a1.963 1.963 0 0 1 1.357-.565c.212 0 .452.014.664.056zm7.195 2.078c.014-.961-.325-1.88-.905-2.516-.523-.565-1.258-.919-2.176-.919-1.244 0-2.191.636-2.7 1.499-.396.664-.551 1.427-.551 2.29 0 1.017.296 1.964.89 2.656.551.65 1.371 1.075 2.375 1.075.678 0 1.314-.198 1.823-.537a2.627 2.627 0 0 0 1.102-1.767h-1.173c-.099.381-.226.58-.424.777-.297.311-.763.467-1.328.467-.552 0-.99-.184-1.315-.51-.438-.437-.692-1.144-.692-1.794h5.06l.014-.721zm-1.23-.311h-3.816c.028-1.046.664-2.106 1.965-2.106.636 0 1.116.254 1.413.65.283.382.438.919.438 1.456zM317.173 46v-1.682h-1.668V46h1.668z" fill="#1C1E29"/><g style="mix-blend-mode:multiply" filter="url(#filter1_d)"><path fill-rule="evenodd" clip-rule="evenodd" d="M165.865 32h17.275v18.846h-17.275V32z" fill="#F2DEE3"/></g><path fill-rule="evenodd" clip-rule="evenodd" d="M68.496 72.832a6.282 6.282 0 0 1 6.282-6.282h210.443a6.282 6.282 0 0 1 6.282 6.282v69.886a6.283 6.283 0 0 1-6.282 6.282H74.778a6.282 6.282 0 0 1-6.282-6.282V72.832z" fill="#fff" stroke="#E4E6F2" stroke-width=".785" stroke-linecap="square"/><path d="M97.822 86.517h-.65a1.148 1.148 0 0 1-.276.72 1.24 1.24 0 0 1-.911.383c-.34 0-.672-.135-.912-.382-.41-.424-.424-1.103-.424-1.626 0-.522.014-1.2.424-1.625.24-.247.572-.382.912-.382.381 0 .706.149.904.368.163.184.269.424.276.7h.65a1.71 1.71 0 0 0-.495-1.145c-.304-.304-.791-.516-1.335-.516-.502 0-.997.183-1.357.537-.544.53-.63 1.265-.63 2.063 0 .8.086 1.534.63 2.064.36.353.855.537 1.357.537a1.94 1.94 0 0 0 1.342-.537c.29-.297.474-.692.495-1.159zm5.27-.904c0-.8-.099-1.534-.643-2.064a1.92 1.92 0 0 0-1.35-.537 1.92 1.92 0 0 0-1.35.537c-.544.53-.643 1.265-.643 2.063 0 .8.099 1.534.643 2.064.361.353.848.537 1.35.537a1.92 1.92 0 0 0 1.35-.537c.544-.53.643-1.265.643-2.064zm-.65 0c0 .522-.022 1.2-.431 1.625a1.268 1.268 0 0 1-.912.374c-.339 0-.671-.127-.912-.374-.41-.424-.43-1.103-.43-1.626 0-.522.02-1.2.43-1.625.241-.247.573-.374.912-.374.339 0 .671.127.912.374.409.424.431 1.103.431 1.626zm6.012 2.501l-1.003-2.205c.24-.077.452-.198.601-.353.24-.254.381-.551.381-.99 0-.438-.155-.763-.395-1.017-.276-.283-.686-.445-1.273-.445h-1.964v5.01h.629V86.03h1.385l.947 2.085h.692zm-.671-3.547c0 .636-.424.876-1.018.876h-1.335v-1.76h1.335c.594 0 1.018.247 1.018.884zm5.979 3.547l-1.004-2.205c.241-.077.453-.198.601-.353.24-.254.382-.551.382-.99a1.42 1.42 0 0 0-.396-1.017c-.276-.283-.686-.445-1.272-.445h-1.965v5.01h.629V86.03h1.385l.947 2.085h.693zm-.672-3.547c0 .636-.424.876-1.017.876h-1.336v-1.76h1.336c.593 0 1.017.247 1.017.884zm5.675 3.547v-.58h-2.72v-1.73h2.388v-.594h-2.388v-1.527h2.72v-.58h-3.349v5.011h3.349zm5.152-1.597h-.65a1.15 1.15 0 0 1-.275.72 1.24 1.24 0 0 1-.912.383c-.339 0-.671-.135-.912-.382-.41-.424-.424-1.103-.424-1.626 0-.522.014-1.2.424-1.625.241-.247.573-.382.912-.382.382 0 .707.149.904.368.163.184.269.424.276.7h.65a1.712 1.712 0 0 0-.494-1.145c-.304-.304-.792-.516-1.336-.516-.502 0-.997.183-1.357.537-.544.53-.629 1.265-.629 2.063 0 .8.085 1.534.629 2.064.36.353.855.537 1.357.537.544 0 1.039-.233 1.343-.537.289-.297.473-.692.494-1.159zm4.441-2.827v-.586h-3.619v.586h1.491v4.424h.636V83.69h1.492zm5.201 4.424v-5.01h-.608v4.042l-2.459-4.042h-.707v5.01h.608v-4.028l2.459 4.028h.707zm5.394 0v-.58h-2.721v-1.73h2.389v-.594h-2.389v-1.527h2.721v-.58h-3.35v5.011h3.35zm5.088-1.378c0-.791-.558-1.3-1.392-1.42-.276-.043-.551-.092-.834-.127-.375-.05-.749-.255-.749-.707 0-.226.078-.396.205-.544.219-.248.53-.347.89-.347.389 0 .693.128.884.347.141.162.233.381.247.629h.657a1.504 1.504 0 0 0-.48-1.075c-.332-.318-.813-.48-1.301-.48-.523 0-.968.17-1.314.495a1.38 1.38 0 0 0-.438.989c0 .799.586 1.215 1.335 1.329l.792.12c.594.092.841.417.841.805a.74.74 0 0 1-.254.587c-.227.212-.552.29-.933.29-.354 0-.735-.092-.961-.311a1.144 1.144 0 0 1-.354-.792h-.657c0 .474.219.905.537 1.202.339.31.827.48 1.435.48.537 0 1.074-.162 1.42-.502.247-.24.424-.55.424-.968zm5.114 0c0-.791-.558-1.3-1.392-1.42-.276-.043-.551-.092-.834-.127-.374-.05-.749-.255-.749-.707 0-.226.078-.396.205-.544.219-.248.53-.347.89-.347.389 0 .693.128.884.347.141.162.233.381.247.629h.657a1.504 1.504 0 0 0-.48-1.075c-.332-.318-.813-.48-1.3-.48-.523 0-.969.17-1.315.495a1.38 1.38 0 0 0-.438.989c0 .799.586 1.215 1.336 1.329l.791.12c.594.092.841.417.841.805a.74.74 0 0 1-.254.587c-.226.212-.552.29-.933.29-.354 0-.735-.092-.961-.311a1.144 1.144 0 0 1-.354-.792h-.657c0 .474.219.905.537 1.202.339.31.827.48 1.435.48.537 0 1.074-.162 1.42-.502a1.3 1.3 0 0 0 .424-.968zm2.507-1.413v-.785h-.778v.785h.778zm0 2.798v-.777h-.778v.777h.778zm6.993-4.438v-.58h-3.244v5.011h.629V85.91h2.332v-.593h-2.332v-1.633h2.615zm4.571 4.431v-.586h-2.41v-4.424h-.629v5.01h3.039zm4.739-1.837v-3.173h-.629v3.187c0 .799-.332 1.329-1.202 1.329-.869 0-1.201-.53-1.201-1.33v-3.186h-.629v3.173c0 1.25.707 1.93 1.83 1.93 1.124 0 1.831-.68 1.831-1.93zm5.248 1.837v-.58h-2.721v-1.73h2.389v-.594h-2.389v-1.527h2.721v-.58h-3.35v5.011h3.35zm5.469 0v-5.01h-.608v4.042l-2.459-4.042h-.707v5.01h.608v-4.028l2.459 4.028h.707zm5.536-1.597h-.651a1.15 1.15 0 0 1-.275.72 1.24 1.24 0 0 1-.912.383c-.339 0-.671-.135-.912-.382-.409-.424-.424-1.103-.424-1.626 0-.522.015-1.2.424-1.625.241-.247.573-.382.912-.382.382 0 .707.149.905.368.162.184.268.424.275.7h.65a1.707 1.707 0 0 0-.494-1.145c-.304-.304-.792-.516-1.336-.516-.502 0-.996.183-1.357.537-.544.53-.629 1.265-.629 2.063 0 .8.085 1.534.629 2.064.361.353.855.537 1.357.537.544 0 1.039-.233 1.343-.537.29-.297.473-.692.495-1.159zm4.729-3.413h-.671l-1.307 2.381-1.315-2.381h-.707l1.682 2.975v2.035h.637V86.08l1.681-2.975z" fill="#8189A9"/><path fill-rule="evenodd" clip-rule="evenodd" d="M81.453 86.966a1.963 1.963 0 1 0 0-3.926 1.963 1.963 0 0 0 0 3.926z" fill="#EA1537"/><path d="M100.72 121.597v-10.205h-1.202v3.887c-.381-.65-1.3-1.017-2.078-1.017-.834 0-1.498.282-1.964.72-.721.693-1.088 1.824-1.088 3.053 0 1.188.353 2.276 1.031 2.969.467.48 1.145.777 2.021.777.806 0 1.725-.396 2.135-1.117l.084.933h1.061zm-1.131-3.576c0 .891-.198 1.753-.792 2.276-.282.254-.636.466-1.159.466-1.597 0-2.02-1.427-2.02-2.742 0-1.314.423-2.742 2.02-2.742.523 0 .877.212 1.16.467.593.523.79 1.385.79 2.275zm9.565 0c0-1.131-.24-2.162-1.018-2.926-.523-.508-1.258-.833-2.162-.833-.905 0-1.64.325-2.163.833-.777.764-1.018 1.795-1.018 2.926 0 1.131.241 2.163 1.018 2.926.523.509 1.258.834 2.163.834.904 0 1.639-.325 2.162-.834.778-.763 1.018-1.795 1.018-2.926zm-1.23 0c0 .834-.155 1.696-.664 2.219-.297.297-.721.509-1.286.509-.566 0-.99-.212-1.287-.509-.508-.523-.664-1.385-.664-2.219 0-.834.156-1.696.664-2.219.297-.297.721-.509 1.287-.509.565 0 .989.212 1.286.509.509.523.664 1.385.664 2.219z" fill="#1C1E29"/><path d="M93.624 117.983H110.9" stroke="#EA1537" stroke-width=".785" stroke-linecap="square"/><path fill-rule="evenodd" clip-rule="evenodd" d="M128.003 118.376h-10.429a.382.382 0 0 1-.282-.11.383.383 0 0 1-.111-.283c0-.114.037-.208.111-.282a.382.382 0 0 1 .282-.11h10.429l-3.632-3.656a.328.328 0 0 1-.123-.27c0-.115.041-.205.123-.27a.325.325 0 0 1 .27-.123c.114 0 .204.041.27.123l4.319 4.318a.33.33 0 0 1 .122.27.327.327 0 0 1-.122.27l-4.295 4.319a.385.385 0 0 1-.564 0 .325.325 0 0 1-.123-.27c0-.114.041-.204.123-.27l3.632-3.656z" fill="#9FA6BF"/><rect x="136.812" y="104.242" width="50.255" height="25.128" rx="3.141" fill="#11A683"/><path d="M154.302 121.597v-4.707c0-1.583-.763-2.628-2.388-2.628-.905 0-1.824.466-2.205 1.356-.311-.876-1.074-1.356-2.134-1.356-.806 0-1.626.395-2.008 1.201l-.113-1.018h-1.046v7.152h1.202v-3.802c0-.594.127-1.357.48-1.809.297-.382.707-.636 1.216-.636 1.145 0 1.442.692 1.442 1.696v4.551h1.201v-3.802c0-.749.127-1.47.608-1.965.283-.296.636-.48 1.088-.48 1.131 0 1.456.692 1.456 1.696v4.551h1.201zm8.508-.071v-.89s-.183.042-.311.042c-.24 0-.395-.098-.395-.48v-3.463c0-.41-.071-.777-.212-1.102-.34-.778-1.131-1.371-2.516-1.371-.877 0-1.725.254-2.205.763a2.115 2.115 0 0 0-.622 1.498h1.173c0-.353.127-.636.353-.862.241-.24.65-.424 1.301-.424.579 0 .932.141 1.173.367.325.297.367.735.367 1.089v.523l-2.176.127c-1.951.113-2.545 1.314-2.545 2.233 0 1.102.82 2.205 2.46 2.205 1.003 0 1.894-.452 2.304-1.173h.028c0 .608.396 1.088 1.032 1.088.297 0 .537-.042.791-.17zm-1.894-2.954c0 .594-.183 1.188-.608 1.626-.381.396-.918.579-1.469.579-1.018 0-1.414-.593-1.414-1.229 0-.905.848-1.244 1.569-1.287l1.922-.113v.424zm9.959 3.025l-2.813-4.325 2.545-2.827h-1.456l-3.237 3.604v-6.657h-1.201v10.205h1.201v-1.922l1.371-1.527 2.233 3.449h1.357zm7.168-3.901c.015-.961-.325-1.88-.904-2.516-.523-.565-1.258-.918-2.177-.918-1.244 0-2.191.636-2.699 1.498-.396.664-.552 1.427-.552 2.289 0 1.018.297 1.965.891 2.658.551.65 1.371 1.074 2.374 1.074.679 0 1.315-.198 1.824-.537a2.635 2.635 0 0 0 1.102-1.767h-1.173c-.099.382-.226.58-.424.777-.297.311-.763.467-1.329.467-.551 0-.989-.184-1.314-.509-.438-.438-.693-1.145-.693-1.795h5.06l.014-.721zm-1.229-.311h-3.817c.029-1.046.665-2.106 1.965-2.106.636 0 1.117.255 1.414.65.282.382.438.919.438 1.456z" fill="#fff"/><defs><filter id="filter0_b" x="-16" y="-16" width="392" height="210" filterUnits="userSpaceOnUse" color-interpolation-filters="sRGB"><feFlood flood-opacity="0" result="BackgroundImageFix"/><feGaussianBlur in="BackgroundImage" stdDeviation="8"/><feComposite in2="SourceAlpha" operator="in" result="effect1_backgroundBlur"/><feBlend in="SourceGraphic" in2="effect1_backgroundBlur" result="shape"/></filter><filter id="filter1_d" x="165.865" y="32" width="17.275" height="20.416" filterUnits="userSpaceOnUse" color-interpolation-filters="sRGB"><feFlood flood-opacity="0" result="BackgroundImageFix"/><feColorMatrix in="SourceAlpha" values="0 0 0 0 0 0 0 0 0 0 0 0 0 0 0 0 0 0 127 0"/><feOffset dy="1.57"/><feColorMatrix values="0 0 0 0 0.917794 0 0 0 0 0.0831849 0 0 0 0 0.216603 0 0 0 1 0"/><feBlend in2="BackgroundImageFix" result="effect1_dropShadow"/><feBlend in="SourceGraphic" in2="effect1_dropShadow" result="shape"/></filter></defs></svg>