<svg width="353" height="219" viewBox="0 0 353 219" fill="none" xmlns="http://www.w3.org/2000/svg"><g clip-path="url(#clip0)"><path fill="#fff" d="M0 0h353v219H0z"/><path d="M16.171 45.795h-1.085v8.964h1.085v-8.964zm5.03 2.24h-1.505v-.682c0-.665.28-1.015.962-1.015.298 0 .473.07.578.105l.298-.893c-.158-.07-.473-.175-.98-.175-.963 0-1.891.577-1.891 1.733v.928h-1.086v.875h1.086v5.848h1.033V48.91H21.2v-.875zm5.58 9.245c.932 0 1.589-.495 1.978-1.54l2.863-7.687-1.13-.017-1.855 5.357h-.07l-1.856-5.357h-1.12l2.485 6.758-.192.525c-.377 1.024-.84 1.12-1.593.928l-.263.91c.105.053.403.123.753.123zm8.698-2.381c1.82 0 3.046-1.383 3.046-3.467 0-2.1-1.225-3.484-3.046-3.484-1.82 0-3.046 1.383-3.046 3.484 0 2.084 1.225 3.467 3.046 3.467zm0-.928c-1.383 0-2.013-1.19-2.013-2.539 0-1.348.63-2.556 2.013-2.556s2.014 1.208 2.014 2.556c0 1.349-.63 2.54-2.014 2.54zm8.86-1.96c0 1.26-.963 1.837-1.733 1.837-.858 0-1.47-.63-1.47-1.61v-4.202h-1.034v4.272c0 1.716.91 2.538 2.171 2.538 1.016 0 1.681-.542 1.996-1.225h.07v1.138h1.033v-6.723H44.34v3.974zm7.425-1.296c0-1.174.748-1.839 1.768-1.839.972 0 1.558.613 1.558 1.681v4.202h1.033v-4.272c0-1.729-.919-2.539-2.293-2.539-1.06 0-1.664.442-1.979 1.138h-.087v-3.291H50.73v8.964h1.033v-4.044zm8.227 4.201c1.173 0 1.786-.63 1.996-1.067h.053v.91h1.033v-4.43c0-2.136-1.629-2.38-2.486-2.38-1.016 0-2.171.35-2.697 1.575l.98.35c.228-.49.767-1.015 1.752-1.015.95 0 1.418.503 1.418 1.365v.035c0 .5-.508.456-1.733.613-1.248.162-2.61.438-2.61 1.978 0 1.314 1.016 2.066 2.294 2.066zm.158-.927c-.823 0-1.418-.368-1.418-1.086 0-.788.718-1.033 1.523-1.138.438-.053 1.61-.175 1.786-.385v.945c0 .84-.666 1.664-1.891 1.664zm10.066-5.953h-1.12l-1.856 5.357h-.07l-1.856-5.357h-1.12l2.485 6.723h1.05l2.487-6.723zm3.941 6.863c1.366 0 2.364-.683 2.68-1.698l-.999-.28c-.263.7-.87 1.05-1.68 1.05-1.213 0-2.049-.783-2.097-2.223h4.88v-.438c0-2.504-1.488-3.362-2.889-3.362-1.82 0-3.029 1.436-3.029 3.502s1.191 3.449 3.134 3.449zm-2.096-4.044c.07-1.046.81-1.979 1.991-1.979 1.12 0 1.839.84 1.839 1.979h-3.83zm11.897 4.062c1.172 0 1.785-.63 1.995-1.069h.053v.91h1.033V50.33c0-2.136-1.628-2.38-2.486-2.38-1.016 0-2.171.35-2.697 1.575l.981.35c.228-.49.766-1.015 1.75-1.015.95 0 1.419.503 1.419 1.365v.035c0 .5-.508.456-1.733.613-1.248.162-2.61.438-2.61 1.978 0 1.314 1.016 2.066 2.294 2.066zm.157-.928c-.823 0-1.418-.368-1.418-1.086 0-.788.718-1.033 1.523-1.138.438-.053 1.61-.175 1.786-.385v.945c0 .84-.665 1.664-1.89 1.664zm5.842-3.274c0-1.174.727-1.839 1.716-1.839.959 0 1.54.626 1.54 1.681v4.202h1.034v-4.272c0-1.716-.915-2.539-2.276-2.539-1.016 0-1.646.456-1.961 1.138h-.088v-1.05h-.998v6.723h1.033v-4.044zm6.602 6.565c.932 0 1.589-.495 1.978-1.54l2.863-7.687-1.129-.017-1.856 5.357h-.07l-1.856-5.357h-1.12l2.486 6.758-.193.525c-.377 1.024-.84 1.12-1.593.928l-.263.91c.105.053.403.123.753.123zm15.294 0v-9.244h-.998v1.068h-.122c-.228-.35-.631-1.156-1.944-1.156-1.698 0-2.871 1.348-2.871 3.467 0 2.136 1.173 3.484 2.854 3.484 1.295 0 1.733-.805 1.961-1.173h.087v3.554h1.033zm-1.015-5.883c0 1.524-.683 2.574-1.926 2.574-1.296 0-1.961-1.138-1.961-2.574 0-1.418.648-2.52 1.961-2.52 1.26 0 1.926 1.015 1.926 2.52zm7.143.613c0 1.26-.963 1.839-1.733 1.839-.858 0-1.471-.63-1.471-1.611v-4.202h-1.033v4.272c0 1.716.91 2.538 2.171 2.538 1.016 0 1.681-.542 1.996-1.225h.07v1.138h1.033v-6.723h-1.033v3.974zm5.744 2.889c1.365 0 2.363-.683 2.678-1.698l-.998-.28c-.262.7-.871 1.05-1.68 1.05-1.213 0-2.049-.783-2.097-2.223h4.88v-.438c0-2.504-1.488-3.362-2.888-3.362-1.821 0-3.029 1.436-3.029 3.502s1.19 3.449 3.134 3.449zm-2.097-4.044c.07-1.046.81-1.979 1.992-1.979 1.12 0 1.838.84 1.838 1.979h-3.83zm11.214-1.313c-.324-.955-1.05-1.594-2.381-1.594-1.418 0-2.469.806-2.469 1.944 0 .928.552 1.55 1.786 1.838l1.121.263c.678.157.998.481.998.945 0 .578-.613 1.05-1.576 1.05-.845 0-1.375-.363-1.558-1.085l-.981.245c.241 1.143 1.182 1.751 2.556 1.751 1.563 0 2.627-.854 2.627-2.013 0-.937-.587-1.528-1.786-1.821l-.998-.245c-.797-.197-1.156-.464-1.156-.98 0-.579.613-.999 1.436-.999.902 0 1.274.5 1.453.963l.928-.263zm4.601-1.506h-1.435v-1.61h-1.033v1.61h-1.016v.875h1.016v4.202c0 1.173.945 1.733 1.821 1.733.385 0 .63-.07.77-.122l-.21-.928c-.088.017-.228.053-.455.053-.456 0-.893-.14-.893-1.016v-3.922h1.435v-.875zm1.554 6.723h1.033v-6.723h-1.033v6.723zm.525-7.844c.403 0 .736-.315.736-.7 0-.385-.333-.7-.736-.7-.402 0-.735.315-.735.7 0 .385.333.7.735.7zm5.131 7.984c1.821 0 3.047-1.383 3.047-3.467 0-2.1-1.226-3.484-3.047-3.484-1.82 0-3.046 1.383-3.046 3.484 0 2.084 1.226 3.467 3.046 3.467zm0-.928c-1.383 0-2.013-1.19-2.013-2.539 0-1.348.63-2.556 2.013-2.556s2.014 1.208 2.014 2.556c0 1.349-.631 2.54-2.014 2.54zm5.657-3.256c0-1.174.726-1.839 1.715-1.839.959 0 1.541.626 1.541 1.681v4.202h1.033v-4.272c0-1.716-.915-2.539-2.276-2.539-1.016 0-1.646.456-1.961 1.138h-.087v-1.05h-.998v6.723h1.033v-4.044zm10.939-1.174c-.324-.954-1.051-1.593-2.381-1.593-1.418 0-2.469.806-2.469 1.944 0 .928.552 1.55 1.786 1.838l1.12.263c.679.157.998.481.998.945 0 .578-.612 1.05-1.575 1.05-.845 0-1.375-.363-1.559-1.085l-.98.245c.241 1.143 1.182 1.751 2.556 1.751 1.563 0 2.626-.854 2.626-2.013 0-.937-.586-1.528-1.786-1.821l-.997-.245c-.797-.197-1.156-.464-1.156-.98 0-.579.613-.999 1.436-.999.901 0 1.273.5 1.453.963l.928-.263zm7.122 5.376c1.173 0 1.786-.63 1.996-1.069h.053v.91h1.033V50.33c0-2.136-1.629-2.38-2.487-2.38-1.015 0-2.171.35-2.696 1.575l.981.35c.227-.49.766-1.015 1.751-1.015.949 0 1.418.503 1.418 1.365v.035c0 .5-.508.456-1.734.613-1.247.162-2.608.438-2.608 1.978 0 1.314 1.015 2.066 2.293 2.066zm.158-.928c-.823 0-1.418-.368-1.418-1.086 0-.788.717-1.033 1.523-1.138.438-.053 1.611-.175 1.786-.385v.945c0 .84-.666 1.664-1.891 1.664zm4.949.77h.998v-1.033h.123c.227.368.665 1.173 1.96 1.173 1.681 0 2.854-1.348 2.854-3.484 0-2.119-1.173-3.467-2.871-3.467-1.313 0-1.716.806-1.943 1.156h-.088v-3.31h-1.033v8.965zm1.016-3.362c0-1.505.665-2.52 1.925-2.52 1.314 0 1.961 1.102 1.961 2.52 0 1.436-.665 2.574-1.961 2.574-1.243 0-1.925-1.05-1.925-2.574zm9.231 3.502c1.82 0 3.046-1.383 3.046-3.467 0-2.1-1.226-3.484-3.046-3.484-1.821 0-3.047 1.383-3.047 3.484 0 2.084 1.226 3.467 3.047 3.467zm0-.928c-1.384 0-2.014-1.19-2.014-2.539 0-1.348.63-2.556 2.014-2.556 1.383 0 2.013 1.208 2.013 2.556 0 1.349-.63 2.54-2.013 2.54zm8.86-1.96c0 1.26-.963 1.837-1.734 1.837-.857 0-1.47-.63-1.47-1.61v-4.202h-1.033v4.272c0 1.716.91 2.538 2.171 2.538 1.015 0 1.681-.542 1.996-1.225h.07v1.138h1.033v-6.723h-1.033v3.974zm5.849-3.975h-1.436v-1.61h-1.033v1.61h-1.016v.875h1.016v4.202c0 1.173.945 1.733 1.821 1.733.385 0 .63-.07.77-.122l-.21-.928c-.088.017-.228.053-.455.053-.455 0-.893-.14-.893-1.016v-3.922h1.436v-.875zm5.02 6.723h1.033v-4.202c0-.985.718-1.68 1.523-1.68.784 0 1.331.511 1.331 1.277v4.605h1.05v-4.377c0-.867.543-1.506 1.488-1.506.736 0 1.366.39 1.366 1.383v4.5h1.033v-4.5c0-1.58-.849-2.31-2.048-2.31-.963 0-1.668.441-2.014 1.137h-.07c-.333-.718-.919-1.138-1.803-1.138-.876 0-1.523.42-1.804 1.138h-.087v-1.05h-.998v6.723zm11.137 2.521c.933 0 1.589-.495 1.979-1.54l2.862-7.687-1.129-.017-1.856 5.357h-.07l-1.856-5.357h-1.12l2.486 6.758-.193.525c-.376 1.024-.84 1.12-1.593.928l-.263.91c.105.053.403.123.753.123zm9.674-2.521h1.033v-4.255c0-.91.718-1.575 1.699-1.575.275 0 .56.052.63.07v-1.05a9.894 9.894 0 0 0-.543-.018c-.805 0-1.505.455-1.751 1.12h-.07v-1.015h-.998v6.723zm6.565.157c1.173 0 1.786-.63 1.996-1.067h.052v.91h1.033v-4.43c0-2.136-1.628-2.38-2.486-2.38-1.015 0-2.171.35-2.696 1.575l.98.35c.228-.49.766-1.015 1.751-1.015.95 0 1.418.503 1.418 1.365v.035c0 .5-.507.456-1.733.613-1.247.162-2.609.438-2.609 1.978 0 1.314 1.016 2.066 2.294 2.066zm.157-.927c-.822 0-1.418-.368-1.418-1.086 0-.788.718-1.033 1.524-1.138.437-.053 1.61-.175 1.785-.385v.945c0 .84-.665 1.664-1.891 1.664zm7.734-5.953h-1.436v-1.61h-1.033v1.61h-1.016v.875h1.016v4.202c0 1.173.945 1.733 1.821 1.733.385 0 .63-.07.77-.122l-.21-.928c-.088.017-.228.053-.455.053-.455 0-.893-.14-.893-1.016v-3.922h1.436v-.875zm4.3 6.863c1.366 0 2.364-.683 2.679-1.698l-.998-.28c-.263.7-.871 1.05-1.681 1.05-1.212 0-2.048-.783-2.097-2.223h4.881v-.438c0-2.504-1.488-3.362-2.889-3.362-1.821 0-3.029 1.436-3.029 3.502s1.191 3.449 3.134 3.449zm-2.097-4.044c.07-1.046.81-1.979 1.992-1.979 1.12 0 1.838.84 1.838 1.979h-3.83zm12.65 4.044c1.821 0 3.046-1.383 3.046-3.467 0-2.1-1.225-3.484-3.046-3.484-1.821 0-3.047 1.383-3.047 3.484 0 2.084 1.226 3.467 3.047 3.467zm0-.928c-1.383 0-2.014-1.19-2.014-2.539 0-1.348.631-2.556 2.014-2.556 1.383 0 2.013 1.208 2.013 2.556 0 1.349-.63 2.54-2.013 2.54zm4.623.788h1.033v-4.255c0-.91.718-1.575 1.698-1.575.276 0 .561.052.631.07v-1.05a9.928 9.928 0 0 0-.543-.018c-.805 0-1.506.455-1.751 1.12h-.07v-1.015h-.998v6.723zm8.053 0h1.033v-6.723h-1.033v6.723zm.525-7.844c.403 0 .735-.315.735-.7 0-.385-.332-.7-.735-.7-.403 0-.735.315-.735.7 0 .385.332.7.735.7zm5.393 1.12h-1.505v-.682c0-.665.28-1.015.963-1.015.297 0 .472.07.577.105l.298-.893c-.157-.07-.473-.175-.98-.175-.963 0-1.891.577-1.891 1.733v.928h-1.086v.875h1.086v5.848h1.033V48.91h1.505v-.875zm5.58 9.245c.932 0 1.589-.495 1.978-1.54l2.863-7.687-1.129-.017-1.856 5.357h-.07l-1.856-5.357h-1.12l2.486 6.758-.193.525c-.376 1.024-.84 1.12-1.593.928l-.263.91c.105.053.403.123.753.123zm8.698-2.381c1.821 0 3.047-1.383 3.047-3.467 0-2.1-1.226-3.484-3.047-3.484-1.821 0-3.046 1.383-3.046 3.484 0 2.084 1.225 3.467 3.046 3.467zm0-.928c-1.383 0-2.013-1.19-2.013-2.539 0-1.348.63-2.556 2.013-2.556s2.014 1.208 2.014 2.556c0 1.349-.631 2.54-2.014 2.54zm8.86-1.96c0 1.26-.963 1.837-1.733 1.837-.858 0-1.471-.63-1.471-1.61v-4.202h-1.033v4.272c0 1.716.911 2.538 2.171 2.538 1.016 0 1.681-.542 1.996-1.225h.07v1.138h1.033v-6.723h-1.033v3.974zm9.386-3.975h-1.506v-.683c0-.665.28-1.015.963-1.015.298 0 .473.07.578.105l.297-.893c-.157-.07-.472-.175-.98-.175-.963 0-1.891.577-1.891 1.733v.928h-1.085v.875h1.085v5.848h1.033V48.91h1.506v-.875zm1.447 6.723h1.033v-6.723h-1.033v6.723zm.526-7.844c.402 0 .735-.315.735-.7 0-.385-.333-.7-.735-.7-.403 0-.736.315-.736.7 0 .385.333.7.736.7zm3.432 3.8c0-1.174.727-1.839 1.716-1.839.959 0 1.541.626 1.541 1.681v4.202h1.033v-4.272c0-1.716-.915-2.539-2.276-2.539-1.016 0-1.646.456-1.961 1.138h-.088v-1.05h-.998v6.723h1.033v-4.044zm8.716 4.184c1.296 0 1.733-.805 1.961-1.173h.123v1.033h.997v-8.964h-1.032v3.309h-.088c-.228-.35-.63-1.156-1.943-1.156-1.699 0-2.872 1.348-2.872 3.467 0 2.136 1.173 3.484 2.854 3.484zm.14-.928c-1.295 0-1.961-1.138-1.961-2.574 0-1.418.648-2.52 1.961-2.52 1.261 0 1.926 1.015 1.926 2.52 0 1.524-.683 2.574-1.926 2.574zm8.443.788h1.033v-6.723h-1.033v6.723zm.526-7.844c.402 0 .735-.315.735-.7 0-.385-.333-.7-.735-.7-.403 0-.736.315-.736.7 0 .385.333.7.736.7zm5.323 1.12h-1.436v-1.61h-1.032v1.61h-1.016v.876h1.016v4.202c0 1.173.945 1.733 1.82 1.733.386 0 .631-.07.771-.122l-.21-.928c-.088.017-.228.053-.456.053-.455 0-.893-.14-.893-1.016v-3.922h1.436v-.875zM15.978 73.716c0-1.174.727-1.839 1.716-1.839.959 0 1.54.626 1.54 1.681v4.202h1.034v-4.272c0-1.716-.915-2.539-2.276-2.539-1.016 0-1.646.456-1.961 1.138h-.088v-1.05h-.998v6.723h1.033v-4.044zm8.996 4.184c1.366 0 2.364-.683 2.679-1.698l-.998-.28c-.263.7-.871 1.05-1.68 1.05-1.213 0-2.05-.783-2.097-2.224h4.88v-.437c0-2.504-1.488-3.362-2.889-3.362-1.82 0-3.029 1.436-3.029 3.502s1.19 3.449 3.134 3.449zm-2.096-4.044c.07-1.047.81-1.979 1.991-1.979 1.12 0 1.838.84 1.838 1.979h-3.83zm9.183 4.044c1.488 0 2.468-.91 2.643-2.101h-1.033c-.192.735-.805 1.173-1.61 1.173-1.226 0-2.014-1.015-2.014-2.574 0-1.523.805-2.52 2.014-2.52.91 0 1.453.56 1.61 1.172h1.033c-.175-1.26-1.243-2.1-2.66-2.1-1.822 0-3.03 1.435-3.03 3.483 0 2.014 1.156 3.467 3.047 3.467zm6.972 0c1.366 0 2.364-.683 2.679-1.698l-.998-.28c-.263.7-.871 1.05-1.68 1.05-1.213 0-2.05-.783-2.097-2.224h4.88v-.437c0-2.504-1.488-3.362-2.889-3.362-1.82 0-3.029 1.436-3.029 3.502s1.19 3.449 3.134 3.449zm-2.096-4.044c.07-1.047.81-1.979 1.991-1.979 1.12 0 1.838.84 1.838 1.979h-3.83zM48.15 72.54c-.323-.954-1.05-1.593-2.38-1.593-1.419 0-2.47.806-2.47 1.944 0 .928.552 1.55 1.787 1.838l1.12.263c.678.157.998.481.998.945 0 .578-.613 1.05-1.576 1.05-.844 0-1.374-.363-1.558-1.085l-.98.245c.24 1.143 1.181 1.751 2.556 1.751 1.562 0 2.626-.853 2.626-2.013 0-.937-.587-1.528-1.786-1.821l-.998-.245c-.796-.197-1.155-.464-1.155-.98 0-.579.612-.999 1.435-.999.902 0 1.274.5 1.453.963l.928-.263zm6.44 0c-.324-.954-1.05-1.593-2.381-1.593-1.418 0-2.469.806-2.469 1.944 0 .928.552 1.55 1.786 1.838l1.12.263c.68.157.999.481.999.945 0 .578-.613 1.05-1.576 1.05-.845 0-1.374-.363-1.558-1.085l-.98.245c.24 1.143 1.181 1.751 2.556 1.751 1.562 0 2.626-.853 2.626-2.013 0-.937-.587-1.528-1.786-1.821l-.998-.245c-.797-.197-1.156-.464-1.156-.98 0-.579.613-.999 1.436-.999.902 0 1.274.5 1.453.963l.928-.263zm3.656 5.376c1.173 0 1.786-.63 1.996-1.069h.052v.91h1.033V73.33c0-2.136-1.628-2.38-2.486-2.38-1.015 0-2.17.35-2.696 1.575l.98.35c.228-.49.767-1.015 1.751-1.015.95 0 1.418.503 1.418 1.365v.035c0 .5-.507.456-1.733.613-1.247.162-2.609.438-2.609 1.978 0 1.314 1.016 2.067 2.294 2.067zm.158-.928c-.823 0-1.419-.368-1.419-1.086 0-.788.718-1.033 1.524-1.138.437-.052 1.61-.175 1.785-.385v.945c0 .84-.665 1.664-1.89 1.664zm4.809.77h1.033v-4.255c0-.91.718-1.575 1.698-1.575.276 0 .56.052.63.07v-1.05a9.88 9.88 0 0 0-.542-.018c-.806 0-1.506.455-1.751 1.12h-.07v-1.015h-.998v6.723zm5.456 2.521c.932 0 1.589-.495 1.978-1.54l2.863-7.687-1.13-.017-1.855 5.357h-.07l-1.856-5.357h-1.12l2.485 6.758-.192.525c-.377 1.024-.84 1.12-1.594.928l-.262.91c.105.053.403.123.753.123zm12.598-9.244H79.83v-1.61h-1.033v1.61h-1.015v.875h1.015v4.202c0 1.173.946 1.734 1.821 1.734.385 0 .63-.07.77-.123l-.21-.928c-.087.017-.227.052-.455.052-.455 0-.893-.14-.893-1.015V71.91h1.436v-.875zm4.213 6.863c1.82 0 3.046-1.383 3.046-3.467 0-2.1-1.225-3.484-3.046-3.484-1.821 0-3.047 1.383-3.047 3.484 0 2.084 1.226 3.467 3.047 3.467zm0-.928c-1.383 0-2.014-1.19-2.014-2.539 0-1.348.63-2.556 2.014-2.556 1.383 0 2.013 1.208 2.013 2.556 0 1.349-.63 2.54-2.013 2.54zm8.09.788h1.033v-6.723H93.57v6.723zm.525-7.844c.402 0 .735-.315.735-.7 0-.385-.333-.7-.735-.7-.403 0-.736.315-.736.7 0 .385.333.7.736.7zm3.432 3.8c0-1.174.727-1.839 1.716-1.839.959 0 1.541.626 1.541 1.681v4.202h1.033v-4.272c0-1.716-.915-2.539-2.276-2.539-1.016 0-1.646.456-1.961 1.138h-.088v-1.05h-.998v6.723h1.033v-4.044zm8.909 4.184c1.488 0 2.468-.91 2.643-2.101h-1.033c-.192.735-.805 1.173-1.61 1.173-1.226 0-2.014-1.015-2.014-2.574 0-1.523.806-2.52 2.014-2.52.91 0 1.453.56 1.61 1.172h1.033c-.175-1.26-1.243-2.1-2.661-2.1-1.821 0-3.029 1.435-3.029 3.483 0 2.014 1.156 3.467 3.047 3.467zm4.153-.14h1.033v-4.255c0-.91.718-1.575 1.699-1.575.275 0 .56.052.63.07v-1.05a9.894 9.894 0 0 0-.543-.018c-.805 0-1.505.455-1.751 1.12h-.07v-1.015h-.998v6.723zm7.201.14c1.365 0 2.363-.683 2.678-1.698l-.998-.28c-.262.7-.871 1.05-1.68 1.05-1.213 0-2.049-.783-2.097-2.224h4.88v-.437c0-2.504-1.488-3.362-2.888-3.362-1.821 0-3.029 1.436-3.029 3.502s1.19 3.449 3.134 3.449zm-2.097-4.044c.07-1.047.81-1.979 1.992-1.979 1.12 0 1.838.84 1.838 1.979h-3.83zm8.43 4.061c1.173 0 1.786-.63 1.996-1.067h.053v.91h1.033v-4.43c0-2.136-1.629-2.38-2.487-2.38-1.015 0-2.171.35-2.696 1.575l.981.35c.227-.49.766-1.015 1.75-1.015.95 0 1.419.503 1.419 1.365v.035c0 .5-.508.456-1.734.613-1.247.162-2.608.438-2.608 1.978 0 1.314 1.015 2.067 2.293 2.067zm.158-.927c-.823 0-1.418-.368-1.418-1.086 0-.788.717-1.033 1.523-1.138.437-.052 1.61-.175 1.786-.385v.945c0 .84-.666 1.664-1.891 1.664zm9.571-4.448c-.324-.954-1.05-1.593-2.381-1.593-1.418 0-2.469.806-2.469 1.944 0 .928.552 1.55 1.786 1.838l1.121.263c.678.157.998.481.998.945 0 .578-.613 1.05-1.576 1.05-.845 0-1.374-.363-1.558-1.085l-.981.245c.241 1.143 1.182 1.751 2.556 1.751 1.563 0 2.627-.853 2.627-2.013 0-.937-.587-1.528-1.786-1.821l-.998-.245c-.797-.197-1.156-.464-1.156-.98 0-.579.613-.999 1.436-.999.902 0 1.274.5 1.453.963l.928-.263zm4.496 5.358c1.366 0 2.364-.683 2.679-1.698l-.998-.28c-.262.7-.871 1.05-1.681 1.05-1.212 0-2.048-.783-2.096-2.224h4.88v-.437c0-2.504-1.488-3.362-2.889-3.362-1.821 0-3.029 1.436-3.029 3.502s1.191 3.449 3.134 3.449zm-2.096-4.044c.07-1.047.81-1.979 1.991-1.979 1.121 0 1.839.84 1.839 1.979h-3.83zm12.649 4.044c1.821 0 3.047-1.383 3.047-3.467 0-2.1-1.226-3.484-3.047-3.484-1.821 0-3.046 1.383-3.046 3.484 0 2.084 1.225 3.467 3.046 3.467zm0-.928c-1.383 0-2.013-1.19-2.013-2.539 0-1.348.63-2.556 2.013-2.556s2.014 1.208 2.014 2.556c0 1.349-.631 2.54-2.014 2.54zm4.624.788h1.033v-4.255c0-.91.717-1.575 1.698-1.575.276 0 .56.052.63.07v-1.05a9.86 9.86 0 0 0-.543-.018c-.805 0-1.505.455-1.75 1.12h-.071v-1.015h-.997v6.723zm10.591.14c1.295 0 1.733-.805 1.961-1.173h.122v1.033h.998v-8.964h-1.033v3.309h-.087c-.228-.35-.631-1.156-1.944-1.156-1.698 0-2.871 1.348-2.871 3.467 0 2.136 1.173 3.484 2.854 3.484zm.14-.928c-1.296 0-1.961-1.138-1.961-2.574 0-1.418.648-2.52 1.961-2.52 1.26 0 1.926 1.015 1.926 2.52 0 1.524-.683 2.574-1.926 2.574zm7.795.928c1.366 0 2.364-.683 2.679-1.698l-.998-.28c-.263.7-.871 1.05-1.681 1.05-1.212 0-2.048-.783-2.096-2.224h4.88v-.437c0-2.504-1.488-3.362-2.889-3.362-1.821 0-3.029 1.436-3.029 3.502s1.191 3.449 3.134 3.449zm-2.096-4.044c.07-1.047.809-1.979 1.991-1.979 1.121 0 1.839.84 1.839 1.979h-3.83zm9.183 4.044c1.488 0 2.468-.91 2.643-2.101h-1.033c-.192.735-.805 1.173-1.61 1.173-1.226 0-2.014-1.015-2.014-2.574 0-1.523.806-2.52 2.014-2.52.91 0 1.453.56 1.61 1.172h1.033c-.175-1.26-1.243-2.1-2.661-2.1-1.821 0-3.029 1.435-3.029 3.483 0 2.014 1.156 3.467 3.047 3.467zm4.153-.14h1.033v-4.255c0-.91.718-1.575 1.699-1.575.275 0 .56.052.63.07v-1.05a9.894 9.894 0 0 0-.543-.018c-.805 0-1.505.455-1.751 1.12h-.07v-1.015h-.998v6.723zm7.201.14c1.365 0 2.363-.683 2.678-1.698l-.998-.28c-.262.7-.871 1.05-1.68 1.05-1.213 0-2.049-.783-2.097-2.224h4.88v-.437c0-2.504-1.488-3.362-2.888-3.362-1.821 0-3.029 1.436-3.029 3.502s1.19 3.449 3.134 3.449zm-2.097-4.044c.07-1.047.81-1.979 1.992-1.979 1.12 0 1.838.84 1.838 1.979h-3.83zm8.43 4.061c1.173 0 1.786-.63 1.996-1.067h.053v.91h1.033v-4.43c0-2.136-1.629-2.38-2.487-2.38-1.015 0-2.171.35-2.696 1.575l.981.35c.227-.49.766-1.015 1.75-1.015.95 0 1.419.503 1.419 1.365v.035c0 .5-.508.456-1.734.613-1.247.162-2.608.438-2.608 1.978 0 1.314 1.015 2.067 2.293 2.067zm.158-.927c-.823 0-1.418-.368-1.418-1.086 0-.788.717-1.033 1.523-1.138.437-.052 1.61-.175 1.786-.385v.945c0 .84-.666 1.664-1.891 1.664zm9.571-4.448c-.324-.954-1.05-1.593-2.381-1.593-1.418 0-2.469.806-2.469 1.944 0 .928.552 1.55 1.786 1.838l1.121.263c.678.157.998.481.998.945 0 .578-.613 1.05-1.576 1.05-.845 0-1.374-.363-1.558-1.085l-.981.245c.241 1.143 1.182 1.751 2.556 1.751 1.563 0 2.627-.853 2.627-2.013 0-.937-.587-1.528-1.786-1.821l-.998-.245c-.797-.197-1.156-.464-1.156-.98 0-.579.613-.999 1.436-.999.902 0 1.274.5 1.453.963l.928-.263zm4.496 5.358c1.366 0 2.364-.683 2.679-1.698l-.998-.28c-.263.7-.871 1.05-1.681 1.05-1.212 0-2.048-.783-2.096-2.224h4.88v-.437c0-2.504-1.488-3.362-2.889-3.362-1.821 0-3.029 1.436-3.029 3.502s1.191 3.449 3.134 3.449zm-2.096-4.044c.07-1.047.809-1.979 1.991-1.979 1.121 0 1.839.84 1.839 1.979h-3.83zm12.842-2.82h-1.436v-1.61h-1.033v1.61h-1.015v.876h1.015v4.202c0 1.173.946 1.734 1.821 1.734.385 0 .63-.07.77-.123l-.21-.928c-.087.017-.227.052-.455.052-.455 0-.893-.14-.893-1.015V71.91h1.436v-.875zm2.731 2.68c0-1.174.749-1.839 1.768-1.839.972 0 1.559.613 1.559 1.681v4.202h1.033v-4.272c0-1.729-.92-2.539-2.294-2.539-1.059 0-1.663.442-1.978 1.138h-.088v-3.291h-1.033v8.964h1.033v-4.044zm9.068 4.184c1.366 0 2.364-.683 2.679-1.698l-.998-.28c-.263.7-.871 1.05-1.681 1.05-1.212 0-2.048-.783-2.096-2.224h4.88v-.437c0-2.504-1.488-3.362-2.889-3.362-1.821 0-3.029 1.436-3.029 3.502s1.191 3.449 3.134 3.449zm-2.096-4.044c.07-1.047.809-1.979 1.991-1.979 1.121 0 1.838.84 1.838 1.979h-3.829zm14.68-1.314c-.324-.954-1.05-1.593-2.381-1.593-1.418 0-2.469.806-2.469 1.944 0 .928.552 1.55 1.786 1.838l1.121.263c.678.157.998.481.998.945 0 .578-.613 1.05-1.576 1.05-.845 0-1.374-.363-1.558-1.085l-.981.245c.241 1.143 1.182 1.751 2.556 1.751 1.563 0 2.627-.853 2.627-2.013 0-.937-.587-1.528-1.786-1.821l-.998-.245c-.797-.197-1.156-.464-1.156-.98 0-.579.613-.999 1.436-.999.902 0 1.274.5 1.453.963l.928-.263zm4.409 5.358c1.488 0 2.468-.91 2.643-2.101h-1.032c-.193.735-.806 1.173-1.611 1.173-1.226 0-2.014-1.015-2.014-2.574 0-1.523.806-2.52 2.014-2.52.91 0 1.453.56 1.611 1.172h1.032c-.175-1.26-1.243-2.1-2.661-2.1-1.821 0-3.029 1.435-3.029 3.483 0 2.014 1.156 3.467 3.047 3.467zm6.885 0c1.821 0 3.046-1.383 3.046-3.467 0-2.1-1.225-3.484-3.046-3.484-1.821 0-3.047 1.383-3.047 3.484 0 2.084 1.226 3.467 3.047 3.467zm0-.928c-1.383 0-2.014-1.19-2.014-2.539 0-1.348.631-2.556 2.014-2.556 1.383 0 2.013 1.208 2.013 2.556 0 1.349-.63 2.54-2.013 2.54zm4.623 3.31h1.033v-3.555h.088c.227.368.665 1.173 1.96 1.173 1.681 0 2.854-1.348 2.854-3.484 0-2.119-1.173-3.467-2.871-3.467-1.313 0-1.716.806-1.943 1.156h-.123v-1.068h-.998v9.244zm1.015-5.884c0-1.505.666-2.52 1.926-2.52 1.313 0 1.961 1.102 1.961 2.52 0 1.436-.665 2.574-1.961 2.574-1.243 0-1.926-1.05-1.926-2.574zm9.315 3.502c1.365 0 2.363-.683 2.678-1.698l-.998-.28c-.262.7-.871 1.05-1.68 1.05-1.213 0-2.049-.783-2.097-2.224h4.88v-.437c0-2.504-1.488-3.362-2.888-3.362-1.821 0-3.029 1.436-3.029 3.502s1.19 3.449 3.134 3.449zm-2.097-4.044c.07-1.047.81-1.979 1.992-1.979 1.12 0 1.838.84 1.838 1.979h-3.83zm12.912-2.82h-1.505v-.682c0-.665.28-1.015.963-1.015.297 0 .472.07.577.105l.298-.893c-.158-.07-.473-.175-.98-.175-.963 0-1.891.577-1.891 1.733v.928h-1.086v.875h1.086v5.848h1.033V71.91h1.505v-.875zm3.902 6.864c1.821 0 3.047-1.383 3.047-3.467 0-2.1-1.226-3.484-3.047-3.484-1.82 0-3.046 1.383-3.046 3.484 0 2.084 1.226 3.467 3.046 3.467zm0-.928c-1.383 0-2.013-1.19-2.013-2.539 0-1.348.63-2.556 2.013-2.556 1.384 0 2.014 1.208 2.014 2.556 0 1.349-.63 2.54-2.014 2.54zm4.624.788h1.033v-4.255c0-.91.717-1.575 1.698-1.575.276 0 .56.052.63.07v-1.05a9.86 9.86 0 0 0-.543-.018c-.805 0-1.505.455-1.75 1.12h-.07v-1.015h-.998v6.723zm10.976-6.723h-1.436v-1.61h-1.033v1.61h-1.015v.875h1.015v4.202c0 1.173.946 1.734 1.821 1.734.385 0 .631-.07.771-.123l-.211-.928c-.087.017-.227.052-.455.052-.455 0-.893-.14-.893-1.015V71.91h1.436v-.875zm2.731 2.679c0-1.174.749-1.839 1.769-1.839.971 0 1.558.613 1.558 1.681v4.202h1.033v-4.272c0-1.729-.919-2.539-2.294-2.539-1.059 0-1.663.442-1.978 1.138h-.088v-3.291h-1.033v8.964h1.033v-4.044zm6.25 4.044h1.032v-6.723h-1.032v6.723zm.525-7.844c.402 0 .735-.315.735-.7 0-.385-.333-.7-.735-.7-.403 0-.736.315-.736.7 0 .385.333.7.736.7zm7.162 2.626c-.324-.954-1.051-1.593-2.381-1.593-1.419 0-2.469.806-2.469 1.944 0 .928.551 1.55 1.786 1.838l1.12.263c.679.157.998.481.998.945 0 .578-.613 1.05-1.576 1.05-.844 0-1.374-.363-1.558-1.085l-.98.245c.241 1.143 1.182 1.751 2.556 1.751 1.563 0 2.626-.853 2.626-2.013 0-.937-.586-1.528-1.786-1.821l-.998-.245c-.796-.197-1.155-.464-1.155-.98 0-.579.613-.999 1.436-.999.901 0 1.273.5 1.453.963l.928-.263zM14.945 103.28h1.033v-3.554h.088c.228.368.665 1.173 1.96 1.173 1.682 0 2.855-1.348 2.855-3.484 0-2.119-1.173-3.467-2.872-3.467-1.313 0-1.715.806-1.943 1.156h-.123v-1.068h-.998v9.244zm1.016-5.883c0-1.505.665-2.52 1.926-2.52 1.313 0 1.96 1.102 1.96 2.52 0 1.436-.665 2.574-1.96 2.574-1.243 0-1.926-1.05-1.926-2.574zm6.495 3.362h1.033v-4.255c0-.91.718-1.575 1.699-1.575.275 0 .56.052.63.07v-1.05a9.886 9.886 0 0 0-.543-.018c-.805 0-1.505.455-1.75 1.12h-.07v-1.015h-.999v6.723zm7.113.14c1.82 0 3.046-1.383 3.046-3.467 0-2.1-1.225-3.484-3.046-3.484-1.82 0-3.046 1.383-3.046 3.484 0 2.084 1.225 3.467 3.046 3.467zm0-.928c-1.383 0-2.013-1.19-2.013-2.539 0-1.348.63-2.556 2.013-2.556s2.013 1.208 2.013 2.556c0 1.349-.63 2.54-2.013 2.54zm4.623-5.935v7.213c0 .683-.28 1.068-.91 1.068h-.193v.963h.21c1.296 0 1.926-.788 1.926-2.031v-7.213h-1.033zm.508-1.12c.403 0 .735-.316.735-.701 0-.385-.332-.7-.735-.7-.403 0-.735.315-.735.7 0 .385.332.7.735.7zm5.236 7.983c1.365 0 2.364-.683 2.679-1.698l-.998-.28c-.263.7-.871 1.05-1.681 1.05-1.212 0-2.048-.783-2.097-2.224h4.88v-.437c0-2.504-1.488-3.362-2.888-3.362-1.821 0-3.029 1.436-3.029 3.502s1.19 3.449 3.134 3.449zm-2.097-4.044c.07-1.047.81-1.979 1.992-1.979 1.12 0 1.838.84 1.838 1.979h-3.83zm9.183 4.044c1.489 0 2.469-.91 2.644-2.101h-1.033c-.193.735-.805 1.173-1.61 1.173-1.226 0-2.014-1.015-2.014-2.574 0-1.523.805-2.52 2.013-2.52.91 0 1.453.56 1.611 1.172h1.033c-.175-1.26-1.243-2.1-2.661-2.1-1.821 0-3.03 1.435-3.03 3.483 0 2.014 1.156 3.467 3.047 3.467zm7.078-6.863h-1.436v-1.61h-1.033v1.61h-1.015v.875h1.015v4.202c0 1.173.946 1.733 1.821 1.733.385 0 .63-.07.77-.122l-.21-.928c-.087.017-.227.052-.455.052-.455 0-.893-.14-.893-1.015v-3.922H54.1v-.875zm3.094 5.497h-1.12l-.053.491c-.127 1.186-.376 2.368-.49 2.923h.788c.21-.595.657-1.943.805-2.941l.07-.473zm5.38 3.747h1.034v-3.554h.087c.228.368.666 1.173 1.961 1.173 1.681 0 2.854-1.348 2.854-3.484 0-2.119-1.173-3.467-2.871-3.467-1.313 0-1.716.806-1.944 1.156h-.122v-1.068h-.998v9.244zm1.016-5.883c0-1.505.666-2.52 1.926-2.52 1.313 0 1.961 1.102 1.961 2.52 0 1.436-.665 2.574-1.96 2.574-1.244 0-1.927-1.05-1.927-2.574zm7.529-5.602h-1.033v8.964h1.033v-8.964zm4.71 9.104c1.366 0 2.364-.683 2.68-1.698l-.999-.28c-.262.7-.87 1.05-1.68 1.05-1.213 0-2.049-.783-2.097-2.224h4.88v-.437c0-2.504-1.488-3.362-2.889-3.362-1.82 0-3.028 1.436-3.028 3.502s1.19 3.449 3.133 3.449zm-2.096-4.044c.07-1.047.81-1.979 1.991-1.979 1.121 0 1.839.84 1.839 1.979h-3.83zm8.43 4.061c1.173 0 1.786-.63 1.996-1.067h.052v.91h1.033v-4.43c0-2.136-1.628-2.38-2.486-2.38-1.015 0-2.17.35-2.696 1.575l.98.35c.228-.49.766-1.015 1.751-1.015.95 0 1.418.503 1.418 1.365v.035c0 .5-.507.456-1.733.613-1.247.162-2.608.438-2.608 1.978 0 1.314 1.015 2.066 2.293 2.066zm.158-.927c-.823 0-1.419-.368-1.419-1.086 0-.788.718-1.033 1.524-1.138.437-.052 1.61-.175 1.785-.385v.945c0 .84-.665 1.664-1.89 1.664zm9.571-4.448c-.324-.954-1.05-1.593-2.381-1.593-1.418 0-2.469.806-2.469 1.944 0 .928.552 1.55 1.786 1.838l1.12.263c.679.157.999.481.999.945 0 .578-.613 1.05-1.576 1.05-.845 0-1.374-.363-1.558-1.085l-.98.245c.24 1.143 1.181 1.751 2.555 1.751 1.563 0 2.627-.854 2.627-2.013 0-.937-.587-1.528-1.786-1.821l-.998-.245c-.797-.197-1.156-.464-1.156-.98 0-.579.613-.999 1.436-.999.902 0 1.274.5 1.453.963l.928-.263zm4.496 5.358c1.366 0 2.364-.683 2.679-1.698l-.998-.28c-.263.7-.871 1.05-1.68 1.05-1.213 0-2.05-.783-2.097-2.224h4.88v-.437c0-2.504-1.488-3.362-2.889-3.362-1.82 0-3.029 1.436-3.029 3.502s1.19 3.449 3.134 3.449zm-2.096-4.044c.07-1.047.81-1.979 1.991-1.979 1.12 0 1.839.84 1.839 1.979h-3.83zm10.951-5.06h-1.033v8.964h1.033v-8.964zm4.711 9.104c1.365 0 2.363-.683 2.678-1.698l-.998-.28c-.262.7-.871 1.05-1.68 1.05-1.213 0-2.049-.783-2.097-2.224h4.88v-.437c0-2.504-1.488-3.362-2.888-3.362-1.821 0-3.029 1.436-3.029 3.502s1.19 3.449 3.134 3.449zm-2.097-4.044c.07-1.047.81-1.979 1.992-1.979 1.12 0 1.838.84 1.838 1.979h-3.83zm9.376-2.82h-1.436v-1.61h-1.033v1.61h-1.015v.876h1.015v4.202c0 1.173.945 1.733 1.821 1.733.385 0 .63-.07.77-.122l-.21-.928c-.087.017-.228.052-.455.052-.455 0-.893-.14-.893-1.015v-3.922h1.436v-.875zm5.02 6.724h1.033v-4.202c0-.985.718-1.68 1.523-1.68.784 0 1.331.511 1.331 1.277v4.605h1.05v-4.377c0-.867.543-1.506 1.488-1.506.736 0 1.366.39 1.366 1.383v4.5h1.033v-4.5c0-1.58-.849-2.31-2.048-2.31-.963 0-1.668.441-2.014 1.137h-.07c-.332-.718-.919-1.138-1.803-1.138-.876 0-1.523.42-1.803 1.138h-.088v-1.05h-.998v6.723zm13.532.14c1.365 0 2.363-.683 2.678-1.698l-.998-.28c-.262.7-.871 1.05-1.68 1.05-1.213 0-2.049-.783-2.097-2.224h4.88v-.437c0-2.504-1.488-3.362-2.889-3.362-1.82 0-3.028 1.436-3.028 3.502s1.19 3.449 3.134 3.449zm-2.097-4.044c.07-1.047.81-1.979 1.991-1.979 1.121 0 1.839.84 1.839 1.979h-3.83zm9.918 3.904h1.033v-2.517l.722-.67 2.517 3.187h1.313l-3.05-3.852 2.84-2.871h-1.278l-2.941 2.994h-.123v-5.235h-1.033v8.964zm7.738-4.044c0-1.174.726-1.839 1.715-1.839.959 0 1.541.626 1.541 1.681v4.202h1.033v-4.272c0-1.716-.915-2.539-2.276-2.539-1.015 0-1.646.456-1.961 1.138h-.087v-1.05h-.998v6.723h1.033v-4.044zm8.908 4.184c1.821 0 3.046-1.383 3.046-3.467 0-2.1-1.225-3.484-3.046-3.484-1.821 0-3.046 1.383-3.046 3.484 0 2.084 1.225 3.467 3.046 3.467zm0-.928c-1.383 0-2.013-1.19-2.013-2.539 0-1.348.63-2.556 2.013-2.556s2.013 1.208 2.013 2.556c0 1.349-.63 2.54-2.013 2.54zm5.918.788h1.015l1.471-5.165h.105l1.471 5.165h1.015l2.048-6.723h-1.085l-1.453 5.13h-.07l-1.418-5.13h-1.103l-1.436 5.147h-.07l-1.453-5.147h-1.086l2.049 6.723zm8.329.07a.79.79 0 0 0 .788-.788.79.79 0 0 0-.788-.788.79.79 0 0 0-.788.788.79.79 0 0 0 .788.788z" fill="#4D536E"/><g style="mix-blend-mode:multiply"><path fill="#DBEBFF" d="M337 38H14v23.362h323z"/><path fill="#4A6EE0" d="M337 58.51H14V61h323z"/></g><g style="mix-blend-mode:multiply"><path fill="#DBEBFF" d="M320.749 61.362H14.001v22.346h306.748z"/><path fill="#4A6EE0" d="M320.749 80.871H14.001v2.491h306.748z"/></g><g style="mix-blend-mode:multiply"><path fill="#DBEBFF" d="M176.516 83.707H14v23.363h162.516z"/><path fill="#4A6EE0" d="M176.516 104.217H14v2.491h162.516z"/></g><g filter="url(#filter0_d)"><rect x="14" y="113" width="299" height="96" rx="6.959" fill="#fff"/><path d="M39.7 152.403h-.859l-1.176 7.085h.858l1.176-7.085zm3.684 1.772h-1.196l.09-.54c.096-.526.36-.803.899-.803.235 0 .36.056.443.083l.346-.705c-.111-.056-.346-.139-.748-.139-.76 0-1.577.457-1.715 1.37l-.121.734h-.862l-.11.692h.854l-.772 4.621h.817l.764-4.621h1.2l.111-.692zm3.2 7.306c.72 0 1.314-.373 1.771-1.225l3.259-6.081h-.92l-2.173 4.248h-.055l-.761-4.248h-.851l1.065 5.313-.228.416c-.443.806-.789.913-1.356.761l-.333.719c.077.042.305.097.582.097zm7.241-1.882c1.412 0 2.533-1.065 2.796-2.684.273-1.689-.526-2.81-1.993-2.81-1.412 0-2.532 1.066-2.795 2.699-.27 1.674.526 2.795 1.992 2.795zm.014-.733c-1.065 0-1.384-.914-1.218-1.951.177-1.094.872-2.076 1.993-2.076 1.066 0 1.384.927 1.218 1.965-.177 1.097-.872 2.062-1.993 2.062zm7.308-1.55c-.167.996-.997 1.453-1.606 1.453-.678 0-1.08-.498-.955-1.273l.554-3.321h-.816l-.568 3.376c-.221 1.356.388 2.007 1.384 2.007a2.02 2.02 0 0 0 1.743-.969h.056l-.152.899h.816l.886-5.313h-.817l-.525 3.141zm6.034-1.024c.166-.927.844-1.453 1.646-1.453.761 0 1.149.484 1.01 1.328l-.553 3.321h.816l.568-3.376c.221-1.37-.402-2.007-1.48-2.007-.845 0-1.385.346-1.717.9h-.069l.43-2.602h-.817l-1.177 7.085h.817l.526-3.196zm5.963 3.321c.927 0 1.494-.498 1.716-.844h.041l-.124.719h.816l.581-3.501c.277-1.688-.968-1.882-1.646-1.882-.803 0-1.772.277-2.339 1.246l.72.277c.249-.388.775-.803 1.55-.803.747 0 1.024.401.913 1.079v.028c-.07.388-.47.36-1.453.484-1.01.125-2.117.346-2.325 1.564-.166 1.038.54 1.633 1.55 1.633zm.235-.733c-.65 0-1.065-.291-.968-.858.096-.623.705-.817 1.356-.9.346-.041 1.287-.138 1.453-.304l-.125.747c-.11.664-.747 1.315-1.716 1.315zm8.745-4.705h-.92l-2.173 4.234h-.055l-.761-4.234h-.851l1.08 5.313h.83l2.85-5.313zm2.216 5.424c1.083 0 1.954-.54 2.338-1.342l-.747-.222c-.3.554-.813.831-1.467.831-1.024 0-1.57-.457-1.373-1.758h3.864l.055-.346c.336-1.978-.73-2.657-1.84-2.657-1.436 0-2.584 1.135-2.85 2.768-.274 1.633.487 2.726 2.02 2.726zm-1.135-3.196c.163-.755.948-1.564 1.84-1.564.89 0 1.346.664 1.19 1.564h-3.03zm8.9 3.21c.927 0 1.494-.498 1.715-.844h.042l-.124.719h.816l.581-3.501c.277-1.688-.969-1.882-1.647-1.882-.802 0-1.77.277-2.338 1.246l.72.277c.248-.388.774-.803 1.55-.803.746 0 1.023.401.912 1.079v.028c-.069.388-.47.36-1.453.484-1.01.125-2.117.346-2.324 1.564-.166 1.038.54 1.633 1.55 1.633zm.235-.733c-.65 0-1.066-.291-.969-.858.097-.623.706-.817 1.356-.9.346-.041 1.287-.138 1.453-.304l-.124.747c-.11.664-.748 1.315-1.716 1.315zm5.046-2.588c.166-.927.817-1.453 1.606-1.453.76 0 1.134.498.996 1.328l-.554 3.321h.817l.567-3.376c.222-1.356-.401-2.007-1.467-2.007-.802 0-1.37.36-1.702.9h-.069l.139-.83h-.79l-.885 5.313h.817l.525-3.196zm4.367 5.189c.72 0 1.315-.373 1.771-1.225l3.259-6.081h-.92l-2.173 4.248h-.055l-.761-4.248h-.851l1.065 5.313-.228.416c-.443.806-.789.913-1.356.761l-.332.719c.076.042.304.097.581.097zm12.099 0l1.204-7.306h-.789l-.142.844h-.097c-.131-.277-.349-.914-1.387-.914-1.342 0-2.442 1.066-2.719 2.74-.284 1.689.47 2.754 1.799 2.754 1.024 0 1.47-.636 1.705-.927h.07l-.461 2.809h.817zm-.038-4.649c-.204 1.203-.879 2.034-1.861 2.034-1.024 0-1.391-.9-1.211-2.034.194-1.121.84-1.993 1.878-1.993.997 0 1.394.803 1.194 1.993zm5.556.484c-.166.996-.997 1.453-1.605 1.453-.679 0-1.08-.498-.955-1.273l.553-3.321h-.816l-.568 3.376c-.221 1.356.388 2.007 1.384 2.007a2.02 2.02 0 0 0 1.744-.969h.055l-.152.899h.816l.886-5.313h-.816l-.526 3.141zm4.166 2.283c1.083 0 1.954-.54 2.338-1.342l-.747-.222c-.301.554-.813.831-1.467.831-1.024 0-1.57-.457-1.373-1.758h3.864l.056-.346c.335-1.978-.73-2.657-1.841-2.657-1.436 0-2.584 1.135-2.851 2.768-.273 1.633.488 2.726 2.021 2.726zm-1.135-3.196c.163-.755.948-1.564 1.841-1.564.889 0 1.345.664 1.19 1.564h-3.031zm9.066-1.038c-.139-.761-.623-1.26-1.675-1.26-1.121 0-2.062.637-2.214 1.537-.124.733.236 1.217 1.176 1.452l.845.208c.525.125.733.374.664.747-.069.457-.623.831-1.384.831-.664 0-1.038-.291-1.079-.858l-.817.193c.042.9.706 1.384 1.799 1.384 1.232 0 2.187-.678 2.339-1.591.124-.747-.263-1.204-1.176-1.439l-.762-.194c-.595-.152-.844-.374-.774-.775.069-.457.608-.789 1.259-.789.719 0 .941.388 1.024.761l.775-.207zm3.83-1.19h-1.138l.211-1.273h-.816l-.211 1.273h-.799l-.111.692h.795l-.546 3.321c-.152.927.512 1.37 1.204 1.37.304 0 .512-.056.636-.097l-.055-.734c-.069.014-.18.042-.36.042-.36 0-.692-.111-.581-.803l.515-3.099h1.146l.11-.692zm.343 5.313h.816l.886-5.313h-.817l-.885 5.313zm1.543-6.213c.318 0 .581-.249.581-.553 0-.305-.263-.554-.581-.554-.319 0-.582.249-.582.554 0 .304.263.553.582.553zm2.969 6.324c1.411 0 2.532-1.065 2.795-2.684.273-1.689-.526-2.81-1.993-2.81-1.411 0-2.532 1.066-2.795 2.699-.27 1.674.526 2.795 1.993 2.795zm.014-.733c-1.066 0-1.384-.914-1.218-1.951.176-1.094.872-2.076 1.993-2.076 1.065 0 1.383.927 1.217 1.965-.176 1.097-.871 2.062-1.992 2.062zm4.941-2.574c.166-.927.816-1.453 1.605-1.453.761 0 1.135.498.996 1.328l-.553 3.321h.816l.567-3.376c.222-1.356-.401-2.007-1.466-2.007-.803 0-1.37.36-1.702.9h-.07l.139-.83h-.789l-.886 5.313h.817l.526-3.196zm8.812-.927c-.139-.761-.623-1.26-1.675-1.26-1.12 0-2.061.637-2.214 1.537-.124.733.236 1.217 1.177 1.452l.844.208c.526.125.733.374.664.747-.069.457-.623.831-1.384.831-.664 0-1.038-.291-1.079-.858l-.817.193c.042.9.706 1.384 1.799 1.384 1.232 0 2.187-.678 2.339-1.591.124-.747-.263-1.204-1.176-1.439l-.761-.194c-.595-.152-.845-.374-.775-.775.069-.457.609-.789 1.259-.789.719 0 .941.388 1.024.761l.775-.207zm4.924 4.248c.927 0 1.494-.498 1.715-.844h.042l-.125.719h.817l.581-3.501c.277-1.688-.969-1.882-1.647-1.882-.802 0-1.771.277-2.338 1.246l.719.277c.249-.388.775-.803 1.55-.803.747 0 1.024.401.913 1.079v.028c-.069.388-.47.36-1.453.484-1.01.125-2.117.346-2.324 1.564-.166 1.038.539 1.633 1.55 1.633zm.235-.733c-.651 0-1.066-.291-.969-.858.097-.623.706-.817 1.356-.9.346-.041 1.287-.138 1.453-.304l-.124.747c-.111.664-.748 1.315-1.716 1.315zm3.815.608h.789l.138-.816h.097c.138.291.373.927 1.397.927 1.329 0 2.436-1.065 2.713-2.754.276-1.674-.471-2.74-1.813-2.74-1.038 0-1.467.637-1.688.914h-.07l.429-2.616h-.816l-1.176 7.085zm1.245-2.656c.194-1.19.858-1.993 1.854-1.993 1.038 0 1.398.872 1.218 1.993-.194 1.134-.858 2.034-1.882 2.034-.982 0-1.384-.831-1.19-2.034zm6.895 2.767c1.411 0 2.532-1.065 2.795-2.684.274-1.689-.526-2.81-1.992-2.81-1.412 0-2.533 1.066-2.796 2.699-.27 1.674.526 2.795 1.993 2.795zm.014-.733c-1.066 0-1.384-.914-1.218-1.951.176-1.094.872-2.076 1.993-2.076 1.065 0 1.384.927 1.217 1.965-.176 1.097-.871 2.062-1.992 2.062zm7.307-1.55c-.166.996-.996 1.453-1.605 1.453-.678 0-1.079-.498-.955-1.273l.554-3.321h-.817l-.567 3.376c-.222 1.356.387 2.007 1.384 2.007a2.02 2.02 0 0 0 1.743-.969h.056l-.153.899h.817l.885-5.313h-.816l-.526 3.141zm5.149-3.141h-1.138l.211-1.273h-.817l-.211 1.273h-.799l-.111.692h.796l-.547 3.321c-.152.927.512 1.37 1.204 1.37.305 0 .512-.056.637-.097l-.056-.734c-.069.014-.179.042-.359.042-.36 0-.692-.111-.582-.803l.516-3.099h1.145l.111-.692zm3.082 5.313h.817l.553-3.321c.125-.775.789-1.328 1.425-1.328.623 0 .983.401.886 1.01l-.609 3.639h.83l.582-3.459c.11-.692.622-1.19 1.37-1.19.581 0 1.024.304.899 1.093l-.595 3.556h.816l.595-3.556c.208-1.245-.373-1.827-1.314-1.827-.761 0-1.384.346-1.744.9h-.055c-.166-.567-.581-.9-1.273-.9s-1.259.333-1.578.9h-.069l.139-.83h-.789l-.886 5.313zm8.478 1.993c.719 0 1.314-.373 1.771-1.225l3.259-6.081h-.921L197 158.423h-.055l-.762-4.248h-.851l1.066 5.313-.228.416c-.443.806-.789.913-1.356.761l-.333.719c.077.042.305.097.582.097zm7.971-1.993h.817l.553-3.362c.125-.72.775-1.246 1.55-1.246.221 0 .443.042.498.056l.139-.831c-.097-.013-.305-.013-.429-.013-.637 0-1.26.359-1.536.885h-.056l.139-.802h-.789l-.886 5.313zm5.194.125c.927 0 1.494-.498 1.716-.844h.041l-.124.719h.816l.581-3.501c.277-1.688-.968-1.882-1.646-1.882-.803 0-1.772.277-2.339 1.246l.719.277c.25-.388.775-.803 1.55-.803.748 0 1.024.401.914 1.079v.028c-.07.388-.471.36-1.453.484-1.011.125-2.118.346-2.325 1.564-.166 1.038.54 1.633 1.55 1.633zm.235-.733c-.65 0-1.066-.291-.969-.858.097-.623.706-.817 1.356-.9.346-.041 1.287-.138 1.453-.304l-.124.747c-.111.664-.747 1.315-1.716 1.315zm6.901-4.705h-1.138l.211-1.273h-.817l-.211 1.273h-.799l-.111.692h.796l-.547 3.321c-.152.927.512 1.37 1.204 1.37.305 0 .512-.056.637-.097l-.055-.734c-.07.014-.18.042-.36.042-.36 0-.692-.111-.581-.803l.515-3.099h1.145l.111-.692zm2.499 5.424c1.083 0 1.955-.54 2.339-1.342l-.747-.222c-.301.554-.813.831-1.467.831-1.024 0-1.571-.457-1.374-1.758h3.865l.055-.346c.336-1.978-.73-2.657-1.84-2.657-1.436 0-2.585 1.135-2.851 2.768-.273 1.633.488 2.726 2.02 2.726zm-1.134-3.196c.162-.755.947-1.564 1.84-1.564.889 0 1.346.664 1.19 1.564h-3.03zm9.549 3.196c1.412 0 2.533-1.065 2.796-2.684.273-1.689-.526-2.81-1.993-2.81-1.411 0-2.532 1.066-2.795 2.699-.27 1.674.526 2.795 1.992 2.795zm.014-.733c-1.065 0-1.383-.914-1.217-1.951.176-1.094.871-2.076 1.992-2.076 1.066 0 1.384.927 1.218 1.965-.176 1.097-.872 2.062-1.993 2.062zm3.599.622h.817l.553-3.362c.125-.72.775-1.246 1.55-1.246.221 0 .443.042.498.056l.138-.831c-.096-.013-.304-.013-.429-.013-.636 0-1.259.359-1.536.885h-.055l.138-.802h-.788l-.886 5.313zm38.31-5.313h-1.197l.09-.54c.096-.526.359-.803.899-.803.235 0 .36.056.443.083l.346-.705c-.111-.056-.346-.139-.747-.139-.761 0-1.578.457-1.716 1.37l-.121.734h-.862l-.111.692h.855l-.771 4.621h.816l.764-4.621h1.201l.111-.692zm.258 5.313h.817l.885-5.313h-.816l-.886 5.313zm1.543-6.213c.318 0 .581-.249.581-.553 0-.305-.263-.554-.581-.554-.318 0-.581.249-.581.554 0 .304.263.553.581.553zm2.111 3.017c.166-.927.817-1.453 1.606-1.453.761 0 1.134.498.996 1.328l-.554 3.321h.817l.567-3.376c.222-1.356-.401-2.007-1.467-2.007-.802 0-1.37.36-1.702.9h-.069l.138-.83h-.788l-.886 5.313h.816l.526-3.196zm6.363 3.307c1.021 0 1.474-.636 1.702-.927h.097l-.138.816h.789l1.176-7.085h-.817l-.436 2.616h-.069c-.131-.277-.346-.914-1.384-.914-1.342 0-2.445 1.066-2.726 2.74-.276 1.689.474 2.754 1.806 2.754zm.201-.733c-1.024 0-1.374-.9-1.183-2.034.183-1.121.813-1.993 1.847-1.993 1 0 1.422.803 1.225 1.993-.201 1.203-.907 2.034-1.889 2.034zm6.593.622h.816l.886-5.313h-.817l-.885 5.313zm1.543-6.213c.318 0 .581-.249.581-.553 0-.305-.263-.554-.581-.554-.319 0-.581.249-.581.554 0 .304.262.553.581.553zm3.965.9h-1.138l.211-1.273h-.816l-.211 1.273h-.8l-.11.692h.795l-.546 3.321c-.152.927.512 1.37 1.204 1.37.304 0 .512-.056.636-.097l-.055-.734c-.069.014-.18.042-.36.042-.36 0-.692-.111-.581-.803l.515-3.099h1.145l.111-.692zM38.897 170.292c.166-.927.816-1.453 1.605-1.453.761 0 1.135.498.996 1.328l-.553 3.321h.816l.567-3.376c.222-1.356-.4-2.007-1.466-2.007-.803 0-1.37.36-1.702.9h-.07l.139-.83h-.789l-.886 5.313h.817l.526-3.196zm6.57 3.307c1.083 0 1.955-.54 2.339-1.342l-.747-.222c-.301.554-.813.831-1.467.831-1.024 0-1.57-.457-1.374-1.758h3.864l.056-.346c.336-1.978-.73-2.657-1.84-2.657-1.436 0-2.585 1.135-2.851 2.768-.274 1.633.488 2.726 2.02 2.726zm-1.135-3.196c.163-.755.948-1.564 1.84-1.564.89 0 1.347.664 1.191 1.564h-3.03zm6.755 3.196c1.173 0 2.058-.719 2.366-1.66h-.816a1.518 1.518 0 0 1-1.425.927c-.973 0-1.47-.803-1.26-2.034.19-1.204.966-1.993 1.924-1.993.716 0 1.076.443 1.12.927h.817c.024-.996-.709-1.661-1.826-1.661-1.443 0-2.592 1.135-2.851 2.754-.266 1.592.453 2.74 1.951 2.74zm5.511 0c1.083 0 1.955-.54 2.339-1.342l-.747-.222c-.301.554-.813.831-1.467.831-1.024 0-1.571-.457-1.374-1.758h3.865l.055-.346c.335-1.978-.73-2.657-1.84-2.657-1.436 0-2.585 1.135-2.851 2.768-.274 1.633.487 2.726 2.02 2.726zm-1.135-3.196c.163-.755.948-1.564 1.84-1.564.89 0 1.347.664 1.19 1.564h-3.03zm9.066-1.038c-.138-.761-.623-1.26-1.674-1.26-1.121 0-2.062.637-2.214 1.537-.125.733.235 1.217 1.176 1.452l.844.208c.526.125.733.374.664.747-.07.457-.623.831-1.384.831-.664 0-1.038-.291-1.08-.858l-.816.193c.042.9.706 1.384 1.8 1.384 1.231 0 2.186-.678 2.338-1.591.125-.747-.263-1.204-1.176-1.439l-.761-.194c-.595-.152-.844-.374-.775-.775.069-.457.609-.789 1.259-.789.72 0 .941.388 1.024.761l.775-.207zm5.09 0c-.139-.761-.623-1.26-1.675-1.26-1.12 0-2.062.637-2.214 1.537-.124.733.236 1.217 1.176 1.452l.845.208c.525.125.733.374.664.747-.07.457-.623.831-1.384.831-.664 0-1.038-.291-1.08-.858l-.816.193c.042.9.706 1.384 1.8 1.384 1.23 0 2.186-.678 2.338-1.591.124-.747-.263-1.204-1.176-1.439l-.761-.194c-.596-.152-.845-.374-.775-.775.069-.457.608-.789 1.259-.789.72 0 .94.388 1.024.761l.775-.207zm2.184 4.248c.927 0 1.494-.498 1.716-.844h.041l-.125.719h.817l.581-3.501c.277-1.688-.969-1.882-1.647-1.882-.802 0-1.77.277-2.338 1.246l.72.277c.248-.388.774-.803 1.55-.803.746 0 1.023.401.913 1.079v.028c-.07.388-.471.36-1.454.484-1.01.125-2.117.346-2.324 1.564-.166 1.038.54 1.633 1.55 1.633zm.235-.733c-.65 0-1.066-.291-.969-.858.097-.623.706-.817 1.356-.9.346-.041 1.287-.138 1.453-.304l-.124.747c-.111.664-.748 1.315-1.716 1.315zm3.704.608h.816l.554-3.362c.125-.72.775-1.246 1.55-1.246.221 0 .443.042.498.056l.138-.831c-.096-.013-.304-.013-.429-.013-.636 0-1.259.359-1.536.885h-.055l.138-.802h-.788l-.886 5.313zm4.006 1.993c.72 0 1.315-.373 1.771-1.225l3.26-6.081h-.921l-2.172 4.248h-.056l-.761-4.248h-.851l1.066 5.313-.229.416c-.443.806-.789.913-1.356.761l-.332.719c.076.042.304.097.581.097zm11.168-7.306h-1.138l.211-1.273h-.816l-.211 1.273h-.8l-.11.692h.795l-.546 3.321c-.152.927.512 1.37 1.204 1.37.304 0 .512-.056.636-.097l-.055-.734c-.07.014-.18.042-.36.042-.36 0-.692-.111-.581-.803l.516-3.099h1.145l.11-.692zm2.486 5.424c1.411 0 2.532-1.065 2.795-2.684.273-1.689-.526-2.81-1.993-2.81-1.411 0-2.532 1.066-2.795 2.699-.27 1.674.526 2.795 1.993 2.795zm.014-.733c-1.066 0-1.384-.914-1.218-1.951.176-1.094.872-2.076 1.993-2.076 1.065 0 1.383.927 1.217 1.965-.176 1.097-.871 2.062-1.992 2.062zm6.338.622h.817l.885-5.313h-.816l-.886 5.313zm1.543-6.213c.319 0 .582-.249.582-.553 0-.305-.263-.554-.582-.554-.318 0-.581.249-.581.554 0 .304.263.553.581.553zm2.111 3.017c.167-.927.817-1.453 1.606-1.453.761 0 1.134.498.996 1.328l-.553 3.321h.816l.567-3.376c.222-1.356-.401-2.007-1.467-2.007-.802 0-1.369.36-1.702.9h-.069l.139-.83h-.789l-.886 5.313h.817l.525-3.196zm6.502 3.307c1.173 0 2.058-.719 2.366-1.66h-.816a1.52 1.52 0 0 1-1.426.927c-.972 0-1.47-.803-1.259-2.034.19-1.204.965-1.993 1.924-1.993.716 0 1.075.443 1.12.927h.817c.024-.996-.709-1.661-1.827-1.661-1.442 0-2.591 1.135-2.85 2.754-.267 1.592.453 2.74 1.951 2.74zm3.297-.111h.816l.554-3.362c.124-.72.775-1.246 1.549-1.246.222 0 .443.042.499.056l.138-.831c-.097-.013-.304-.013-.429-.013-.637 0-1.259.359-1.536.885h-.055l.138-.802h-.789l-.885 5.313zm5.696.111c1.083 0 1.954-.54 2.338-1.342l-.747-.222c-.301.554-.813.831-1.467.831-1.024 0-1.57-.457-1.373-1.758h3.864l.055-.346c.336-1.978-.73-2.657-1.84-2.657-1.436 0-2.584 1.135-2.851 2.768-.273 1.633.488 2.726 2.021 2.726zm-1.135-3.196c.163-.755.948-1.564 1.84-1.564.89 0 1.346.664 1.191 1.564h-3.031zm6.16 3.21c.927 0 1.494-.498 1.716-.844h.041l-.124.719h.816l.581-3.501c.277-1.688-.969-1.882-1.647-1.882-.802 0-1.771.277-2.338 1.246l.719.277c.249-.388.775-.803 1.55-.803.747 0 1.024.401.914 1.079v.028c-.07.388-.471.36-1.453.484-1.011.125-2.118.346-2.325 1.564-.166 1.038.539 1.633 1.55 1.633zm.235-.733c-.651 0-1.066-.291-.969-.858.097-.623.706-.817 1.356-.9.346-.041 1.287-.138 1.453-.304l-.124.747c-.111.664-.747 1.315-1.716 1.315zm8.16-3.515c-.138-.761-.623-1.26-1.674-1.26-1.121 0-2.062.637-2.215 1.537-.124.733.236 1.217 1.177 1.452l.844.208c.526.125.733.374.664.747-.069.457-.623.831-1.384.831-.664 0-1.038-.291-1.079-.858l-.817.193c.042.9.706 1.384 1.799 1.384 1.232 0 2.187-.678 2.339-1.591.125-.747-.263-1.204-1.176-1.439l-.761-.194c-.595-.152-.844-.374-.775-.775.069-.457.609-.789 1.259-.789.72 0 .941.388 1.024.761l.775-.207zm2.848 4.234c1.083 0 1.955-.54 2.339-1.342l-.748-.222c-.301.554-.813.831-1.466.831-1.024 0-1.571-.457-1.374-1.758h3.864l.056-.346c.335-1.978-.73-2.657-1.841-2.657-1.435 0-2.584 1.135-2.85 2.768-.274 1.633.487 2.726 2.02 2.726zm-1.135-3.196c.163-.755.948-1.564 1.841-1.564.889 0 1.345.664 1.19 1.564h-3.031zm9.55 3.196c1.412 0 2.533-1.065 2.795-2.684.274-1.689-.525-2.81-1.992-2.81-1.412 0-2.533 1.066-2.795 2.699-.27 1.674.525 2.795 1.992 2.795zm.014-.733c-1.065 0-1.384-.914-1.218-1.951.177-1.094.872-2.076 1.993-2.076 1.065 0 1.384.927 1.218 1.965-.177 1.097-.872 2.062-1.993 2.062zm3.599.622h.816l.554-3.362c.124-.72.775-1.246 1.55-1.246.221 0 .442.042.498.056l.138-.831c-.097-.013-.304-.013-.429-.013-.636 0-1.259.359-1.536.885h-.055l.138-.802h-.789l-.885 5.313zm8.39.111c1.02 0 1.474-.636 1.702-.927h.097l-.139.816h.789l1.176-7.085h-.816l-.436 2.616h-.069c-.132-.277-.346-.914-1.384-.914-1.342 0-2.446 1.066-2.726 2.74-.277 1.689.474 2.754 1.806 2.754zm.201-.733c-1.024 0-1.374-.9-1.184-2.034.184-1.121.813-1.993 1.848-1.993 1 0 1.422.803 1.224 1.993-.2 1.203-.906 2.034-1.888 2.034zm6.067.733c1.082 0 1.954-.54 2.338-1.342l-.747-.222c-.301.554-.813.831-1.467.831-1.024 0-1.57-.457-1.373-1.758h3.864l.055-.346c.336-1.978-.73-2.657-1.84-2.657-1.436 0-2.584 1.135-2.851 2.768-.273 1.633.488 2.726 2.021 2.726zm-1.135-3.196c.163-.755.948-1.564 1.84-1.564.889 0 1.346.664 1.19 1.564h-3.03zm6.755 3.196c1.172 0 2.058-.719 2.366-1.66h-.817a1.517 1.517 0 0 1-1.425.927c-.972 0-1.47-.803-1.259-2.034.19-1.204.965-1.993 1.923-1.993.716 0 1.076.443 1.121.927h.817c.024-.996-.71-1.661-1.827-1.661-1.443 0-2.591 1.135-2.851 2.754-.266 1.592.454 2.74 1.952 2.74zm3.297-.111h.816l.553-3.362c.125-.72.775-1.246 1.55-1.246.222 0 .443.042.498.056l.139-.831c-.097-.013-.305-.013-.429-.013-.637 0-1.259.359-1.536.885h-.055l.138-.802h-.789l-.885 5.313zm5.696.111c1.082 0 1.954-.54 2.338-1.342l-.747-.222c-.301.554-.813.831-1.467.831-1.024 0-1.571-.457-1.373-1.758h3.864l.055-.346c.336-1.978-.73-2.657-1.84-2.657-1.436 0-2.584 1.135-2.851 2.768-.273 1.633.488 2.726 2.021 2.726zm-1.135-3.196c.162-.755.948-1.564 1.84-1.564.889 0 1.346.664 1.19 1.564h-3.03zm6.159 3.21c.928 0 1.495-.498 1.716-.844h.042l-.125.719h.817l.581-3.501c.277-1.688-.969-1.882-1.647-1.882-.802 0-1.771.277-2.338 1.246l.719.277c.249-.388.775-.803 1.55-.803.747 0 1.024.401.913 1.079v.028c-.069.388-.47.36-1.453.484-1.01.125-2.117.346-2.324 1.564-.166 1.038.539 1.633 1.549 1.633zm.236-.733c-.651 0-1.066-.291-.969-.858.097-.623.706-.817 1.356-.9.346-.041 1.287-.138 1.453-.304l-.124.747c-.111.664-.748 1.315-1.716 1.315zm8.16-3.515c-.139-.761-.623-1.26-1.675-1.26-1.12 0-2.061.637-2.214 1.537-.124.733.236 1.217 1.177 1.452l.844.208c.526.125.733.374.664.747-.069.457-.623.831-1.384.831-.664 0-1.038-.291-1.079-.858l-.817.193c.042.9.706 1.384 1.799 1.384 1.232 0 2.187-.678 2.339-1.591.124-.747-.263-1.204-1.176-1.439l-.761-.194c-.595-.152-.845-.374-.775-.775.069-.457.608-.789 1.259-.789.719 0 .941.388 1.024.761l.775-.207zm2.848 4.234c1.083 0 1.954-.54 2.338-1.342l-.747-.222c-.301.554-.813.831-1.467.831-1.024 0-1.57-.457-1.373-1.758h3.864l.056-.346c.335-1.978-.73-2.657-1.841-2.657-1.436 0-2.584 1.135-2.851 2.768-.273 1.633.488 2.726 2.021 2.726zm-1.135-3.196c.163-.755.948-1.564 1.841-1.564.889 0 1.345.664 1.19 1.564h-3.031zm75.743-2.228h-1.138l.211-1.273h-.816l-.211 1.273h-.8l-.11.692h.795l-.546 3.321c-.152.927.512 1.37 1.204 1.37.304 0 .512-.056.636-.097l-.055-.734c-.069.014-.18.042-.36.042-.36 0-.692-.111-.581-.803l.515-3.099h1.145l.111-.692zm1.799 2.117c.166-.927.844-1.453 1.647-1.453.761 0 1.148.484 1.01 1.328l-.554 3.321h.817l.567-3.376c.222-1.37-.401-2.007-1.48-2.007-.845 0-1.384.346-1.716.9h-.07l.429-2.602h-.816l-1.176 7.085h.816l.526-3.196zm4.414 3.196h.816l.886-5.313h-.817l-.885 5.313zm1.542-6.213c.319 0 .582-.249.582-.553 0-.305-.263-.554-.582-.554-.318 0-.581.249-.581.554 0 .304.263.553.581.553zm5.225 2.09c-.138-.761-.623-1.26-1.674-1.26-1.121 0-2.062.637-2.214 1.537-.125.733.235 1.217 1.176 1.452l.844.208c.526.125.733.374.664.747-.069.457-.622.831-1.384.831-.664 0-1.037-.291-1.079-.858l-.816.193c.041.9.705 1.384 1.799 1.384 1.231 0 2.186-.678 2.338-1.591.125-.747-.263-1.204-1.176-1.439l-.761-.194c-.595-.152-.844-.374-.775-.775.069-.457.609-.789 1.259-.789.72 0 .941.388 1.024.761l.775-.207zM146.594 187.52h-.885l-.111.387c-.249.941-.609 1.868-.761 2.311h.623c.235-.47.761-1.536 1.01-2.325l.124-.373zm3.755 2.961h.816l.471-2.809h.069c.138.291.373.927 1.397.927 1.329 0 2.436-1.065 2.713-2.754.276-1.674-.471-2.74-1.813-2.74-1.038 0-1.467.637-1.688.914h-.097l.138-.844h-.789l-1.217 7.306zm1.577-4.649c.194-1.19.858-1.993 1.854-1.993 1.038 0 1.398.872 1.218 1.993-.194 1.134-.858 2.034-1.882 2.034-.982 0-1.384-.831-1.19-2.034zm6.684-4.429h-.817l-1.176 7.085h.817l1.176-7.085zm2.533 7.196c1.083 0 1.955-.54 2.339-1.342l-.747-.222c-.301.554-.813.831-1.467.831-1.024 0-1.571-.457-1.374-1.758h3.865l.055-.346c.335-1.978-.73-2.657-1.841-2.657-1.435 0-2.584 1.135-2.85 2.768-.274 1.633.488 2.726 2.02 2.726zm-1.135-3.196c.163-.755.948-1.564 1.841-1.564.889 0 1.346.664 1.19 1.564h-3.031zm6.16 3.21c.927 0 1.495-.498 1.716-.844h.041l-.124.719h.816l.582-3.501c.276-1.688-.969-1.882-1.647-1.882-.803 0-1.771.277-2.339 1.246l.72.277c.249-.388.775-.803 1.55-.803.747 0 1.024.401.913 1.079v.028c-.069.388-.471.36-1.453.484-1.01.125-2.117.346-2.325 1.564-.166 1.038.54 1.633 1.55 1.633zm.235-.733c-.65 0-1.065-.291-.968-.858.097-.623.705-.817 1.356-.9.346-.041 1.287-.138 1.453-.304l-.125.747c-.111.664-.747 1.315-1.716 1.315zm8.16-3.515c-.138-.761-.622-1.26-1.674-1.26-1.121 0-2.062.637-2.214 1.537-.125.733.235 1.217 1.176 1.452l.844.208c.526.125.734.374.664.747-.069.457-.622.831-1.383.831-.665 0-1.038-.291-1.08-.858l-.816.193c.041.9.706 1.384 1.799 1.384 1.231 0 2.186-.678 2.338-1.591.125-.747-.262-1.204-1.176-1.439l-.761-.194c-.595-.152-.844-.374-.775-.775.069-.457.609-.789 1.259-.789.72 0 .941.388 1.024.761l.775-.207zm2.848 4.234c1.083 0 1.955-.54 2.339-1.342l-.747-.222c-.301.554-.813.831-1.467.831-1.024 0-1.571-.457-1.373-1.758h3.864l.055-.346c.336-1.978-.73-2.657-1.84-2.657-1.436 0-2.585 1.135-2.851 2.768-.273 1.633.488 2.726 2.02 2.726zm-1.134-3.196c.162-.755.948-1.564 1.84-1.564.889 0 1.346.664 1.19 1.564h-3.03zm9.342-4h-.816l-1.177 7.085h.817l1.176-7.085zm2.533 7.196c1.083 0 1.955-.54 2.339-1.342l-.747-.222c-.301.554-.813.831-1.467.831-1.024 0-1.571-.457-1.374-1.758h3.865l.055-.346c.336-1.978-.73-2.657-1.84-2.657-1.436 0-2.585 1.135-2.851 2.768-.273 1.633.488 2.726 2.02 2.726zm-1.134-3.196c.162-.755.947-1.564 1.84-1.564.889 0 1.346.664 1.19 1.564h-3.03zm7.806-2.228h-1.138l.211-1.273h-.817l-.211 1.273h-.799l-.111.692h.796l-.546 3.321c-.153.927.512 1.37 1.203 1.37.305 0 .512-.056.637-.097l-.055-.734c-.07.014-.18.042-.36.042-.36 0-.692-.111-.581-.803l.515-3.099h1.145l.111-.692zm3.082 5.313h.817l.553-3.321c.125-.775.789-1.328 1.426-1.328.622 0 .982.401.885 1.01l-.609 3.639h.831l.581-3.459c.111-.692.623-1.19 1.37-1.19.581 0 1.024.304.899 1.093l-.595 3.556h.817l.595-3.556c.207-1.245-.374-1.827-1.315-1.827-.761 0-1.384.346-1.744.9h-.055c-.166-.567-.581-.9-1.273-.9s-1.259.333-1.577.9h-.07l.139-.83h-.789l-.886 5.313zm10.682.111c1.082 0 1.954-.54 2.338-1.342l-.747-.222c-.301.554-.813.831-1.467.831-1.024 0-1.571-.457-1.373-1.758h3.864l.055-.346c.336-1.978-.73-2.657-1.84-2.657-1.436 0-2.584 1.135-2.851 2.768-.273 1.633.488 2.726 2.021 2.726zm-1.135-3.196c.162-.755.948-1.564 1.84-1.564.889 0 1.346.664 1.19 1.564h-3.03zm7.349 3.085h.817l.332-1.992.661-.53 1.567 2.522h1.038l-1.906-3.037 2.625-2.276h-1.01l-2.726 2.366h-.093l.688-4.138h-.816l-1.177 7.085zm6.642-3.196c.166-.927.816-1.453 1.605-1.453.761 0 1.135.498.996 1.328l-.553 3.321h.816l.568-3.376c.221-1.356-.402-2.007-1.467-2.007-.803 0-1.37.36-1.702.9h-.069l.138-.83h-.789l-.885 5.313h.816l.526-3.196zm6.556 3.307c1.412 0 2.533-1.065 2.796-2.684.273-1.689-.526-2.81-1.993-2.81-1.411 0-2.532 1.066-2.795 2.699-.27 1.674.526 2.795 1.992 2.795zm.014-.733c-1.065 0-1.383-.914-1.217-1.951.176-1.094.871-2.076 1.992-2.076 1.066 0 1.384.927 1.218 1.965-.176 1.097-.872 2.062-1.993 2.062zm4.622.622h.803l1.84-4.082h.083l.485 4.082h.802l2.505-5.313h-.858l-1.827 4.054h-.055l-.443-4.054h-.872l-1.812 4.068h-.056l-.47-4.068h-.858l.733 5.313zm6.68.056a.63.63 0 0 0 .623-.623c.007-.332-.284-.609-.623-.609s-.629.263-.622.609a.62.62 0 0 0 .622.623z" fill="#0E101A"/><path d="M236.171 159.488h1.252l.886-5.313h-1.252l-.886 5.313zm1.695-6.074c.398 0 .751-.305.778-.678.032-.378-.266-.682-.664-.682-.401 0-.75.304-.785.682-.031.373.273.678.671.678zm4.426.761h-1.111l.069-.419c.076-.415.284-.647.751-.647.197 0 .349.045.453.076l.408-.968a2.78 2.78 0 0 0-.923-.146c-.92 0-1.754.53-1.92 1.602l-.083.502h-.786l-.162.968h.785l-.726 4.345h1.252l.72-4.345h1.11l.163-.968zm2.97 7.306c.966 0 1.616-.491 2.069-1.356l3.11-5.95h-1.38l-1.899 4.02h-.056l-.553-4.02h-1.28l1.017 5.407-.159.287c-.343.602-.692.664-1.208.505l-.456.976c.159.069.453.131.795.131zm7.328-1.889c1.536 0 2.691-1.079 2.961-2.705.27-1.668-.547-2.782-2.117-2.782-1.54 0-2.695 1.083-2.962 2.716-.269 1.657.544 2.771 2.118 2.771zm.1-1.003c-.841 0-1.117-.751-.962-1.709.159-.989.734-1.782 1.605-1.782.838 0 1.118.761.962 1.716-.159.993-.733 1.775-1.605 1.775zm7.245-1.335c-.131.809-.775 1.21-1.328 1.21-.599 0-.928-.425-.824-1.1l.533-3.189h-1.252l-.568 3.383c-.211 1.277.395 2 1.439 2 .796 0 1.44-.419 1.772-1.014h.055l-.159.944h1.214l.886-5.313h-1.252l-.516 3.079zm-57.547 10.921h-1.052l.211-1.273h-1.252l-.211 1.273h-.751l-.159.968h.751l-.488 2.955c-.173.996.464 1.487 1.415 1.463.353-.01.612-.079.765-.124l-.056-.979c-.076.013-.221.048-.373.048-.315 0-.55-.111-.471-.616l.457-2.747h1.051l.163-.968zm2.047 2.2c.135-.768.685-1.211 1.356-1.211.651 0 .969.419.855 1.135l-.533 3.189h1.256l.567-3.383c.208-1.287-.401-2-1.498-2-.823 0-1.408.367-1.743.973h-.066l.443-2.675h-1.228l-1.177 7.085h1.256l.512-3.113zm6.542 3.217c1.242 0 2.187-.605 2.567-1.529l-1.145-.131c-.249.453-.692.685-1.242.685-.844 0-1.277-.429-1.121-1.426l.004-.017h3.705l.059-.384c.311-1.861-.672-2.685-1.979-2.685-1.519 0-2.702 1.118-2.972 2.758-.28 1.664.526 2.729 2.124 2.729zm-.789-3.262c.142-.637.775-1.249 1.495-1.249.723 0 1.114.526.993 1.249h-2.488zm11.498-.751c-.024-.903-.661-1.474-1.927-1.474-1.259 0-2.214.606-2.377 1.571-.135.792.281 1.318 1.267 1.536l.871.19c.478.108.651.281.602.564-.055.381-.526.685-1.145.682-.546-.004-.868-.246-.896-.727l-1.231.118c-.004.972.733 1.553 2.058 1.553 1.308 0 2.339-.667 2.505-1.65.128-.782-.301-1.259-1.27-1.477l-.879-.194c-.512-.124-.681-.294-.629-.578.055-.38.522-.653 1.065-.653.561 0 .796.307.834.664l1.152-.125zm2.804 4.013c1.335 0 2.307-.789 2.598-1.92h-1.197c-.208.571-.671.9-1.221.9-.782 0-1.18-.654-1-1.74.17-1.073.796-1.716 1.574-1.716.599 0 .906.387.917.899h1.2c.101-1.152-.671-1.91-1.965-1.91-1.56 0-2.736 1.125-2.996 2.747-.269 1.609.499 2.74 2.09 2.74zm5.657 0c1.536 0 2.692-1.079 2.961-2.705.27-1.668-.546-2.782-2.117-2.782-1.539 0-2.695 1.083-2.961 2.716-.27 1.657.543 2.771 2.117 2.771zm.1-1.003c-.84 0-1.117-.751-.961-1.709.159-.989.733-1.782 1.605-1.782.837 0 1.117.761.962 1.716-.16.993-.734 1.775-1.606 1.775zm3.156 2.892h1.253l.47-2.83h.059c.131.388.45.931 1.363.931 1.252 0 2.359-.993 2.647-2.744.294-1.771-.509-2.733-1.737-2.733-.938 0-1.425.564-1.675.948h-.076l.146-.878h-1.232l-1.218 7.306zm2.003-4.649c.166-1.031.723-1.699 1.533-1.699.834 0 1.138.709.979 1.699-.17.996-.72 1.722-1.543 1.722-.799 0-1.135-.691-.969-1.722zm6.757 2.76c1.242 0 2.186-.605 2.567-1.529l-1.145-.131c-.249.453-.692.685-1.242.685-.844 0-1.277-.429-1.121-1.426l.003-.017h3.705l.059-.384c.312-1.861-.671-2.685-1.979-2.685-1.518 0-2.702 1.118-2.971 2.758-.281 1.664.525 2.729 2.124 2.729zm-.789-3.262c.142-.637.775-1.249 1.494-1.249.724 0 1.114.526.993 1.249h-2.487zm10.231-2.155h-1.11l.069-.419c.076-.415.284-.647.751-.647.197 0 .349.045.453.076l.408-.968a2.786 2.786 0 0 0-.923-.146c-.921 0-1.754.53-1.92 1.602l-.083.502h-.786l-.162.968h.785l-.727 4.345h1.253l.719-4.345h1.111l.162-.968zm2.24 5.417c1.536 0 2.692-1.079 2.962-2.705.27-1.668-.547-2.782-2.117-2.782-1.54 0-2.695 1.083-2.962 2.716-.27 1.657.543 2.771 2.117 2.771zm.101-1.003c-.841 0-1.118-.751-.962-1.709.159-.989.733-1.782 1.605-1.782.837 0 1.118.761.962 1.716-.159.993-.733 1.775-1.605 1.775zm3.488.899h1.252l.516-3.123a1.394 1.394 0 0 1 1.387-1.152c.218 0 .47.034.578.072l.193-1.152a2.615 2.615 0 0 0-.446-.034c-.609 0-1.183.346-1.474.961h-.055l.149-.885h-1.215l-.885 5.313zM37.118 190.481h1.253l.47-2.83h.06c.13.388.449.931 1.362.931 1.253 0 2.36-.993 2.647-2.744.294-1.771-.509-2.733-1.737-2.733-.938 0-1.425.564-1.674.948h-.076l.145-.878h-1.232l-1.218 7.306zm2.004-4.649c.166-1.031.723-1.699 1.532-1.699.834 0 1.138.709.98 1.699-.17.996-.72 1.722-1.544 1.722-.799 0-1.135-.691-.968-1.722zm4.417 2.656h1.253l.515-3.123a1.394 1.394 0 0 1 1.387-1.152c.218 0 .47.034.578.072l.194-1.152a2.62 2.62 0 0 0-.446-.034c-.61 0-1.184.346-1.474.961h-.056l.15-.885h-1.215l-.886 5.313zm5.992.104c1.536 0 2.692-1.079 2.962-2.705.27-1.668-.547-2.782-2.118-2.782-1.54 0-2.695 1.083-2.961 2.716-.27 1.657.543 2.771 2.117 2.771zm.1-1.003c-.84 0-1.117-.751-.961-1.709.159-.989.733-1.782 1.605-1.782.837 0 1.117.761.962 1.716-.16.993-.734 1.775-1.605 1.775zm4.374-4.414l-.927 5.601c-.08.446-.308.685-.789.685-.062 0-.117-.004-.18-.007l-.17 1.02c.087.007.167.007.246.007 1.177 0 1.945-.54 2.139-1.688l.934-5.618h-1.253zm.792-.754c.398 0 .751-.305.779-.679.03-.377-.267-.681-.664-.681-.402 0-.751.304-.786.681-.03.374.274.679.671.679zm3.201 6.171c1.242 0 2.187-.605 2.567-1.529l-1.145-.131c-.249.453-.692.685-1.242.685-.844 0-1.276-.429-1.12-1.426l.003-.017h3.705l.059-.384c.311-1.861-.671-2.685-1.98-2.685-1.518 0-2.701 1.118-2.97 2.758-.281 1.664.525 2.729 2.123 2.729zm-.788-3.262c.141-.637.774-1.249 1.494-1.249.723 0 1.114.526.993 1.249H57.21zm6.538 3.262c1.335 0 2.307-.789 2.598-1.92H65.15c-.207.571-.671.9-1.221.9-.782 0-1.18-.654-1-1.74.17-1.073.796-1.716 1.574-1.716.599 0 .907.387.917.899h1.2c.1-1.152-.67-1.91-1.965-1.91-1.56 0-2.736 1.125-2.995 2.747-.27 1.609.498 2.74 2.089 2.74zm6.858-5.417h-1.052l.21-1.273h-1.251l-.211 1.273h-.751l-.16.968h.751l-.487 2.955c-.173.996.463 1.487 1.415 1.463.352-.01.612-.079.764-.124l-.055-.979c-.076.013-.222.048-.374.048-.315 0-.55-.111-.47-.616l.456-2.747h1.052l.163-.968z" fill="#EA1537"/><path d="M72.852 190.481h1.252l.47-2.83h.06c.13.388.449.931 1.362.931 1.253 0 2.36-.993 2.647-2.744.294-1.771-.509-2.733-1.737-2.733-.937 0-1.425.564-1.674.948h-.076l.145-.878h-1.232l-1.217 7.306zm2.003-4.649c.166-1.031.723-1.699 1.532-1.699.834 0 1.138.709.98 1.699-.17.996-.72 1.722-1.544 1.722-.799 0-1.134-.691-.968-1.722zm4.417 2.656h1.253l.515-3.123a1.395 1.395 0 0 1 1.387-1.152c.218 0 .471.034.578.072l.194-1.152a2.62 2.62 0 0 0-.446-.034c-.61 0-1.183.346-1.474.961h-.055l.148-.885h-1.214l-.886 5.313zm5.992.104c1.536 0 2.692-1.079 2.962-2.705.27-1.668-.547-2.782-2.118-2.782-1.539 0-2.695 1.083-2.96 2.716-.27 1.657.542 2.771 2.116 2.771zm.1-1.003c-.84 0-1.117-.751-.961-1.709.159-.989.733-1.782 1.605-1.782.837 0 1.118.761.962 1.716-.16.993-.734 1.775-1.605 1.775zm4.374-4.414l-.927 5.601c-.08.446-.308.685-.789.685-.062 0-.117-.004-.18-.007l-.169 1.02c.087.007.166.007.246.007 1.176 0 1.944-.54 2.138-1.688l.934-5.618h-1.253zm.793-.754c.397 0 .75-.305.778-.679.031-.377-.266-.681-.664-.681-.402 0-.751.304-.786.681-.03.374.274.679.672.679zm3.2 6.171c1.242 0 2.187-.605 2.567-1.529l-1.145-.131c-.249.453-.692.685-1.242.685-.844 0-1.276-.429-1.12-1.426l.003-.017h3.705l.059-.384c.311-1.861-.671-2.685-1.979-2.685-1.519 0-2.702 1.118-2.972 2.758-.28 1.664.526 2.729 2.124 2.729zm-.788-3.262c.142-.637.775-1.249 1.494-1.249.723 0 1.114.526.993 1.249h-2.487zm6.538 3.262c1.335 0 2.308-.789 2.598-1.92h-1.197c-.207.571-.671.9-1.221.9-.782 0-1.18-.654-1-1.74.17-1.073.796-1.716 1.574-1.716.599 0 .907.387.917.899h1.2c.101-1.152-.671-1.91-1.965-1.91-1.56 0-2.736 1.125-2.995 2.747-.27 1.609.498 2.74 2.09 2.74zm6.858-5.417h-1.052l.211-1.273h-1.252l-.211 1.273h-.751l-.159.968h.751l-.488 2.955c-.173.996.463 1.487 1.415 1.463a2.9 2.9 0 0 0 .764-.124l-.055-.979c-.076.013-.222.048-.374.048-.315 0-.55-.111-.47-.616l.456-2.747h1.052l.163-.968zm2.203-1.772h-.955l-.429 2.609h.955l.429-2.609zm4.879 3.176c-.024-.903-.661-1.474-1.927-1.474-1.259 0-2.214.606-2.376 1.571-.135.792.28 1.318 1.266 1.536l.871.19c.478.108.651.281.602.564-.055.381-.525.685-1.145.682-.546-.004-.868-.246-.896-.727l-1.231.118c-.004.972.733 1.553 2.058 1.553 1.308 0 2.339-.667 2.505-1.65.128-.782-.301-1.259-1.27-1.477l-.879-.194c-.512-.124-.681-.294-.629-.578.055-.38.522-.653 1.065-.653.561 0 .796.307.834.664l1.152-.125zm7.763 0c-.024-.903-.661-1.474-1.927-1.474-1.259 0-2.214.606-2.376 1.571-.135.792.28 1.318 1.266 1.536l.872.19c.477.108.65.281.602.564-.056.381-.526.685-1.146.682-.546-.004-.868-.246-.896-.727l-1.231.118c-.004.972.733 1.553 2.058 1.553 1.308 0 2.339-.667 2.505-1.65.128-.782-.301-1.259-1.27-1.477l-.878-.194c-.512-.124-.682-.294-.63-.578.055-.38.522-.653 1.066-.653.56 0 .795.307.833.664l1.152-.125zm2.804 4.013c1.336 0 2.308-.789 2.598-1.92h-1.197c-.207.571-.671.9-1.221.9-.782 0-1.18-.654-1-1.74.17-1.073.796-1.716 1.574-1.716.599 0 .907.387.917.899h1.201c.1-1.152-.672-1.91-1.965-1.91-1.561 0-2.737 1.125-2.996 2.747-.27 1.609.498 2.74 2.089 2.74zm5.657 0c1.536 0 2.692-1.079 2.962-2.705.269-1.668-.547-2.782-2.118-2.782-1.539 0-2.695 1.083-2.961 2.716-.27 1.657.543 2.771 2.117 2.771zm.101-1.003c-.841 0-1.118-.751-.962-1.709.159-.989.733-1.782 1.605-1.782.837 0 1.118.761.962 1.716-.159.993-.734 1.775-1.605 1.775zm3.156 2.892h1.252l.47-2.83h.059c.132.388.45.931 1.363.931 1.253 0 2.36-.993 2.647-2.744.294-1.771-.509-2.733-1.737-2.733-.937 0-1.425.564-1.674.948h-.076l.145-.878h-1.232l-1.217 7.306zm2.003-4.649c.166-1.031.723-1.699 1.532-1.699.834 0 1.138.709.979 1.699-.169.996-.719 1.722-1.543 1.722-.799 0-1.134-.691-.968-1.722zm6.756 2.76c1.242 0 2.186-.605 2.567-1.529l-1.145-.131c-.249.453-.692.685-1.242.685-.844 0-1.277-.429-1.121-1.426l.003-.017h3.706l.058-.384c.312-1.861-.671-2.685-1.978-2.685-1.519 0-2.702 1.118-2.972 2.758-.28 1.664.526 2.729 2.124 2.729zm-.789-3.262c.142-.637.775-1.249 1.495-1.249.723 0 1.114.526.993 1.249h-2.488z" fill="#11A683"/><path d="M235.97 156.299h25.933v.84H235.97v-.84zm-37.322 14h62.456v.84h-62.456v-.84zm-161.398 15h33.317v.84H37.25v-.84z" fill="#EA1537"/><path d="M42.878 127.321c-.226-1.247-1.223-1.983-2.446-1.983-1.555 0-2.683 1.199-2.683 3.123 0 1.923 1.128 3.122 2.683 3.122 1.223 0 2.22-.736 2.446-1.983h-.736c-.178.843-.903 1.294-1.71 1.294-1.104 0-1.971-.854-1.971-2.433 0-1.58.867-2.434 1.97-2.434.808 0 1.533.451 1.71 1.294h.737zM44.4 131.5h3.562v-.653h-2.825v-5.426h-.736v6.079zm5.67 0l.61-1.722h2.459l.611 1.722h.772l-2.232-6.079h-.76l-2.232 6.079h.771zm.842-2.375l.974-2.742h.047l.974 2.742h-1.995zm4.89 2.375h.737v-2.375h1.33c.053 0 .104 0 .154-.003l1.282 2.378h.855l-1.374-2.511c.775-.264 1.137-.896 1.137-1.704 0-1.074-.641-1.864-2.066-1.864h-2.054v6.079zm.737-3.039v-2.387h1.294c.986 0 1.365.481 1.365 1.211 0 .73-.38 1.176-1.353 1.176H56.54zm5.68-3.04h-.735v6.079h.736v-6.079zm1.479.653h1.911v5.426h.736v-5.426h1.912v-.653h-4.56v.653zm5.507-.653l2.196 3.574v2.505h.736v-2.505l2.197-3.574h-.843l-1.686 2.838h-.071l-1.686-2.838h-.843zm6.308 5.301c.294 0 .535-.24.535-.534a.535.535 0 0 0-1.069 0c0 .294.24.534.534.534zm0-3.075c.294 0 .535-.24.535-.534a.535.535 0 0 0-1.069 0c0 .294.24.534.534.534zm4.906 3.853h.736v-2.375h1.33c.053 0 .104 0 .154-.003l1.283 2.378h.854l-1.374-2.511c.775-.264 1.137-.896 1.137-1.704 0-1.074-.641-1.864-2.066-1.864H80.42v6.079zm.736-3.039v-2.387h1.294c.986 0 1.366.481 1.366 1.211 0 .73-.38 1.176-1.354 1.176h-1.306zM86.1 131.5h3.716v-.653h-2.98v-2.066h2.743v-.653h-2.743v-2.054h2.933v-.653H86.1v6.079zm5.33 0h.736v-2.22h1.33c1.415 0 2.054-.861 2.054-1.935 0-1.075-.639-1.924-2.066-1.924H91.43v6.079zm.736-2.873v-2.553h1.294c.988 0 1.365.54 1.365 1.271 0 .73-.377 1.282-1.353 1.282h-1.306zm4.904 2.873h.736v-2.719h3.241v2.719h.736v-6.079h-.736v2.707h-3.241v-2.707h-.736v6.079zm6.521 0h.736v-2.375h1.33c.054 0 .104 0 .154-.003l1.283 2.378h.855l-1.375-2.511c.775-.264 1.137-.896 1.137-1.704 0-1.074-.641-1.864-2.066-1.864h-2.054v6.079zm.736-3.039v-2.387h1.294c.986 0 1.366.481 1.366 1.211 0 .73-.38 1.176-1.354 1.176h-1.306zm5.194 3.039l.612-1.722h2.457l.612 1.722h.772l-2.232-6.079h-.76l-2.232 6.079h.771zm.843-2.375l.974-2.742h.047l.974 2.742h-1.995zm8.215-2.184h.713c-.033-.917-.879-1.603-2.054-1.603-1.164 0-2.078.677-2.078 1.698 0 .819.593 1.306 1.543 1.579l.748.214c.641.178 1.211.403 1.211 1.009 0 .665-.641 1.104-1.484 1.104-.724 0-1.365-.321-1.425-1.009h-.759c.071.997.878 1.674 2.184 1.674 1.401 0 2.197-.772 2.197-1.757 0-1.14-1.081-1.508-1.71-1.674l-.617-.167c-.452-.118-1.176-.356-1.176-1.009 0-.582.534-1.009 1.342-1.009.736 0 1.294.35 1.365.95zm2.34 4.559h3.716v-.653h-2.98v-2.066h2.743v-.653h-2.743v-2.054h2.933v-.653h-3.669v6.079zm11.34-4.559h.712c-.033-.917-.879-1.603-2.054-1.603-1.164 0-2.078.677-2.078 1.698 0 .819.594 1.306 1.544 1.579l.748.214c.641.178 1.211.403 1.211 1.009 0 .665-.641 1.104-1.484 1.104-.725 0-1.366-.321-1.425-1.009h-.76c.071.997.879 1.674 2.185 1.674 1.401 0 2.196-.772 2.196-1.757 0-1.14-1.08-1.508-1.71-1.674l-.617-.167c-.451-.118-1.175-.356-1.175-1.009 0-.582.534-1.009 1.341-1.009.736 0 1.294.35 1.366.95zm2.34 4.559h3.716v-.653h-2.98v-2.066h2.742v-.653h-2.742v-2.054h2.932v-.653H134.6v6.079zm10.15-6.079h-.724v4.785h-.06l-3.324-4.785h-.713v6.079h.737v-4.773h.059l3.312 4.773h.713v-6.079zm1.475.653h1.911v5.426h.736v-5.426h1.912v-.653h-4.559v.653zm6.029 5.426h3.716v-.653h-2.98v-2.066h2.743v-.653h-2.743v-2.054h2.933v-.653h-3.669v6.079zm10.15-6.079h-.724v4.785h-.059l-3.325-4.785h-.712v6.079h.736v-4.773h.06l3.312 4.773h.712v-6.079zm6.699 1.9c-.225-1.247-1.223-1.983-2.446-1.983-1.555 0-2.683 1.199-2.683 3.123 0 1.923 1.128 3.122 2.683 3.122 1.223 0 2.221-.736 2.446-1.983h-.736c-.178.843-.902 1.294-1.71 1.294-1.104 0-1.97-.854-1.97-2.433 0-1.58.866-2.434 1.97-2.434.808 0 1.532.451 1.71 1.294h.736zm1.524 4.179h3.716v-.653h-2.98v-2.066h2.743v-.653h-2.743v-2.054h2.933v-.653h-3.669v6.079z" fill="#6D758D"/><circle cx="27.5" cy="129" r="1.25" fill="#4A6EE0"/></g><path d="M261.764 19h.937c-.043-1.207-1.156-2.11-2.703-2.11-1.531 0-2.734.891-2.734 2.235 0 1.078.781 1.719 2.031 2.078l.984.281c.844.235 1.594.532 1.594 1.328 0 .875-.844 1.454-1.953 1.454-.953 0-1.797-.422-1.875-1.328h-1c.094 1.312 1.156 2.203 2.875 2.203 1.844 0 2.89-1.016 2.89-2.313 0-1.5-1.421-1.984-2.25-2.203l-.812-.219c-.594-.156-1.547-.468-1.547-1.328 0-.765.703-1.328 1.766-1.328.968 0 1.703.46 1.797 1.25zm3.407 6l.805-2.266h3.234l.805 2.266h1.016l-2.938-8h-1l-2.937 8h1.015zm1.11-3.125l1.281-3.61h.062l1.282 3.61h-2.625zM272.717 17v8h.906v-6.078h.078l2.5 6.078h.875l2.5-6.078h.078V25h.907v-8h-1.157l-2.718 6.64h-.094L273.873 17h-1.156zm10.226 8h.969v-2.922h1.75c1.863 0 2.703-1.133 2.703-2.547 0-1.414-.84-2.531-2.719-2.531h-2.703v8zm.969-3.781v-3.36h1.703c1.301 0 1.797.711 1.797 1.672s-.496 1.688-1.782 1.688h-1.718zM290.365 25h4.688v-.86h-3.719V17h-.969v8zm6.628 0h4.89v-.86h-3.921v-2.718h3.609v-.86h-3.609V17.86h3.859V17h-4.828v8zm11.517-8h-.969v8h.969v-8zm6.757 2h.937c-.043-1.207-1.156-2.11-2.703-2.11-1.531 0-2.734.891-2.734 2.235 0 1.078.781 1.719 2.031 2.078l.985.281c.843.235 1.593.532 1.593 1.328 0 .875-.843 1.454-1.953 1.454-.953 0-1.797-.422-1.875-1.328h-1c.094 1.312 1.156 2.203 2.875 2.203 1.844 0 2.891-1.016 2.891-2.313 0-1.5-1.422-1.984-2.25-2.203l-.813-.219c-.593-.156-1.547-.468-1.547-1.328 0-.765.704-1.328 1.766-1.328.969 0 1.703.46 1.797 1.25zm7.455 0h.937c-.043-1.207-1.156-2.11-2.703-2.11-1.531 0-2.734.891-2.734 2.235 0 1.078.781 1.719 2.031 2.078l.984.281c.844.235 1.594.532 1.594 1.328 0 .875-.844 1.454-1.953 1.454-.953 0-1.797-.422-1.875-1.328h-1c.094 1.312 1.156 2.203 2.875 2.203 1.844 0 2.89-1.016 2.89-2.313 0-1.5-1.421-1.984-2.25-2.203l-.812-.219c-.594-.156-1.547-.468-1.547-1.328 0-.765.703-1.328 1.766-1.328.968 0 1.703.46 1.797 1.25zm8.329-2v5.219c0 1.172-.804 2.015-2.14 2.015s-2.141-.843-2.141-2.015V17h-.969v5.297c0 1.64 1.227 2.844 3.11 2.844 1.882 0 3.109-1.203 3.109-2.844V17h-.969zm3.344 8h4.89v-.86h-3.922v-2.718h3.61v-.86h-3.61V17.86h3.86V17h-4.828v8z" fill="#6D758D"/></g><defs><filter id="filter0_d" x="-24.261" y="84.304" width="375.522" height="172.522" filterUnits="userSpaceOnUse" color-interpolation-filters="sRGB"><feFlood flood-opacity="0" result="BackgroundImageFix"/><feColorMatrix in="SourceAlpha" values="0 0 0 0 0 0 0 0 0 0 0 0 0 0 0 0 0 0 127 0"/><feOffset dy="9.565"/><feGaussianBlur stdDeviation="19.13"/><feColorMatrix values="0 0 0 0 0.427451 0 0 0 0 0.458824 0 0 0 0 0.552941 0 0 0 0.2 0"/><feBlend in2="BackgroundImageFix" result="effect1_dropShadow"/><feBlend in="SourceGraphic" in2="effect1_dropShadow" result="shape"/></filter><clipPath id="clip0"><rect width="353" height="219" rx="5" fill="#fff"/></clipPath></defs></svg>