<svg width="360" height="178" viewBox="0 0 360 178" fill="none" xmlns="http://www.w3.org/2000/svg"><g filter="url(#filter0_b)"><path fill="#fff" d="M0 0h360v178H0z"/></g><path d="M288.58 13.245c0-1.008-.711-1.656-1.773-1.809-.351-.054-.702-.117-1.062-.162-.477-.063-.954-.324-.954-.9 0-.288.099-.504.261-.693.279-.315.675-.441 1.134-.441.495 0 .882.162 1.125.441.18.207.297.486.315.801h.837a1.917 1.917 0 0 0-.612-1.368c-.423-.405-1.035-.612-1.656-.612-.666 0-1.233.216-1.674.63a1.76 1.76 0 0 0-.558 1.26c0 1.017.747 1.548 1.701 1.692l1.008.153c.756.117 1.071.531 1.071 1.026a.94.94 0 0 1-.324.747c-.288.27-.702.369-1.188.369-.45 0-.936-.117-1.224-.396-.261-.252-.45-.63-.45-1.008h-.837c0 .603.279 1.152.684 1.53.432.396 1.053.612 1.827.612.684 0 1.368-.207 1.809-.639.315-.306.54-.702.54-1.233zM295.001 15l-2.259-6.381h-.936L289.556 15h.81l.513-1.512h2.772l.522 1.512h.828zm-1.611-2.268h-2.259l1.125-3.312 1.134 3.312zM302.594 15V8.619h-1.125l-1.917 5.193-1.926-5.193h-1.152V15h.765V9.573l1.98 5.337h.63l1.98-5.292V15h.765zm6.772-4.455c0-.558-.18-1.017-.486-1.35-.342-.369-.873-.576-1.62-.576h-2.367V15h.801v-2.475h1.575c.702 0 1.224-.189 1.566-.531.342-.342.531-.828.531-1.449zm-.828 0c0 .855-.432 1.251-1.287 1.251h-1.557V9.348h1.548c.792 0 1.296.387 1.296 1.197zM314.906 15v-.747h-3.069V8.619h-.801V15h3.87zm5.791 0v-.738h-3.465v-2.205h3.042v-.756h-3.042V9.357h3.465v-.738h-4.266V15h4.266zm5.252 0V8.619h-.819V15h.819zm6.666-1.755c0-1.008-.711-1.656-1.773-1.809-.351-.054-.702-.117-1.062-.162-.477-.063-.954-.324-.954-.9 0-.288.099-.504.261-.693.279-.315.675-.441 1.134-.441.495 0 .882.162 1.125.441.18.207.297.486.315.801h.837a1.917 1.917 0 0 0-.612-1.368c-.423-.405-1.035-.612-1.656-.612-.666 0-1.233.216-1.674.63a1.76 1.76 0 0 0-.558 1.26c0 1.017.747 1.548 1.701 1.692l1.008.153c.756.117 1.071.531 1.071 1.026a.94.94 0 0 1-.324.747c-.288.27-.702.369-1.188.369-.45 0-.936-.117-1.224-.396-.261-.252-.45-.63-.45-1.008h-.837c0 .603.279 1.152.684 1.53.432.396 1.053.612 1.827.612.684 0 1.368-.207 1.809-.639.315-.306.54-.702.54-1.233zm6.213 0c0-1.008-.711-1.656-1.773-1.809-.351-.054-.702-.117-1.062-.162-.477-.063-.954-.324-.954-.9 0-.288.099-.504.261-.693.279-.315.675-.441 1.134-.441.495 0 .882.162 1.125.441.18.207.297.486.315.801h.837a1.917 1.917 0 0 0-.612-1.368c-.423-.405-1.035-.612-1.656-.612-.666 0-1.233.216-1.674.63a1.76 1.76 0 0 0-.558 1.26c0 1.017.747 1.548 1.701 1.692l1.008.153c.756.117 1.071.531 1.071 1.026a.94.94 0 0 1-.324.747c-.288.27-.702.369-1.188.369-.45 0-.936-.117-1.224-.396-.261-.252-.45-.63-.45-1.008h-.837c0 .603.279 1.152.684 1.53.432.396 1.053.612 1.827.612.684 0 1.368-.207 1.809-.639.315-.306.54-.702.54-1.233zm6.329-.585V8.619h-.801v4.059c0 1.017-.423 1.692-1.53 1.692s-1.53-.675-1.53-1.692V8.619h-.801v4.041c0 1.593.9 2.457 2.331 2.457s2.331-.864 2.331-2.457zm6.384 2.34v-.738h-3.465v-2.205h3.042v-.756h-3.042V9.357h3.465v-.738h-4.266V15h4.266z" fill="#9FA6BF"/><path d="M67.398 51.787v-9.544h-1.225v9.544h1.225zm3.769-7.888v-1.656h-1.279V43.9l.283 2.06h.713l.283-2.06zm11.814 7.888v-4.482c0-1.508-.727-2.504-2.275-2.504-.861 0-1.736.444-2.1 1.292-.296-.834-1.023-1.292-2.032-1.292-.768 0-1.548.377-1.912 1.144l-.108-.97h-.996v6.812h1.144v-3.62c0-.566.122-1.293.458-1.724.283-.363.673-.606 1.158-.606 1.09 0 1.373.66 1.373 1.616v4.334h1.144v-3.62c0-.714.121-1.4.579-1.872a1.379 1.379 0 0 1 1.036-.458c1.077 0 1.387.66 1.387 1.616v4.334h1.144zm10.626-6.811h-1.158l-1.898 5.465-1.965-5.465h-1.198l2.517 6.811h1.239l2.463-6.811zm6.844 3.096c.014-.915-.31-1.79-.861-2.396-.499-.539-1.199-.875-2.073-.875-1.185 0-2.087.606-2.572 1.427-.376.632-.524 1.36-.524 2.18 0 .97.282 1.871.848 2.531.525.62 1.305 1.023 2.261 1.023.646 0 1.252-.188 1.736-.511a2.506 2.506 0 0 0 1.05-1.683h-1.117c-.094.363-.215.552-.404.74-.282.296-.727.444-1.265.444-.525 0-.942-.174-1.252-.484-.417-.417-.66-1.09-.66-1.71h4.82l.013-.686zm-1.171-.296h-3.635c.027-.996.633-2.006 1.872-2.006.605 0 1.063.242 1.346.62.269.363.417.874.417 1.386zm6.768-1.683v-1.117a3.635 3.635 0 0 0-.539-.04c-.861 0-1.682.403-2.032 1.238l-.094-1.198h-1.01v6.811h1.131v-3.029c0-.713.067-1.655.619-2.18.31-.296.754-.539 1.292-.539.202 0 .431.014.633.054zm6.808-1.117h-1.198l-1.911 5.37-2.006-5.37h-1.292l2.719 6.811-.431 1.144c-.188.512-.538.687-1.023.687-.444 0-.808-.108-.808-.108v.996c.095.027.472.135 1.037.135 1.023 0 1.521-.579 1.844-1.454l3.069-8.211zm9.995 6.811v-4.482c0-1.575-.821-2.504-2.369-2.504-.767 0-1.588.377-1.992 1.077v-3.81h-1.144v9.72h1.144v-3.164c0-.525.013-1.239.242-1.737.296-.619.821-1.05 1.481-1.05 1.077 0 1.494.606 1.494 1.63v4.32h1.144zm8.102-.067v-.848s-.175.04-.296.04c-.229 0-.377-.094-.377-.457v-3.298c0-.39-.067-.74-.202-1.05-.323-.74-1.076-1.306-2.396-1.306-.834 0-1.642.242-2.1.727a2.024 2.024 0 0 0-.592 1.427h1.117c0-.337.122-.606.337-.822.229-.228.619-.403 1.238-.403.552 0 .889.134 1.118.35.309.282.35.7.35 1.036v.498l-2.073.121c-1.858.108-2.423 1.252-2.423 2.127 0 1.05.78 2.1 2.342 2.1.956 0 1.804-.43 2.194-1.117h.027c0 .579.377 1.036.983 1.036.282 0 .511-.04.753-.161zm-1.803-2.813c0 .565-.175 1.13-.579 1.548-.364.376-.875.551-1.4.551-.969 0-1.346-.565-1.346-1.17 0-.862.807-1.185 1.494-1.226l1.831-.107v.404zm9.646-.525c0-1.131-.337-2.168-.983-2.827-.444-.458-1.09-.74-1.925-.74-.767 0-1.642.376-2.033 1.063l-.08-.889h-1.01v9.72h1.144v-3.703c.364.62 1.239.97 1.979.97.794 0 1.427-.27 1.871-.687.687-.66 1.037-1.736 1.037-2.907zm-1.172.013c0 1.252-.403 2.611-1.924 2.611-.498 0-.835-.202-1.104-.444-.566-.498-.754-1.319-.754-2.167 0-.848.188-1.67.754-2.167.269-.242.606-.444 1.104-.444 1.521 0 1.924 1.36 1.924 2.611zm9.111-.014c0-1.13-.336-2.167-.982-2.826-.444-.458-1.091-.74-1.925-.74-.767 0-1.642.376-2.033 1.063l-.081-.889h-1.009v9.72h1.144v-3.703c.364.62 1.238.97 1.979.97.794 0 1.427-.27 1.871-.687.686-.66 1.036-1.736 1.036-2.907zm-1.171.014c0 1.252-.404 2.611-1.925 2.611-.498 0-.834-.202-1.103-.444-.566-.498-.754-1.319-.754-2.167 0-.848.188-1.67.754-2.167.269-.242.605-.444 1.103-.444 1.521 0 1.925 1.36 1.925 2.611zm8.266-3.42h-1.198l-1.911 5.372-2.006-5.371h-1.292l2.719 6.811-.431 1.144c-.188.512-.538.687-1.023.687a3.15 3.15 0 0 1-.807-.108v.996c.094.027.471.135 1.036.135 1.023 0 1.521-.579 1.844-1.454l3.069-8.211zm8.016 6.718v-.983s-.686.121-1.171.121c-.632 0-.915-.269-.915-.928v-3.944h2.019v-.983h-2.019V42.97l-1.144.27v1.736h-1.319v.983h1.319v4.078c0 .916.404 1.844 1.871 1.844.633 0 1.05-.107 1.359-.188zm7.054-3.311c0-1.077-.229-2.06-.969-2.787-.498-.484-1.198-.794-2.06-.794-.861 0-1.561.31-2.059.794-.741.727-.969 1.71-.969 2.787 0 1.076.228 2.059.969 2.786.498.485 1.198.794 2.059.794.862 0 1.562-.31 2.06-.794.74-.727.969-1.71.969-2.786zm-1.171 0c0 .794-.148 1.615-.633 2.113-.282.283-.686.485-1.225.485-.538 0-.942-.202-1.225-.485-.484-.498-.632-1.32-.632-2.113 0-.795.148-1.616.632-2.114.283-.282.687-.484 1.225-.484.539 0 .943.202 1.225.484.485.498.633 1.32.633 2.114zm12.277.013c0-1.171-.35-2.248-1.036-2.908-.444-.417-1.077-.686-1.871-.686-.741 0-1.615.35-1.979.97v-3.703h-1.144v9.72h1.009l.081-.89c.391.687 1.266 1.064 2.033 1.064.834 0 1.481-.283 1.925-.74.646-.66.982-1.696.982-2.827zm-1.171-.014c0 1.252-.404 2.612-1.925 2.612-.498 0-.834-.202-1.103-.444-.566-.498-.754-1.32-.754-2.167 0-.849.188-1.67.754-2.168.269-.242.605-.444 1.103-.444 1.521 0 1.925 1.36 1.925 2.611zm8.638-.31c.014-.914-.309-1.79-.861-2.395-.498-.539-1.198-.875-2.073-.875-1.185 0-2.086.606-2.571 1.427-.377.632-.525 1.36-.525 2.18 0 .97.283 1.871.848 2.531.525.62 1.306 1.023 2.261 1.023.647 0 1.252-.188 1.737-.511a2.507 2.507 0 0 0 1.05-1.683h-1.117c-.095.363-.216.552-.404.74-.283.296-.727.444-1.266.444-.525 0-.942-.174-1.251-.484-.418-.417-.66-1.09-.66-1.71h4.819l.013-.686zm-1.171-.295h-3.634c.027-.996.633-2.006 1.871-2.006.606 0 1.063.242 1.346.62.269.363.417.874.417 1.386zm12.226.605c0-1.13-.336-2.167-.982-2.826-.445-.458-1.091-.74-1.925-.74-.768 0-1.643.376-2.033 1.063l-.081-.889h-1.009v9.72h1.144v-3.703c.363.62 1.238.97 1.979.97.794 0 1.427-.27 1.871-.687.686-.66 1.036-1.736 1.036-2.907zm-1.171.014c0 1.252-.404 2.611-1.925 2.611-.498 0-.834-.202-1.104-.444-.565-.498-.753-1.319-.753-2.167 0-.848.188-1.67.753-2.167.27-.242.606-.444 1.104-.444 1.521 0 1.925 1.36 1.925 2.611zm8.854 3.325v-.848s-.175.04-.296.04c-.229 0-.377-.094-.377-.457v-3.298c0-.39-.068-.74-.202-1.05-.323-.74-1.077-1.306-2.396-1.306-.835 0-1.643.242-2.1.727-.35.363-.579.808-.592 1.427h1.117c0-.337.121-.606.336-.822.229-.228.619-.403 1.239-.403.552 0 .888.134 1.117.35.31.282.35.7.35 1.036v.498l-2.073.121c-1.858.108-2.423 1.252-2.423 2.127 0 1.05.781 2.1 2.342 2.1.956 0 1.804-.43 2.194-1.117h.027c0 .579.377 1.036.983 1.036.283 0 .511-.04.754-.161zm-1.804-2.813c0 .565-.175 1.13-.579 1.548-.363.376-.875.551-1.4.551-.969 0-1.346-.565-1.346-1.17 0-.862.808-1.185 1.494-1.226l1.831-.107v.404zm7.29-2.814v-1.117a3.622 3.622 0 0 0-.538-.04c-.862 0-1.683.403-2.033 1.238l-.094-1.198h-1.01v6.811h1.131v-3.029c0-.713.067-1.655.619-2.18.31-.296.754-.539 1.293-.539.201 0 .43.014.632.054zm5.15 5.6v-.983s-.687.121-1.171.121c-.633 0-.916-.269-.916-.928v-3.944h2.019v-.983h-2.019V42.97l-1.144.27v1.736h-1.319v.983h1.319v4.078c0 .916.404 1.844 1.871 1.844a4.93 4.93 0 0 0 1.36-.188zm10.287-3.311c0-1.077-.229-2.06-.969-2.787-.498-.484-1.198-.794-2.06-.794-.861 0-1.561.31-2.059.794-.741.727-.969 1.71-.969 2.787 0 1.076.228 2.059.969 2.786.498.485 1.198.794 2.059.794.862 0 1.562-.31 2.06-.794.74-.727.969-1.71.969-2.786zm-1.171 0c0 .794-.148 1.615-.633 2.113-.282.283-.686.485-1.225.485-.538 0-.942-.202-1.225-.485-.484-.498-.632-1.32-.632-2.113 0-.795.148-1.616.632-2.114.283-.282.687-.484 1.225-.484.539 0 .943.202 1.225.484.485.498.633 1.32.633 2.114zm6.686-5.371v-.956a7.074 7.074 0 0 0-1.265-.121c-1.184 0-1.979.807-1.979 1.83v1.212h-1.238v.97h1.238v5.841h1.145v-5.842h1.965v-.97h-1.965v-1.143c0-.552.363-.93.969-.93.484 0 .767.068 1.13.109zm7.951 8.682v-.983s-.686.121-1.171.121c-.632 0-.915-.269-.915-.928v-3.944h2.019v-.983h-2.019V42.97l-1.144.27v1.736h-1.319v.983h1.319v4.078c0 .916.404 1.844 1.871 1.844.633 0 1.05-.107 1.359-.188zm7.158.094v-4.482c0-1.575-.821-2.504-2.369-2.504-.767 0-1.588.377-1.992 1.077v-3.81h-1.144v9.72h1.144v-3.164c0-.525.014-1.239.242-1.737.297-.619.822-1.05 1.481-1.05 1.077 0 1.494.606 1.494 1.63v4.32h1.144zm7.887-3.715c.014-.915-.309-1.79-.861-2.396-.498-.539-1.198-.875-2.073-.875-1.185 0-2.086.606-2.571 1.427-.377.632-.525 1.36-.525 2.18 0 .97.283 1.871.848 2.531.525.62 1.306 1.023 2.261 1.023.647 0 1.252-.188 1.737-.511a2.507 2.507 0 0 0 1.05-1.683h-1.117c-.095.363-.216.552-.404.74-.283.296-.727.444-1.266.444-.525 0-.942-.174-1.251-.484-.418-.417-.66-1.09-.66-1.71h4.819l.013-.686zm-1.171-.296h-3.634c.027-.996.633-2.006 1.871-2.006.606 0 1.063.242 1.346.62.269.363.417.874.417 1.386zm9.722 3.917v-.983s-.686.121-1.171.121c-.632 0-.915-.269-.915-.928v-3.944h2.019v-.983h-2.019V42.97l-1.144.27v1.736h-1.319v.983h1.319v4.078c0 .916.404 1.844 1.871 1.844.633 0 1.05-.107 1.359-.188zm7.014-3.621c.013-.915-.31-1.79-.862-2.396-.498-.539-1.198-.875-2.073-.875-1.184 0-2.086.606-2.571 1.427-.377.632-.525 1.36-.525 2.18 0 .97.283 1.871.848 2.531.525.62 1.306 1.023 2.262 1.023.646 0 1.251-.188 1.736-.511a2.507 2.507 0 0 0 1.05-1.683h-1.117c-.095.363-.216.552-.404.74-.283.296-.727.444-1.265.444-.525 0-.943-.174-1.252-.484-.418-.417-.66-1.09-.66-1.71h4.819l.014-.686zm-1.172-.296h-3.634c.027-.996.633-2.006 1.871-2.006.606 0 1.063.242 1.346.62.269.363.417.874.417 1.386zm8.801 3.944v-.848s-.175.04-.296.04c-.229 0-.377-.094-.377-.457v-3.298c0-.39-.067-.74-.202-1.05-.323-.74-1.077-1.306-2.396-1.306-.835 0-1.642.242-2.1.727-.35.363-.579.808-.592 1.427h1.117c0-.337.121-.606.337-.822.228-.228.619-.403 1.238-.403.552 0 .888.134 1.117.35.31.282.35.7.35 1.036v.498l-2.073.121c-1.857.108-2.423 1.252-2.423 2.127 0 1.05.781 2.1 2.342 2.1.956 0 1.804-.43 2.195-1.117h.026c0 .579.377 1.036.983 1.036.283 0 .512-.04.754-.161zm-1.804-2.813c0 .565-.175 1.13-.579 1.548-.363.376-.875.551-1.4.551-.969 0-1.346-.565-1.346-1.17 0-.862.808-1.185 1.494-1.226l1.831-.107v.404zm13.038 2.88v-4.482c0-1.508-.727-2.504-2.275-2.504-.861 0-1.736.444-2.1 1.292-.296-.834-1.023-1.292-2.032-1.292-.767 0-1.548.377-1.912 1.144l-.107-.97h-.996v6.812h1.144v-3.62c0-.566.121-1.293.458-1.724.282-.363.673-.606 1.157-.606 1.09 0 1.373.66 1.373 1.616v4.334h1.144v-3.62c0-.714.121-1.4.579-1.872a1.382 1.382 0 0 1 1.037-.458c1.077 0 1.386.66 1.386 1.616v4.334h1.144zm3.916 0v-1.602h-1.588v1.602h1.588z" fill="#1C1E29"/><g style="mix-blend-mode:multiply" filter="url(#filter1_d)"><path fill-rule="evenodd" clip-rule="evenodd" d="M86.522 38.787h67.304v17.948H86.522V38.787z" fill="#D7F7F0"/></g><path fill-rule="evenodd" clip-rule="evenodd" d="M9.496 77.674a5.983 5.983 0 0 1 5.982-5.983h328.296a5.982 5.982 0 0 1 5.982 5.983v66.557a5.982 5.982 0 0 1-5.982 5.982H15.478a5.982 5.982 0 0 1-5.982-5.982V77.674z" fill="#fff" stroke="#E4E6F2" stroke-width=".748" stroke-linecap="square"/><path d="M37.289 91.657v-.552h-2.591v-1.65h2.274v-.564h-2.274v-1.454h2.59v-.552h-3.19v4.772h3.19zm5.208 0v-4.772h-.578v3.85l-2.343-3.85h-.673v4.772h.58V87.82l2.341 3.837h.673zm5.353 0v-2.571h-1.817v.558h1.279c0 .438-.095.902-.411 1.212-.216.215-.532.33-.868.33-.323 0-.626-.108-.855-.344-.397-.403-.43-1.09-.43-1.568 0-.498.026-1.144.416-1.548.23-.235.546-.363.869-.363.39 0 .72.12.935.377a.905.905 0 0 1 .216.525h.626a1.431 1.431 0 0 0-.411-.93c-.33-.35-.828-.538-1.366-.538-.478 0-.943.175-1.286.512-.518.505-.619 1.205-.619 1.965 0 .855.135 1.514.62 1.986.342.336.807.491 1.285.491.538 0 1.063-.276 1.299-.666l.1.572h.418zm5.22 0l-1.69-4.772h-.7l-1.682 4.772h.606l.383-1.131h2.073l.39 1.13h.62zm-1.205-1.696h-1.69l.842-2.477.848 2.477zm5.838 1.696v-2.571h-1.818v.558h1.28c0 .438-.095.902-.411 1.212-.216.215-.532.33-.869.33a1.16 1.16 0 0 1-.854-.344c-.397-.403-.431-1.09-.431-1.568 0-.498.027-1.144.417-1.548.229-.235.545-.363.868-.363.39 0 .72.12.936.377a.905.905 0 0 1 .215.525h.626a1.432 1.432 0 0 0-.41-.93c-.33-.35-.828-.538-1.367-.538-.477 0-.942.175-1.285.512-.518.505-.62 1.205-.62 1.965 0 .855.135 1.514.62 1.986.343.336.808.491 1.285.491.539 0 1.064-.276 1.3-.666l.1.572h.418zm4.957 0v-.552h-2.59v-1.65h2.275v-.564H60.07v-1.454h2.591v-.552h-3.19v4.772h3.19zm6.191 0v-4.772h-.84l-1.434 3.883-1.44-3.883h-.862v4.772h.572v-4.059l1.48 3.991h.472l1.48-3.957v4.025h.572zm5.134 0v-.552h-2.591v-1.65h2.275v-.564h-2.275v-1.454h2.591v-.552h-3.19v4.772h3.19zm5.209 0v-4.772h-.579v3.85l-2.342-3.85H75.6v4.772h.579V87.82l2.342 3.837h.673zM84 87.444v-.56h-3.446v.56h1.42v4.213h.606v-4.213H84zm2.14 1.554v-.747h-.74v.747h.74zm0 2.665v-.74h-.74v.74h.74zm6.67-4.778h-.613l-1.292 4.031-1.32-4.031h-.619l1.609 4.772h.626l1.608-4.772zm4.68 2.39c0-.761-.095-1.461-.613-1.966a1.828 1.828 0 0 0-1.286-.512c-.478 0-.942.175-1.285.512-.519.505-.613 1.205-.613 1.965s.094 1.46.613 1.966c.343.336.807.511 1.285.511.478 0 .942-.175 1.286-.511.518-.505.612-1.205.612-1.966zm-.62 0c0 .497-.02 1.143-.41 1.547a1.205 1.205 0 0 1-.869.357c-.323 0-.64-.121-.868-.357-.39-.404-.41-1.05-.41-1.548s.02-1.144.41-1.548c.229-.235.545-.356.868-.356.323 0 .64.12.868.356.39.404.411 1.05.411 1.548zm5.572.86h-.62a1.087 1.087 0 0 1-.262.687 1.181 1.181 0 0 1-.868.364c-.323 0-.64-.128-.869-.364-.39-.404-.403-1.05-.403-1.548s.013-1.144.403-1.548c.229-.235.546-.363.869-.363.363 0 .673.141.861.35.155.175.256.404.263.666h.619a1.627 1.627 0 0 0-.471-1.09c-.29-.29-.754-.492-1.272-.492-.478 0-.95.175-1.293.512-.518.505-.599 1.205-.599 1.965s.081 1.46.6 1.966c.343.336.814.511 1.292.511.518 0 .989-.222 1.278-.511.276-.283.451-.66.472-1.104zm4.893 1.522l-1.69-4.772h-.7l-1.682 4.772h.606l.383-1.131h2.073l.391 1.13h.619zm-1.205-1.696h-1.689l.841-2.477.848 2.477zm6.017.363c0-.505-.303-.99-.794-1.15.444-.162.686-.6.686-1.058a1.12 1.12 0 0 0-.309-.794c-.263-.29-.721-.437-1.165-.437h-1.904v4.772h1.924c.472 0 .929-.148 1.198-.438.209-.222.364-.511.364-.895zm-.72-2.16c0 .531-.344.754-.842.754h-1.339v-1.501h1.319c.458 0 .862.249.862.747zm.107 2.12c0 .565-.424.82-.949.82h-1.339v-1.662h1.353c.505 0 .935.31.935.842zm5.572-.377v-3.022h-.599v3.035c0 .76-.316 1.266-1.144 1.266-.828 0-1.144-.505-1.144-1.266v-3.035h-.599v3.022c0 1.191.673 1.837 1.743 1.837s1.743-.646 1.743-1.837zm4.702 1.75v-.559h-2.295v-4.213h-.599v4.772h2.894zm4.818 0l-1.689-4.772h-.7l-1.683 4.772h.606l.384-1.131h2.073l.39 1.13h.619zm-1.205-1.696h-1.689l.841-2.477.848 2.477zm6.011 1.696l-.956-2.1c.229-.074.431-.189.572-.337.229-.242.363-.525.363-.942a1.35 1.35 0 0 0-.377-.97c-.262-.268-.652-.423-1.211-.423h-1.871v4.772h.599V89.67h1.319l.902 1.986h.66zm-.64-3.379c0 .606-.404.835-.969.835h-1.272v-1.676h1.272c.565 0 .969.235.969.841zm5.219-1.393h-.639l-1.245 2.268-1.252-2.268h-.673l1.602 2.833v1.939h.606v-1.939l1.601-2.833z" fill="#8189A9"/><path fill-rule="evenodd" clip-rule="evenodd" d="M21.834 91.135a1.87 1.87 0 1 0 0-3.74 1.87 1.87 0 0 0 0 3.74z" fill="#1AC39A"/><path d="M39.806 117.019h-1.158l-1.898 5.465-1.965-5.465h-1.198l2.517 6.812h1.239l2.463-6.812zm6.844 3.096c.014-.915-.31-1.79-.861-2.396-.498-.538-1.198-.875-2.073-.875-1.185 0-2.087.606-2.571 1.427-.377.633-.525 1.36-.525 2.181 0 .969.282 1.871.848 2.531.525.619 1.305 1.023 2.261 1.023.646 0 1.252-.189 1.736-.512a2.509 2.509 0 0 0 1.05-1.683h-1.117c-.094.364-.215.552-.404.741-.282.296-.727.444-1.265.444-.525 0-.942-.175-1.252-.485-.417-.417-.66-1.09-.66-1.709h4.82l.013-.687zm-1.171-.296h-3.634c.026-.996.632-2.005 1.87-2.005.606 0 1.064.242 1.347.619.269.363.417.875.417 1.386zm6.768-1.682v-1.118a3.615 3.615 0 0 0-.539-.04c-.861 0-1.682.404-2.032 1.238l-.094-1.198h-1.01v6.812h1.13v-3.029c0-.714.068-1.656.62-2.181.31-.296.754-.538 1.292-.538a3.3 3.3 0 0 1 .633.054zm6.808-1.118h-1.198l-1.911 5.371-2.006-5.371h-1.292l2.719 6.812-.43 1.144c-.19.511-.54.686-1.024.686-.444 0-.807-.107-.807-.107v.996c.094.027.47.134 1.036.134 1.023 0 1.521-.579 1.844-1.454l3.07-8.211zm9.995 6.812v-4.483c0-1.575-.821-2.504-2.369-2.504-.767 0-1.588.377-1.992 1.077v-3.809h-1.144v9.719h1.144v-3.164c0-.525.013-1.238.242-1.736.296-.619.821-1.05 1.48-1.05 1.078 0 1.495.606 1.495 1.629v4.321h1.144zm8.102-.068v-.848s-.175.041-.296.041c-.228 0-.377-.095-.377-.458V119.2c0-.39-.067-.74-.201-1.05-.324-.74-1.077-1.306-2.397-1.306-.834 0-1.642.243-2.1.727-.35.364-.578.808-.592 1.427h1.118c0-.336.12-.606.336-.821.229-.229.62-.404 1.238-.404.552 0 .889.135 1.118.35.31.283.35.7.35 1.037v.498l-2.073.121c-1.858.108-2.423 1.252-2.423 2.127 0 1.05.78 2.1 2.342 2.1.956 0 1.804-.431 2.194-1.118h.027c0 .579.377 1.037.983 1.037.282 0 .511-.041.753-.162zm-1.803-2.813c0 .565-.175 1.131-.58 1.548-.363.377-.874.552-1.4.552-.968 0-1.345-.566-1.345-1.171 0-.862.808-1.185 1.494-1.225l1.83-.108v.404zm9.646-.525c0-1.131-.337-2.167-.983-2.827-.444-.457-1.09-.74-1.925-.74-.767 0-1.642.377-2.032 1.063l-.081-.888h-1.01v9.719h1.144v-3.702c.364.619 1.239.969 1.98.969.793 0 1.426-.269 1.87-.686.687-.66 1.037-1.737 1.037-2.908zm-1.171.013c0 1.252-.404 2.612-1.925 2.612-.498 0-.835-.202-1.104-.444-.566-.498-.754-1.32-.754-2.168 0-.848.189-1.669.754-2.167.27-.242.606-.444 1.104-.444 1.52 0 1.925 1.36 1.925 2.611zm9.11-.013c0-1.131-.336-2.167-.982-2.827-.444-.457-1.09-.74-1.925-.74-.767 0-1.642.377-2.033 1.063l-.08-.888h-1.01v9.719h1.144v-3.702c.364.619 1.239.969 1.979.969.794 0 1.427-.269 1.871-.686.687-.66 1.037-1.737 1.037-2.908zm-1.17.013c0 1.252-.404 2.612-1.925 2.612-.499 0-.835-.202-1.104-.444-.566-.498-.754-1.32-.754-2.168 0-.848.188-1.669.754-2.167.269-.242.605-.444 1.103-.444 1.522 0 1.925 1.36 1.925 2.611zm8.265-3.419h-1.198l-1.911 5.371-2.006-5.371h-1.292l2.72 6.812-.432 1.144c-.188.511-.538.686-1.023.686-.444 0-.807-.107-.807-.107v.996c.094.027.47.134 1.036.134 1.023 0 1.521-.579 1.844-1.454l3.069-8.211z" fill="#1C1E29"/><path d="M33.425 120.674h67.305" stroke="#EA1537" stroke-width=".748" stroke-linecap="square"/><path fill-rule="evenodd" clip-rule="evenodd" d="M117.019 121.048h-9.933a.362.362 0 0 1-.268-.105.365.365 0 0 1-.105-.269c0-.109.035-.199.105-.269a.362.362 0 0 1 .268-.105h9.933l-3.459-3.482a.31.31 0 0 1-.117-.257.31.31 0 0 1 .117-.257.31.31 0 0 1 .257-.117.31.31 0 0 1 .257.117l4.113 4.113a.31.31 0 0 1 .117.257.31.31 0 0 1-.117.257l-4.09 4.113a.368.368 0 0 1-.537 0 .31.31 0 0 1-.117-.257.31.31 0 0 1 .117-.257l3.459-3.482z" fill="#9FA6BF"/><g clip-path="url(#clip0)"><rect x="124.66" y="107.587" width="56.835" height="23.93" rx="2.991" fill="#11A683"/><path d="M135.421 123.736v-.982s-.686.121-1.171.121c-.632 0-.915-.269-.915-.929v-3.944h2.019v-.983h-2.019v-2.005l-1.144.269v1.736h-1.319v.983h1.319v4.079c0 .915.404 1.844 1.871 1.844.632 0 1.05-.108 1.359-.189zm7.158.095v-4.483c0-1.575-.821-2.504-2.369-2.504-.767 0-1.588.377-1.992 1.077v-3.809h-1.144v9.719h1.144v-3.164c0-.525.013-1.238.242-1.736.296-.619.821-1.05 1.481-1.05 1.077 0 1.494.606 1.494 1.629v4.321h1.144zm6.07-5.694v-1.118a3.608 3.608 0 0 0-.538-.04c-.862 0-1.683.404-2.033 1.238l-.094-1.198h-1.01v6.812h1.131v-3.029c0-.714.067-1.656.619-2.181.31-.296.754-.538 1.292-.538a3.3 3.3 0 0 1 .633.054zm2.743-2.679v-1.346h-1.332v1.346h1.332zm-.081 8.373v-6.812h-1.171v6.812h1.171zm4.704 0v-.97s-.094.014-.471.014c-.471 0-.619-.242-.619-.7v-8.063h-1.144v8.13c0 1.077.43 1.669 1.427 1.669.551 0 .807-.08.807-.08zm3.918 0v-.97s-.095.014-.472.014c-.471 0-.619-.242-.619-.7v-8.063h-1.144v8.13c0 1.077.431 1.669 1.427 1.669.552 0 .808-.08.808-.08zm7.149-3.716c.013-.915-.31-1.79-.861-2.396-.499-.538-1.199-.875-2.073-.875-1.185 0-2.087.606-2.571 1.427-.377.633-.525 1.36-.525 2.181 0 .969.282 1.871.848 2.531.525.619 1.305 1.023 2.261 1.023.646 0 1.252-.189 1.736-.512a2.508 2.508 0 0 0 1.05-1.683h-1.117c-.094.364-.215.552-.404.741-.282.296-.727.444-1.265.444-.525 0-.942-.175-1.252-.485-.417-.417-.659-1.09-.659-1.709h4.819l.013-.687zm-1.171-.296h-3.635c.027-.996.633-2.005 1.872-2.005.605 0 1.063.242 1.346.619.269.363.417.875.417 1.386zm8.598 4.012v-9.719h-1.144v3.702c-.363-.62-1.238-.97-1.978-.97-.795 0-1.427.27-1.872.687-.686.659-1.036 1.736-1.036 2.907 0 1.131.337 2.168.983 2.827.444.458 1.09.741 1.925.741.767 0 1.642-.377 2.032-1.064l.081.889h1.009zm-1.076-3.406c0 .848-.189 1.669-.754 2.167-.269.242-.606.444-1.104.444-1.521 0-1.925-1.359-1.925-2.611 0-1.252.404-2.611 1.925-2.611.498 0 .835.201 1.104.444.565.498.754 1.319.754 2.167z" fill="#fff"/></g><g clip-path="url(#clip1)"><rect x="185.234" y="107.587" width="61.322" height="23.93" rx="2.991" fill="#11A683"/><path d="M198.5 120.425c0-1.131-.337-2.167-.983-2.827-.444-.457-1.09-.74-1.925-.74-.767 0-1.642.377-2.033 1.063l-.08-.888h-1.01v9.719h1.144v-3.702c.364.619 1.239.969 1.979.969.794 0 1.427-.269 1.871-.686.687-.66 1.037-1.737 1.037-2.908zm-1.171.013c0 1.252-.404 2.612-1.925 2.612-.498 0-.835-.202-1.104-.444-.566-.498-.754-1.32-.754-2.168 0-.848.188-1.669.754-2.167.269-.242.606-.444 1.104-.444 1.521 0 1.925 1.36 1.925 2.611zm5.34 3.393v-.97s-.094.014-.471.014c-.471 0-.62-.242-.62-.7v-8.063h-1.144v8.13c0 1.077.431 1.669 1.427 1.669.552 0 .808-.08.808-.08zm7.149-3.716c.014-.915-.309-1.79-.861-2.396-.498-.538-1.198-.875-2.073-.875-1.185 0-2.087.606-2.571 1.427-.377.633-.525 1.36-.525 2.181 0 .969.283 1.871.848 2.531.525.619 1.306 1.023 2.261 1.023a3.14 3.14 0 0 0 1.737-.512 2.511 2.511 0 0 0 1.05-1.683h-1.118c-.094.364-.215.552-.403.741-.283.296-.727.444-1.266.444-.525 0-.942-.175-1.252-.485-.417-.417-.659-1.09-.659-1.709h4.819l.013-.687zm-1.171-.296h-3.634c.027-.996.632-2.005 1.871-2.005.606 0 1.063.242 1.346.619.269.363.417.875.417 1.386zm8.801 3.944v-.848s-.175.041-.296.041c-.229 0-.377-.095-.377-.458V119.2c0-.39-.068-.74-.202-1.05-.323-.74-1.077-1.306-2.396-1.306-.835 0-1.643.243-2.1.727-.35.364-.579.808-.592 1.427h1.117c0-.336.121-.606.336-.821.229-.229.619-.404 1.239-.404.552 0 .888.135 1.117.35.31.283.35.7.35 1.037v.498l-2.073.121c-1.858.108-2.423 1.252-2.423 2.127 0 1.05.781 2.1 2.342 2.1.956 0 1.804-.431 2.194-1.118h.027c0 .579.377 1.037.983 1.037.283 0 .511-.041.754-.162zm-1.804-2.813c0 .565-.175 1.131-.579 1.548-.363.377-.875.552-1.4.552-.969 0-1.346-.566-1.346-1.171 0-.862.808-1.185 1.494-1.225l1.831-.108v.404zm8.663.902c0-1.023-.767-1.723-1.736-1.885-.727-.121-1.266-.175-1.642-.229-.566-.08-.916-.323-.916-.888 0-.377.256-.74.687-.915.323-.135.525-.135.794-.135.458 0 .835.108 1.117.364.202.175.377.498.391.848h1.144c0-.552-.189-.943-.485-1.306-.458-.579-1.265-.862-2.167-.862-.848 0-1.562.297-2.006.754-.309.31-.565.808-.565 1.333 0 1.036.646 1.669 1.669 1.83l1.535.202c.7.095 1.063.458 1.063.97a.965.965 0 0 1-.337.74c-.349.296-.78.377-1.251.377-.431 0-.916-.081-1.225-.31a1.326 1.326 0 0 1-.552-1.063h-1.144c0 .579.242 1.157.659 1.561.579.566 1.36.768 2.208.768.888 0 1.696-.229 2.221-.768.323-.336.538-.794.538-1.386zm7.464-1.737c.014-.915-.309-1.79-.861-2.396-.498-.538-1.198-.875-2.073-.875-1.185 0-2.087.606-2.571 1.427-.377.633-.525 1.36-.525 2.181 0 .969.282 1.871.848 2.531.525.619 1.305 1.023 2.261 1.023a3.14 3.14 0 0 0 1.737-.512 2.51 2.51 0 0 0 1.049-1.683h-1.117c-.094.364-.215.552-.404.741-.282.296-.726.444-1.265.444-.525 0-.942-.175-1.252-.485-.417-.417-.659-1.09-.659-1.709h4.819l.013-.687zm-1.171-.296h-3.634c.026-.996.632-2.005 1.871-2.005.605 0 1.063.242 1.346.619.269.363.417.875.417 1.386zm8.599 4.012v-9.719h-1.145v3.702c-.363-.62-1.238-.97-1.978-.97-.795 0-1.427.27-1.871.687-.687.659-1.037 1.736-1.037 2.907 0 1.131.337 2.168.983 2.827.444.458 1.09.741 1.925.741.767 0 1.642-.377 2.032-1.064l.081.889h1.01zm-1.077-3.406c0 .848-.189 1.669-.754 2.167-.269.242-.606.444-1.104.444-1.521 0-1.925-1.359-1.925-2.611 0-1.252.404-2.611 1.925-2.611.498 0 .835.201 1.104.444.565.498.754 1.319.754 2.167z" fill="#fff"/></g><g clip-path="url(#clip2)"><rect x="250.295" y="107.587" width="71.791" height="23.93" rx="2.991" fill="#11A683"/><path d="M263.035 123.831v-9.719h-1.144v3.702c-.364-.62-1.239-.97-1.979-.97-.794 0-1.427.27-1.871.687-.687.659-1.037 1.736-1.037 2.907 0 1.131.337 2.168.983 2.827.444.458 1.09.741 1.925.741.767 0 1.642-.377 2.033-1.064l.08.889h1.01zm-1.077-3.406c0 .848-.188 1.669-.754 2.167-.269.242-.606.444-1.104.444-1.521 0-1.924-1.359-1.924-2.611 0-1.252.403-2.611 1.924-2.611.498 0 .835.201 1.104.444.566.498.754 1.319.754 2.167zm9.069-.31c.013-.915-.31-1.79-.862-2.396-.498-.538-1.198-.875-2.073-.875-1.184 0-2.086.606-2.571 1.427-.376.633-.525 1.36-.525 2.181 0 .969.283 1.871.849 2.531.524.619 1.305 1.023 2.261 1.023.646 0 1.252-.189 1.736-.512a2.508 2.508 0 0 0 1.05-1.683h-1.117c-.094.364-.215.552-.404.741-.282.296-.727.444-1.265.444-.525 0-.942-.175-1.252-.485-.417-.417-.659-1.09-.659-1.709h4.818l.014-.687zm-1.171-.296h-3.635c.027-.996.633-2.005 1.871-2.005.606 0 1.064.242 1.347.619.269.363.417.875.417 1.386zm5.287 4.012v-.97s-.094.014-.471.014c-.471 0-.619-.242-.619-.7v-8.063h-1.144v8.13c0 1.077.43 1.669 1.426 1.669.552 0 .808-.08.808-.08zm2.975-8.373v-1.346h-1.333v1.346h1.333zm-.081 8.373v-6.812h-1.171v6.812h1.171zm8.325 1.009c0-.565-.215-1.009-.538-1.332-.539-.552-1.441-.714-2.248-.714h-1.346c-.431 0-1.023-.081-1.023-.673 0-.323.323-.525.578-.606.431.148.687.189 1.145.189.901 0 1.588-.323 2.032-.808.377-.417.619-.983.619-1.629 0-.605-.161-1.05-.444-1.413.067-.377.39-.619.835-.619.094 0 .188 0 .255.013v-.929a2.907 2.907 0 0 0-.336-.027c-.646 0-1.171.35-1.4.956-.417-.256-.915-.404-1.561-.404-.902 0-1.548.283-2.02.768-.39.403-.646.915-.646 1.655 0 .646.283 1.319.781 1.764-.512.242-.902.713-.902 1.319 0 .525.337.969.794 1.144-.538.269-.969.794-.969 1.508 0 .538.202.928.485 1.211.659.66 1.682.794 2.584.794.956 0 2.087-.148 2.746-.794a1.91 1.91 0 0 0 .579-1.373zm-1.898-5.573c0 .862-.619 1.521-1.548 1.521-.969 0-1.548-.659-1.548-1.521 0-.861.619-1.494 1.548-1.494.969 0 1.548.633 1.548 1.494zm.781 5.573a.953.953 0 0 1-.283.7c-.431.431-1.279.485-1.857.485-.593 0-1.373-.027-1.818-.471a.962.962 0 0 1-.282-.714c0-.525.403-.929.861-1.077h1.575c.821 0 1.804.068 1.804 1.077zm8.077-1.009v-4.483c0-1.575-.821-2.504-2.369-2.504-.768 0-1.589.377-1.992 1.077v-3.809h-1.145v9.719h1.145v-3.164c0-.525.013-1.238.242-1.736.296-.619.821-1.05 1.481-1.05 1.076 0 1.494.606 1.494 1.629v4.321h1.144zm5.856-.095v-.982s-.687.121-1.171.121c-.633 0-.916-.269-.916-.929v-3.944h2.019v-.983h-2.019v-2.005l-1.144.269v1.736h-1.319v.983h1.319v4.079c0 .915.404 1.844 1.871 1.844.633 0 1.05-.108 1.36-.189zm7.013-3.621c.013-.915-.31-1.79-.862-2.396-.498-.538-1.198-.875-2.073-.875-1.184 0-2.086.606-2.571 1.427-.377.633-.525 1.36-.525 2.181 0 .969.283 1.871.848 2.531.525.619 1.306 1.023 2.262 1.023.646 0 1.252-.189 1.736-.512a2.508 2.508 0 0 0 1.05-1.683h-1.117c-.094.364-.215.552-.404.741-.283.296-.727.444-1.265.444-.525 0-.942-.175-1.252-.485-.417-.417-.66-1.09-.66-1.709h4.819l.014-.687zm-1.171-.296h-3.635c.027-.996.633-2.005 1.871-2.005.606 0 1.064.242 1.346.619.27.363.418.875.418 1.386zm8.598 4.012v-9.719h-1.144v3.702c-.363-.62-1.238-.97-1.979-.97-.794 0-1.426.27-1.871.687-.686.659-1.036 1.736-1.036 2.907 0 1.131.336 2.168.982 2.827.445.458 1.091.741 1.925.741.768 0 1.643-.377 2.033-1.064l.081.889h1.009zm-1.077-3.406c0 .848-.188 1.669-.753 2.167-.27.242-.606.444-1.104.444-1.521 0-1.925-1.359-1.925-2.611 0-1.252.404-2.611 1.925-2.611.498 0 .834.201 1.104.444.565.498.753 1.319.753 2.167z" fill="#fff"/></g><defs><filter id="filter0_b" x="-16" y="-16" width="392" height="210" filterUnits="userSpaceOnUse" color-interpolation-filters="sRGB"><feFlood flood-opacity="0" result="BackgroundImageFix"/><feGaussianBlur in="BackgroundImage" stdDeviation="8"/><feComposite in2="SourceAlpha" operator="in" result="effect1_backgroundBlur"/><feBlend in="SourceGraphic" in2="effect1_backgroundBlur" result="shape"/></filter><filter id="filter1_d" x="86.522" y="38.787" width="67.304" height="19.444" filterUnits="userSpaceOnUse" color-interpolation-filters="sRGB"><feFlood flood-opacity="0" result="BackgroundImageFix"/><feColorMatrix in="SourceAlpha" values="0 0 0 0 0 0 0 0 0 0 0 0 0 0 0 0 0 0 127 0"/><feOffset dy="1.496"/><feColorMatrix values="0 0 0 0 0.0897299 0 0 0 0 0.760289 0 0 0 0 0.602964 0 0 0 1 0"/><feBlend in2="BackgroundImageFix" result="effect1_dropShadow"/><feBlend in="SourceGraphic" in2="effect1_dropShadow" result="shape"/></filter><clipPath id="clip0"><path fill="#fff" d="M124.66 107.587h56.835v23.93H124.66z"/></clipPath><clipPath id="clip1"><path fill="#fff" d="M185.234 107.587h61.322v23.93h-61.322z"/></clipPath><clipPath id="clip2"><path fill="#fff" d="M250.295 107.587h71.791v23.93h-71.791z"/></clipPath></defs></svg>