<svg width="360" height="178" viewBox="0 0 360 178" fill="none" xmlns="http://www.w3.org/2000/svg"><g filter="url(#filter0_b)"><path fill="#fff" d="M0 0h360v178H0z"/></g><path d="M288.58 13.245c0-1.008-.711-1.656-1.773-1.809-.351-.054-.702-.117-1.062-.162-.477-.063-.954-.324-.954-.9 0-.288.099-.504.261-.693.279-.315.675-.441 1.134-.441.495 0 .882.162 1.125.441.18.207.297.486.315.801h.837a1.917 1.917 0 0 0-.612-1.368c-.423-.405-1.035-.612-1.656-.612-.666 0-1.233.216-1.674.63a1.76 1.76 0 0 0-.558 1.26c0 1.017.747 1.548 1.701 1.692l1.008.153c.756.117 1.071.531 1.071 1.026a.94.94 0 0 1-.324.747c-.288.27-.702.369-1.188.369-.45 0-.936-.117-1.224-.396-.261-.252-.45-.63-.45-1.008h-.837c0 .603.279 1.152.684 1.53.432.396 1.053.612 1.827.612.684 0 1.368-.207 1.809-.639.315-.306.54-.702.54-1.233zM295.001 15l-2.259-6.381h-.936L289.556 15h.81l.513-1.512h2.772l.522 1.512h.828zm-1.611-2.268h-2.259l1.125-3.312 1.134 3.312zM302.594 15V8.619h-1.125l-1.917 5.193-1.926-5.193h-1.152V15h.765V9.573l1.98 5.337h.63l1.98-5.292V15h.765zm6.772-4.455c0-.558-.18-1.017-.486-1.35-.342-.369-.873-.576-1.62-.576h-2.367V15h.801v-2.475h1.575c.702 0 1.224-.189 1.566-.531.342-.342.531-.828.531-1.449zm-.828 0c0 .855-.432 1.251-1.287 1.251h-1.557V9.348h1.548c.792 0 1.296.387 1.296 1.197zM314.906 15v-.747h-3.069V8.619h-.801V15h3.87zm5.791 0v-.738h-3.465v-2.205h3.042v-.756h-3.042V9.357h3.465v-.738h-4.266V15h4.266zm5.252 0V8.619h-.819V15h.819zm6.666-1.755c0-1.008-.711-1.656-1.773-1.809-.351-.054-.702-.117-1.062-.162-.477-.063-.954-.324-.954-.9 0-.288.099-.504.261-.693.279-.315.675-.441 1.134-.441.495 0 .882.162 1.125.441.18.207.297.486.315.801h.837a1.917 1.917 0 0 0-.612-1.368c-.423-.405-1.035-.612-1.656-.612-.666 0-1.233.216-1.674.63a1.76 1.76 0 0 0-.558 1.26c0 1.017.747 1.548 1.701 1.692l1.008.153c.756.117 1.071.531 1.071 1.026a.94.94 0 0 1-.324.747c-.288.27-.702.369-1.188.369-.45 0-.936-.117-1.224-.396-.261-.252-.45-.63-.45-1.008h-.837c0 .603.279 1.152.684 1.53.432.396 1.053.612 1.827.612.684 0 1.368-.207 1.809-.639.315-.306.54-.702.54-1.233zm6.213 0c0-1.008-.711-1.656-1.773-1.809-.351-.054-.702-.117-1.062-.162-.477-.063-.954-.324-.954-.9 0-.288.099-.504.261-.693.279-.315.675-.441 1.134-.441.495 0 .882.162 1.125.441.18.207.297.486.315.801h.837a1.917 1.917 0 0 0-.612-1.368c-.423-.405-1.035-.612-1.656-.612-.666 0-1.233.216-1.674.63a1.76 1.76 0 0 0-.558 1.26c0 1.017.747 1.548 1.701 1.692l1.008.153c.756.117 1.071.531 1.071 1.026a.94.94 0 0 1-.324.747c-.288.27-.702.369-1.188.369-.45 0-.936-.117-1.224-.396-.261-.252-.45-.63-.45-1.008h-.837c0 .603.279 1.152.684 1.53.432.396 1.053.612 1.827.612.684 0 1.368-.207 1.809-.639.315-.306.54-.702.54-1.233zm6.329-.585V8.619h-.801v4.059c0 1.017-.423 1.692-1.53 1.692s-1.53-.675-1.53-1.692V8.619h-.801v4.041c0 1.593.9 2.457 2.331 2.457s2.331-.864 2.331-2.457zm6.384 2.34v-.738h-3.465v-2.205h3.042v-.756h-3.042V9.357h3.465v-.738h-4.266V15h4.266z" fill="#9FA6BF"/><path d="M18.058 52v-9.954h-1.277V52h1.277zm9.624-.098v-1.025s-.716.126-1.222.126c-.66 0-.954-.28-.954-.968V45.92h2.105v-1.025h-2.105v-2.092l-1.194.281v1.811h-1.376v1.025h1.376v4.254c0 .955.421 1.923 1.952 1.923a5.14 5.14 0 0 0 1.418-.196zm7.465.098v-4.675c0-1.643-.856-2.611-2.47-2.611-.8 0-1.657.393-2.078 1.123v-3.973h-1.194V52H30.6v-3.3c0-.547.014-1.29.252-1.81.31-.646.857-1.095 1.544-1.095 1.124 0 1.559.631 1.559 1.698V52h1.193zm3.804-8.732v-1.404h-1.39v1.404h1.39zM38.866 52v-7.104h-1.221V52h1.221zm8.36 0v-4.675c0-1.643-.843-2.611-2.457-2.611-.8 0-1.783.435-2.148 1.25l-.098-1.068h-1.04V52h1.194v-3.3c0-.547.014-1.29.253-1.81.309-.646.856-1.095 1.544-1.095 1.123 0 1.559.631 1.559 1.698V52h1.193zm8.591 0l-2.794-4.296 2.527-2.808h-1.445l-3.215 3.58v-6.612h-1.194V52h1.194v-1.91l1.361-1.516L54.47 52h1.348zm13.694-7.104h-1.165L66.97 50.26l-1.783-5.279h-1.025l-1.811 5.28-1.362-5.364h-1.18L61.636 52h1.137l1.895-5.433L66.52 52h1.152l1.839-7.104zm7.493 3.23c.014-.956-.323-1.868-.899-2.5-.52-.561-1.25-.912-2.162-.912-1.235 0-2.176.631-2.681 1.488-.393.66-.548 1.418-.548 2.274 0 1.011.295 1.952.885 2.64.547.645 1.362 1.066 2.358 1.066a3.27 3.27 0 0 0 1.811-.533 2.616 2.616 0 0 0 1.096-1.755h-1.166c-.098.38-.224.576-.421.772-.295.31-.758.464-1.32.464-.547 0-.982-.183-1.305-.506-.436-.435-.688-1.137-.688-1.783h5.026l.014-.716zm-1.222-.31h-3.79c.028-1.039.66-2.092 1.951-2.092.632 0 1.11.253 1.404.646.281.38.435.913.435 1.446zm11.727 2.12c0-1.067-.8-1.797-1.811-1.965-.758-.127-1.32-.183-1.713-.239-.59-.084-.955-.337-.955-.926 0-.394.267-.773.716-.955.337-.14.548-.14.829-.14.477 0 .87.112 1.165.379.21.182.393.519.407.884h1.193c0-.576-.196-.983-.505-1.362-.478-.604-1.32-.898-2.26-.898-.885 0-1.63.309-2.092.786-.323.323-.59.842-.59 1.39 0 1.08.674 1.74 1.74 1.91l1.601.21c.73.098 1.11.477 1.11 1.01 0 .323-.155.618-.352.773-.365.309-.814.393-1.305.393-.45 0-.955-.084-1.278-.323a1.385 1.385 0 0 1-.575-1.11H81.64c0 .604.253 1.208.688 1.63.604.589 1.418.8 2.303.8.926 0 1.769-.24 2.316-.8.337-.352.562-.829.562-1.447zM95.307 52v-4.675c0-1.643-.856-2.611-2.47-2.611-.801 0-1.657.393-2.079 1.123v-3.973h-1.193V52h1.194v-3.3c0-.547.013-1.29.252-1.81.309-.646.857-1.095 1.544-1.095 1.124 0 1.559.631 1.559 1.698V52h1.193zm8.268-3.552c0-1.123-.239-2.148-1.011-2.906-.519-.505-1.249-.828-2.148-.828-.898 0-1.628.323-2.148.828-.772.758-1.01 1.783-1.01 2.906 0 1.123.238 2.148 1.01 2.906.52.506 1.25.828 2.148.828.899 0 1.629-.322 2.148-.828.772-.758 1.011-1.783 1.011-2.906zm-1.221 0c0 .828-.155 1.685-.66 2.204-.295.295-.716.506-1.278.506-.561 0-.983-.21-1.277-.506-.506-.52-.66-1.376-.66-2.204 0-.828.154-1.685.66-2.204.294-.295.716-.505 1.277-.505.562 0 .983.21 1.278.505.505.52.66 1.376.66 2.204zM111.193 52v-7.104H110v3.693c0 .73-.141 1.502-.59 1.965-.309.323-.702.533-1.179.533-1.123 0-1.517-.631-1.517-1.698v-4.493h-1.193v4.661c0 1.643.814 2.611 2.429 2.611.828 0 1.741-.435 2.106-1.249l.098 1.081h1.039zm4.9 0v-1.01s-.098.013-.491.013c-.492 0-.646-.252-.646-.73v-8.41h-1.193v8.48c0 1.123.449 1.741 1.488 1.741.575 0 .842-.084.842-.084zm7.471 0V41.864h-1.194v3.86c-.379-.645-1.291-1.01-2.063-1.01-.829 0-1.489.28-1.952.716-.716.688-1.081 1.81-1.081 3.032 0 1.18.351 2.26 1.025 2.948.463.478 1.137.773 2.008.773.8 0 1.712-.394 2.12-1.11l.084.927h1.053zm-1.123-3.552c0 .885-.197 1.74-.787 2.26-.28.253-.631.464-1.151.464-1.586 0-2.007-1.418-2.007-2.724 0-1.306.421-2.724 2.007-2.724.52 0 .871.211 1.151.464.59.52.787 1.376.787 2.26zm13.255.014c0-1.221-.365-2.344-1.081-3.032-.463-.435-1.123-.716-1.951-.716-.772 0-1.685.365-2.064 1.01v-3.86h-1.193V52h1.053l.084-.927c.407.716 1.32 1.11 2.12 1.11.87 0 1.544-.295 2.007-.773.674-.688 1.025-1.769 1.025-2.948zm-1.221-.014c0 1.306-.421 2.724-2.008 2.724-.519 0-.87-.21-1.151-.464-.59-.52-.786-1.375-.786-2.26 0-.884.196-1.74.786-2.26.281-.253.632-.464 1.151-.464 1.587 0 2.008 1.419 2.008 2.724zm9.009-.323c.014-.955-.323-1.867-.898-2.499-.52-.561-1.25-.912-2.162-.912-1.236 0-2.176.631-2.682 1.488-.393.66-.547 1.418-.547 2.274 0 1.011.294 1.952.884 2.64.548.645 1.362 1.066 2.359 1.066.674 0 1.305-.196 1.811-.533a2.62 2.62 0 0 0 1.095-1.755h-1.165c-.099.38-.225.576-.422.772-.294.31-.758.464-1.319.464-.548 0-.983-.183-1.306-.506-.435-.435-.688-1.137-.688-1.783h5.026l.014-.716zm-1.221-.309h-3.791c.028-1.039.66-2.092 1.952-2.092.631 0 1.109.253 1.404.646.28.38.435.913.435 1.446zm12.414 4.114v-.885s-.183.042-.309.042c-.239 0-.393-.098-.393-.477v-3.44c0-.407-.07-.772-.211-1.095-.337-.772-1.123-1.361-2.499-1.361-.87 0-1.712.252-2.19.758a2.103 2.103 0 0 0-.617 1.488h1.165c0-.351.126-.632.351-.856.238-.24.646-.422 1.291-.422.576 0 .927.14 1.166.365.323.295.365.73.365 1.081v.52l-2.162.126c-1.938.112-2.527 1.306-2.527 2.218 0 1.096.814 2.19 2.442 2.19.997 0 1.882-.449 2.289-1.165h.028c0 .604.393 1.081 1.025 1.081.294 0 .533-.042.786-.168zm-1.881-2.934c0 .59-.183 1.179-.604 1.614-.379.393-.913.576-1.46.576-1.011 0-1.404-.59-1.404-1.222 0-.898.842-1.235 1.558-1.277l1.91-.113v.422zm10.06-.534c0-1.221-.365-2.344-1.081-3.032-.463-.435-1.123-.716-1.951-.716-.773 0-1.685.365-2.064 1.01v-3.86h-1.194V52h1.053l.085-.927c.407.716 1.319 1.11 2.12 1.11.87 0 1.544-.295 2.007-.773.674-.688 1.025-1.769 1.025-2.948zm-1.221-.014c0 1.306-.422 2.724-2.008 2.724-.519 0-.87-.21-1.151-.464-.59-.52-.786-1.375-.786-2.26 0-.884.196-1.74.786-2.26.281-.253.632-.464 1.151-.464 1.586 0 2.008 1.419 2.008 2.724zM167.204 52v-1.01s-.098.013-.491.013c-.491 0-.646-.252-.646-.73v-8.41h-1.193v8.48c0 1.123.449 1.741 1.488 1.741.576 0 .842-.084.842-.084zm7.457-3.875c.014-.955-.323-1.867-.899-2.499-.519-.561-1.249-.912-2.162-.912-1.235 0-2.176.631-2.681 1.488-.393.66-.548 1.418-.548 2.274 0 1.011.295 1.952.885 2.64.547.645 1.362 1.066 2.358 1.066a3.27 3.27 0 0 0 1.811-.533 2.618 2.618 0 0 0 1.096-1.755h-1.166c-.098.38-.224.576-.421.772-.295.31-.758.464-1.32.464-.547 0-.982-.183-1.305-.506-.435-.435-.688-1.137-.688-1.783h5.026l.014-.716zm-1.221-.309h-3.791c.028-1.039.66-2.092 1.951-2.092.632 0 1.109.253 1.404.646.281.38.436.913.436 1.446zm10.139 4.086v-1.025s-.716.126-1.221.126c-.66 0-.955-.28-.955-.968V45.92h2.106v-1.025h-2.106v-2.092l-1.193.281v1.811h-1.376v1.025h1.376v4.254c0 .955.421 1.923 1.951 1.923a5.14 5.14 0 0 0 1.418-.196zm7.357-3.454c0-1.123-.239-2.148-1.011-2.906-.519-.505-1.249-.828-2.148-.828-.898 0-1.629.323-2.148.828-.772.758-1.011 1.783-1.011 2.906 0 1.123.239 2.148 1.011 2.906.519.506 1.25.828 2.148.828.899 0 1.629-.322 2.148-.828.772-.758 1.011-1.783 1.011-2.906zm-1.222 0c0 .828-.154 1.685-.659 2.204-.295.295-.716.506-1.278.506s-.983-.21-1.278-.506c-.505-.52-.659-1.376-.659-2.204 0-.828.154-1.685.659-2.204.295-.295.716-.505 1.278-.505s.983.21 1.278.505c.505.52.659 1.376.659 2.204zm11.78 1.488c0-1.067-.8-1.797-1.811-1.965-.758-.127-1.319-.183-1.712-.239-.59-.084-.955-.337-.955-.926 0-.394.267-.773.716-.955.337-.14.548-.14.828-.14.478 0 .871.112 1.166.379.21.182.393.519.407.884h1.193c0-.576-.197-.983-.505-1.362-.478-.604-1.32-.898-2.261-.898-.884 0-1.628.309-2.092.786-.322.323-.589.842-.589 1.39 0 1.08.674 1.74 1.741 1.91l1.6.21c.73.098 1.109.477 1.109 1.01 0 .323-.154.618-.351.773-.365.309-.814.393-1.305.393-.45 0-.955-.084-1.278-.323a1.385 1.385 0 0 1-.576-1.11h-1.193c0 .604.253 1.208.688 1.63.604.589 1.418.8 2.302.8.927 0 1.769-.24 2.317-.8.337-.352.561-.829.561-1.447zm7.827-1.488c0-1.123-.239-2.148-1.011-2.906-.519-.505-1.249-.828-2.148-.828-.898 0-1.628.323-2.148.828-.772.758-1.011 1.783-1.011 2.906 0 1.123.239 2.148 1.011 2.906.52.506 1.25.828 2.148.828.899 0 1.629-.322 2.148-.828.772-.758 1.011-1.783 1.011-2.906zm-1.221 0c0 .828-.155 1.685-.66 2.204-.295.295-.716.506-1.278.506-.561 0-.982-.21-1.277-.506-.506-.52-.66-1.376-.66-2.204 0-.828.154-1.685.66-2.204.295-.295.716-.505 1.277-.505.562 0 .983.21 1.278.505.505.52.66 1.376.66 2.204zM213.668 52v-1.01s-.098.013-.492.013c-.491 0-.645-.252-.645-.73v-8.41h-1.194v8.48c0 1.123.45 1.741 1.488 1.741.576 0 .843-.084.843-.084zm7.146-7.104h-1.207l-1.98 5.7-2.05-5.7h-1.249L216.953 52h1.292l2.569-7.104zm7.138 3.23c.014-.956-.323-1.868-.898-2.5-.52-.561-1.25-.912-2.162-.912-1.236 0-2.176.631-2.682 1.488-.393.66-.547 1.418-.547 2.274 0 1.011.294 1.952.884 2.64.548.645 1.362 1.066 2.359 1.066.674 0 1.305-.196 1.811-.533a2.62 2.62 0 0 0 1.095-1.755h-1.166c-.098.38-.224.576-.421.772-.295.31-.758.464-1.319.464-.548 0-.983-.183-1.306-.506-.435-.435-.688-1.137-.688-1.783h5.026l.014-.716zm-1.221-.31h-3.791c.028-1.039.66-2.092 1.952-2.092.631 0 1.109.253 1.403.646.281.38.436.913.436 1.446zm10.139 4.086v-1.025s-.716.126-1.221.126c-.66 0-.955-.28-.955-.968V45.92h2.106v-1.025h-2.106v-2.092l-1.193.281v1.811h-1.376v1.025h1.376v4.254c0 .955.421 1.923 1.952 1.923a5.13 5.13 0 0 0 1.417-.196zm7.466.098v-4.675c0-1.643-.856-2.611-2.471-2.611-.8 0-1.656.393-2.078 1.123v-3.973h-1.193V52h1.193v-3.3c0-.547.014-1.29.253-1.81.309-.646.856-1.095 1.544-1.095 1.123 0 1.559.631 1.559 1.698V52h1.193zm3.803-8.732v-1.404h-1.389v1.404h1.389zM248.055 52v-7.104h-1.221V52h1.221zm7.882-2.064c0-1.067-.8-1.797-1.811-1.965-.758-.127-1.319-.183-1.713-.239-.589-.084-.954-.337-.954-.926 0-.394.267-.773.716-.955.337-.14.547-.14.828-.14.477 0 .871.112 1.165.379.211.182.393.519.407.884h1.194c0-.576-.197-.983-.506-1.362-.477-.604-1.319-.898-2.26-.898-.884 0-1.628.309-2.092.786-.323.323-.589.842-.589 1.39 0 1.08.674 1.74 1.74 1.91l1.601.21c.73.098 1.109.477 1.109 1.01 0 .323-.154.618-.351.773-.365.309-.814.393-1.306.393-.449 0-.954-.084-1.277-.323a1.385 1.385 0 0 1-.576-1.11h-1.193c0 .604.253 1.208.688 1.63.604.589 1.418.8 2.302.8.927 0 1.769-.24 2.317-.8.337-.352.561-.829.561-1.447zm6.598-6.668v-1.404h-1.39v1.404h1.39zM262.451 52v-7.104h-1.222V52h1.222zm7.882-2.064c0-1.067-.8-1.797-1.811-1.965-.758-.127-1.32-.183-1.713-.239-.59-.084-.955-.337-.955-.926 0-.394.267-.773.716-.955.337-.14.548-.14.829-.14.477 0 .87.112 1.165.379.211.182.393.519.407.884h1.193c0-.576-.196-.983-.505-1.362-.477-.604-1.32-.898-2.26-.898-.885 0-1.629.309-2.092.786-.323.323-.59.842-.59 1.39 0 1.08.674 1.74 1.741 1.91l1.601.21c.73.098 1.109.477 1.109 1.01 0 .323-.155.618-.351.773-.365.309-.815.393-1.306.393-.449 0-.955-.084-1.278-.323a1.387 1.387 0 0 1-.575-1.11h-1.193a2.3 2.3 0 0 0 .687 1.63c.604.589 1.418.8 2.303.8.926 0 1.769-.24 2.316-.8.337-.352.562-.829.562-1.447zm7.321 0c0-1.067-.8-1.797-1.811-1.965-.758-.127-1.32-.183-1.713-.239-.589-.084-.954-.337-.954-.926 0-.394.266-.773.716-.955.337-.14.547-.14.828-.14.477 0 .87.112 1.165.379.211.182.393.519.407.884h1.194c0-.576-.197-.983-.506-1.362-.477-.604-1.319-.898-2.26-.898-.885 0-1.629.309-2.092.786-.323.323-.59.842-.59 1.39 0 1.08.674 1.74 1.741 1.91l1.601.21c.73.098 1.109.477 1.109 1.01 0 .323-.155.618-.351.773-.365.309-.814.393-1.306.393-.449 0-.954-.084-1.277-.323a1.385 1.385 0 0 1-.576-1.11h-1.193c0 .604.252 1.208.688 1.63.603.589 1.418.8 2.302.8.927 0 1.769-.24 2.317-.8.336-.352.561-.829.561-1.447zM285.27 52v-7.104h-1.193v3.693c0 .73-.141 1.502-.59 1.965-.309.323-.702.533-1.179.533-1.123 0-1.516-.631-1.516-1.698v-4.493h-1.194v4.661c0 1.643.815 2.611 2.429 2.611.828 0 1.741-.435 2.106-1.249l.098 1.081h1.039zm8.34-3.875c.014-.955-.323-1.867-.899-2.499-.519-.561-1.249-.912-2.162-.912-1.235 0-2.176.631-2.681 1.488-.393.66-.548 1.418-.548 2.274 0 1.011.295 1.952.885 2.64.547.645 1.362 1.066 2.358 1.066a3.27 3.27 0 0 0 1.811-.533 2.613 2.613 0 0 0 1.095-1.755h-1.165c-.098.38-.224.576-.421.772-.295.31-.758.464-1.32.464-.547 0-.982-.183-1.305-.506-.436-.435-.688-1.137-.688-1.783h5.026l.014-.716zm-1.222-.309h-3.79c.028-1.039.66-2.092 1.951-2.092.632 0 1.109.253 1.404.646.281.38.435.913.435 1.446zm10.224-4.97v-.996a7.382 7.382 0 0 0-1.319-.127c-1.236 0-2.064.843-2.064 1.91v1.263h-1.292v1.011h1.292V52h1.193v-6.093h2.05v-1.01h-2.05v-1.194c0-.576.379-.969 1.011-.969.506 0 .8.07 1.179.112zm6.944 5.602c0-1.123-.239-2.148-1.011-2.906-.52-.505-1.25-.828-2.148-.828-.899 0-1.629.323-2.148.828-.772.758-1.011 1.783-1.011 2.906 0 1.123.239 2.148 1.011 2.906.519.506 1.249.828 2.148.828.898 0 1.628-.322 2.148-.828.772-.758 1.011-1.783 1.011-2.906zm-1.222 0c0 .828-.154 1.685-.66 2.204-.294.295-.716.506-1.277.506-.562 0-.983-.21-1.278-.506-.505-.52-.66-1.376-.66-2.204 0-.828.155-1.685.66-2.204.295-.295.716-.505 1.278-.505.561 0 .983.21 1.277.505.506.52.66 1.376.66 2.204zm7.113-2.387v-1.165a3.783 3.783 0 0 0-.562-.042c-.898 0-1.755.421-2.12 1.292l-.098-1.25h-1.053V52h1.179v-3.159c0-.744.071-1.727.646-2.274a1.951 1.951 0 0 1 1.348-.562c.21 0 .449.014.66.056zm10.336-1.165h-1.249l-1.994 5.602-2.092-5.602h-1.347L321.936 52l-.449 1.193c-.196.534-.561.716-1.067.716-.463 0-.842-.112-.842-.112v1.039c.098.028.491.14 1.081.14 1.067 0 1.586-.603 1.923-1.516l3.201-8.564zm7.011 3.552c0-1.123-.238-2.148-1.011-2.906-.519-.505-1.249-.828-2.148-.828-.898 0-1.628.323-2.148.828-.772.758-1.01 1.783-1.01 2.906 0 1.123.238 2.148 1.01 2.906.52.506 1.25.828 2.148.828.899 0 1.629-.322 2.148-.828.773-.758 1.011-1.783 1.011-2.906zm-1.221 0c0 .828-.155 1.685-.66 2.204-.295.295-.716.506-1.278.506-.561 0-.982-.21-1.277-.506-.505-.52-.66-1.376-.66-2.204 0-.828.155-1.685.66-2.204.295-.295.716-.505 1.277-.505.562 0 .983.21 1.278.505.505.52.66 1.376.66 2.204zM340.412 52v-7.104h-1.193v3.693c0 .73-.141 1.502-.59 1.965-.309.323-.702.533-1.179.533-1.123 0-1.516-.631-1.516-1.698v-4.493h-1.194v4.661c0 1.643.815 2.611 2.429 2.611.828 0 1.741-.435 2.106-1.249l.098 1.081h1.039zm4.198 0v-1.67h-1.656V52h1.656z" fill="#1C1E29"/><g style="mix-blend-mode:multiply" filter="url(#filter1_d)"><path fill-rule="evenodd" clip-rule="evenodd" d="M15.261 38H191.53v18.719H15.261V38z" fill="#F2DFFF"/></g><path fill-rule="evenodd" clip-rule="evenodd" d="M51.14 78.558a6.24 6.24 0 0 1 6.239-6.24h246.465a6.24 6.24 0 0 1 6.239 6.24v69.416a6.239 6.239 0 0 1-6.239 6.239H57.379a6.24 6.24 0 0 1-6.24-6.239V78.558z" fill="#fff" stroke="#E4E6F2" stroke-width=".78" stroke-linecap="square"/><path d="M80.477 91.305c0-.716-.092-1.46-.64-1.98a1.871 1.871 0 0 0-1.305-.505h-1.734v4.977h1.734c.485 0 .955-.161 1.306-.498.54-.52.639-1.278.639-1.994zm-.632 0c0 .534-.035 1.172-.428 1.573a1.253 1.253 0 0 1-.885.344h-1.109v-3.826h1.11c.322 0 .652.112.884.344.393.407.428 1.032.428 1.565zm5.655 2.492v-.575h-2.702v-1.72h2.372v-.59h-2.372v-1.516H85.5v-.576h-3.327v4.977H85.5zm4.703 0v-.582h-2.394V88.82h-.625v4.977h3.019zm2.062 0V88.82h-.639v4.977h.64zm5.362-4.977h-.638l-1.348 4.205-1.376-4.205h-.646l1.678 4.977h.653l1.677-4.977zm4.682 4.977v-.575h-2.702v-1.72h2.372v-.59h-2.372v-1.516h2.702v-.576h-3.327v4.977h3.327zm5.313 0l-.996-2.19c.238-.077.449-.197.596-.351.239-.253.379-.547.379-.983 0-.435-.154-.758-.393-1.01-.273-.281-.681-.443-1.263-.443h-1.952v4.977h.625v-2.07h1.376l.941 2.07h.687zm-.666-3.524c0 .632-.422.87-1.011.87h-1.327v-1.747h1.327c.589 0 1.011.245 1.011.877zm5.443-1.453h-.667l-1.298 2.366-1.306-2.366h-.702l1.671 2.956v2.021h.631v-2.022l1.671-2.955zm1.896 2.204v-.779h-.772v.78h.772zm0 2.78v-.772h-.772v.772h.772zm7.192-1.593h-.646a1.137 1.137 0 0 1-.274.716 1.229 1.229 0 0 1-.905.379c-.337 0-.667-.134-.906-.38-.407-.42-.421-1.094-.421-1.614s.014-1.193.421-1.614c.239-.246.569-.38.906-.38.379 0 .702.148.898.366.162.182.267.42.274.695h.646a1.701 1.701 0 0 0-.491-1.138c-.302-.301-.787-.512-1.327-.512-.498 0-.99.183-1.348.534-.54.526-.625 1.256-.625 2.05 0 .792.085 1.522.625 2.049.358.35.85.533 1.348.533a1.93 1.93 0 0 0 1.334-.533c.287-.295.47-.688.491-1.151zm5.234-.899c0-.793-.098-1.523-.638-2.05a1.908 1.908 0 0 0-1.341-.533c-.499 0-.983.183-1.341.534-.54.526-.639 1.256-.639 2.05 0 .792.099 1.522.639 2.049.358.35.842.533 1.341.533.498 0 .983-.182 1.341-.533.54-.527.638-1.257.638-2.05zm-.645 0c0 .52-.021 1.194-.429 1.615a1.254 1.254 0 0 1-.905.372c-.337 0-.667-.127-.906-.372-.407-.422-.428-1.095-.428-1.615s.021-1.193.428-1.614c.239-.246.569-.372.906-.372.337 0 .667.126.905.372.408.42.429 1.095.429 1.614zm6.091 2.485V88.82h-.603v4.015l-2.443-4.015h-.702v4.977h.603v-4.001l2.443 4.001h.702zm5.253-4.401v-.576h-3.222v4.977h.624v-2.19h2.317v-.59h-2.317v-1.621h2.598zm2.16 4.401V88.82h-.638v4.977h.638zm5.707-2.492c0-.716-.092-1.46-.639-1.98a1.871 1.871 0 0 0-1.306-.505h-1.734v4.977h1.734c.485 0 .955-.161 1.306-.498.54-.52.639-1.278.639-1.994zm-.632 0c0 .534-.035 1.172-.428 1.573a1.254 1.254 0 0 1-.885.344h-1.109v-3.826h1.109c.323 0 .653.112.885.344.393.407.428 1.032.428 1.565zm5.655 2.492v-.575h-2.702v-1.72h2.372v-.59h-2.372v-1.516h2.702v-.576h-3.327v4.977h3.327zm5.433 0V88.82h-.604v4.015l-2.443-4.015h-.702v4.977h.604v-4.001l2.443 4.001h.702zm5.498-1.586h-.646a1.137 1.137 0 0 1-.274.716 1.229 1.229 0 0 1-.905.379c-.337 0-.667-.134-.906-.38-.407-.42-.421-1.094-.421-1.614s.014-1.193.421-1.614c.239-.246.569-.38.906-.38.379 0 .702.148.898.366.162.182.267.42.274.695h.646a1.698 1.698 0 0 0-.492-1.138c-.302-.301-.786-.512-1.326-.512-.499 0-.99.183-1.348.534-.541.526-.625 1.256-.625 2.05 0 .792.084 1.522.625 2.049.358.35.849.533 1.348.533.54 0 1.031-.231 1.333-.533.288-.295.471-.688.492-1.151zm4.932 1.586v-.575h-2.702v-1.72h2.372v-.59h-2.372v-1.516h2.702v-.576h-3.327v4.977h3.327z" fill="#8189A9"/><path fill-rule="evenodd" clip-rule="evenodd" d="M64.007 92.597a1.95 1.95 0 1 0 0-3.9 1.95 1.95 0 0 0 0 3.9z" fill="#8F4EBF"/><g clip-path="url(#clip0)"><rect x="206.35" y="109.756" width="59.276" height="24.959" rx="3.12" fill="#11A683"/><path d="M224.241 116.142h-1.137l-1.586 8.1-2.303-7.96h-1.123l-2.302 7.974-1.587-8.114h-1.165l1.994 9.953h1.319l2.303-8.016 2.274 8.016h1.334l1.979-9.953zm7.282 6.079c.014-.955-.323-1.868-.899-2.499-.519-.562-1.249-.913-2.162-.913-1.235 0-2.176.632-2.681 1.488-.393.66-.548 1.418-.548 2.275 0 1.01.295 1.951.885 2.639.547.646 1.362 1.067 2.358 1.067.674 0 1.306-.197 1.812-.534a2.618 2.618 0 0 0 1.095-1.754h-1.166c-.098.379-.224.575-.421.772-.295.309-.758.463-1.32.463-.547 0-.982-.182-1.305-.505-.435-.436-.688-1.138-.688-1.783h5.026l.014-.716zm-1.221-.309h-3.791c.028-1.039.66-2.092 1.951-2.092.632 0 1.11.253 1.404.646.281.379.436.912.436 1.446zm11.978 1.797h-1.207c-.056.463-.225.786-.477 1.053-.281.295-.716.477-1.208.477-.547 0-.926-.196-1.235-.463-.562-.478-.716-1.362-.716-2.232 0-.871.154-1.755.716-2.233a1.797 1.797 0 0 1 1.235-.463c.464 0 .871.169 1.152.435.266.267.449.618.505 1.109h1.207a2.726 2.726 0 0 0-.842-1.825c-.491-.477-1.179-.758-2.022-.758-1.277 0-2.077.59-2.583 1.334-.379.561-.589 1.334-.589 2.401 0 1.067.21 1.839.589 2.4.506.744 1.32 1.334 2.597 1.334.871 0 1.545-.281 2.05-.772.477-.463.772-1.039.828-1.797zm7.908 2.316v-.884s-.183.042-.309.042c-.239 0-.393-.098-.393-.477v-3.44c0-.407-.07-.772-.211-1.095-.337-.772-1.123-1.362-2.499-1.362-.87 0-1.713.253-2.19.758a2.105 2.105 0 0 0-.618 1.488h1.166c0-.351.126-.631.351-.856.238-.239.645-.421 1.291-.421.576 0 .927.14 1.165.365.323.295.365.73.365 1.081v.519l-2.162.127c-1.937.112-2.527 1.305-2.527 2.218 0 1.095.815 2.19 2.443 2.19.997 0 1.881-.449 2.289-1.165h.028c0 .603.393 1.081 1.025 1.081.294 0 .533-.042.786-.169zm-1.882-2.934c0 .59-.182 1.179-.603 1.615-.379.393-.913.575-1.46.575-1.011 0-1.404-.589-1.404-1.221 0-.899.842-1.236 1.558-1.278l1.909-.112v.421zm9.513 3.004v-4.675c0-1.642-.842-2.611-2.457-2.611-.8 0-1.783.435-2.148 1.25l-.098-1.067h-1.039v7.103h1.194v-3.299c0-.547.014-1.291.252-1.811.309-.646.857-1.095 1.545-1.095 1.123 0 1.558.632 1.558 1.699v4.506h1.193z" fill="#fff"/><path d="M78.778 126.095v-9.953h-1.277v9.953h1.277zm9.624-.098v-1.025s-.716.127-1.222.127c-.66 0-.954-.281-.954-.969v-4.113h2.106v-1.025h-2.106V116.9l-1.194.281v1.811h-1.376v1.025h1.376v4.253c0 .955.422 1.924 1.952 1.924.66 0 1.095-.113 1.418-.197zm7.465.098v-4.675c0-1.642-.856-2.611-2.47-2.611-.8 0-1.657.393-2.078 1.123v-3.973h-1.194v10.136h1.194v-3.299c0-.547.014-1.291.252-1.811.31-.646.857-1.095 1.545-1.095 1.123 0 1.558.632 1.558 1.699v4.506h1.193zm3.804-8.732v-1.404h-1.39v1.404h1.39zm-.085 8.732v-7.103h-1.22v7.103h1.22zm8.36 0v-4.675c0-1.642-.842-2.611-2.457-2.611-.8 0-1.783.435-2.148 1.25l-.098-1.067h-1.039v7.103h1.193v-3.299c0-.547.014-1.291.253-1.811.309-.646.856-1.095 1.544-1.095 1.123 0 1.559.632 1.559 1.699v4.506h1.193zm8.591 0l-2.793-4.296 2.527-2.807h-1.446l-3.215 3.58v-6.613h-1.194v10.136h1.194v-1.909l1.361-1.516 2.219 3.425h1.347zm13.68 0v-1.614h-1.615v1.614h1.615zm-3.777 0v-1.614h-1.6v1.614h1.6zm-3.762 0v-1.614h-1.601v1.614h1.601zm19.109-.07v-.884s-.182.042-.308.042c-.239 0-.394-.098-.394-.477v-3.44c0-.407-.07-.772-.21-1.095-.337-.772-1.123-1.362-2.499-1.362-.871 0-1.713.253-2.19.758a2.105 2.105 0 0 0-.618 1.488h1.165c0-.351.127-.631.351-.856.239-.239.646-.421 1.292-.421.575 0 .926.14 1.165.365.323.295.365.73.365 1.081v.519l-2.162.127c-1.937.112-2.527 1.305-2.527 2.218 0 1.095.814 2.19 2.443 2.19.997 0 1.881-.449 2.288-1.165h.028c0 .603.393 1.081 1.025 1.081.295 0 .534-.042.786-.169zm-1.881-2.934c0 .59-.182 1.179-.604 1.615-.379.393-.912.575-1.46.575-1.01 0-1.404-.589-1.404-1.221 0-.899.843-1.236 1.559-1.278l1.909-.112v.421zm10.061-.533c0-1.222-.365-2.345-1.081-3.033-.464-.435-1.124-.716-1.952-.716-.772 0-1.685.365-2.064 1.011v-3.861h-1.193v10.136h1.053l.084-.926c.407.716 1.32 1.109 2.12 1.109.87 0 1.544-.295 2.008-.772.674-.688 1.025-1.769 1.025-2.948zm-1.222-.014c0 1.305-.421 2.723-2.007 2.723-.52 0-.871-.21-1.152-.463-.589-.52-.786-1.376-.786-2.26 0-.885.197-1.741.786-2.261.281-.252.632-.463 1.152-.463 1.586 0 2.007 1.418 2.007 2.724zm5.57 3.551v-1.01s-.098.014-.492.014c-.491 0-.645-.253-.645-.73v-8.41h-1.194v8.48c0 1.123.45 1.741 1.488 1.741.576 0 .843-.085.843-.085zm7.456-3.874c.015-.955-.322-1.868-.898-2.499-.519-.562-1.25-.913-2.162-.913-1.236 0-2.176.632-2.682 1.488-.393.66-.547 1.418-.547 2.275 0 1.01.295 1.951.884 2.639.548.646 1.362 1.067 2.359 1.067a3.27 3.27 0 0 0 1.811-.534 2.61 2.61 0 0 0 1.095-1.754h-1.165c-.098.379-.225.575-.421.772-.295.309-.758.463-1.32.463-.548 0-.983-.182-1.306-.505-.435-.436-.688-1.138-.688-1.783h5.026l.014-.716zm-1.221-.309h-3.791c.029-1.039.66-2.092 1.952-2.092.632 0 1.109.253 1.404.646.281.379.435.912.435 1.446zm10.14 4.085v-1.025s-.716.127-1.222.127c-.659 0-.954-.281-.954-.969v-4.113h2.106v-1.025h-2.106V116.9l-1.194.281v1.811h-1.375v1.025h1.375v4.253c0 .955.422 1.924 1.952 1.924.66 0 1.095-.113 1.418-.197zm7.356-3.453c0-1.124-.238-2.148-1.01-2.907-.52-.505-1.25-.828-2.148-.828-.899 0-1.629.323-2.148.828-.773.759-1.011 1.783-1.011 2.907 0 1.123.238 2.148 1.011 2.906.519.505 1.249.828 2.148.828.898 0 1.628-.323 2.148-.828.772-.758 1.01-1.783 1.01-2.906zm-1.221 0c0 .828-.154 1.684-.66 2.204-.295.295-.716.505-1.277.505-.562 0-.983-.21-1.278-.505-.505-.52-.66-1.376-.66-2.204 0-.829.155-1.685.66-2.205.295-.294.716-.505 1.278-.505.561 0 .982.211 1.277.505.506.52.66 1.376.66 2.205z" fill="#1C1E29"/><path fill-rule="evenodd" clip-rule="evenodd" d="M196.819 123.795H186.46a.375.375 0 0 1-.39-.39.375.375 0 0 1 .39-.39h10.359l-3.608-3.632a.325.325 0 0 1-.122-.268c0-.113.041-.203.122-.268a.326.326 0 0 1 .268-.122c.114 0 .203.041.268.122l4.29 4.29a.325.325 0 0 1 .122.268.325.325 0 0 1-.122.268l-4.265 4.29a.386.386 0 0 1-.28.122.389.389 0 0 1-.281-.122.325.325 0 0 1-.122-.268c0-.114.041-.203.122-.268l3.608-3.632z" fill="#9FA6BF"/><path d="M76.097 123.405H179.05" stroke="#EA1537" stroke-width=".78" stroke-linecap="square"/></g><defs><filter id="filter0_b" x="-16" y="-16" width="392" height="210" filterUnits="userSpaceOnUse" color-interpolation-filters="sRGB"><feFlood flood-opacity="0" result="BackgroundImageFix"/><feGaussianBlur in="BackgroundImage" stdDeviation="8"/><feComposite in2="SourceAlpha" operator="in" result="effect1_backgroundBlur"/><feBlend in="SourceGraphic" in2="effect1_backgroundBlur" result="shape"/></filter><filter id="filter1_d" x="15.261" y="38" width="176.269" height="20.279" filterUnits="userSpaceOnUse" color-interpolation-filters="sRGB"><feFlood flood-opacity="0" result="BackgroundImageFix"/><feColorMatrix in="SourceAlpha" values="0 0 0 0 0 0 0 0 0 0 0 0 0 0 0 0 0 0 127 0"/><feOffset dy="1.56"/><feColorMatrix values="0 0 0 0 0.560747 0 0 0 0 0.299609 0 0 0 0 0.749529 0 0 0 1 0"/><feBlend in2="BackgroundImageFix" result="effect1_dropShadow"/><feBlend in="SourceGraphic" in2="effect1_dropShadow" result="shape"/></filter><clipPath id="clip0"><path fill="#fff" d="M76.096 109.756h189.529v24.959H76.096z"/></clipPath></defs></svg>