<svg width="360" height="178" viewBox="0 0 360 178" fill="none" xmlns="http://www.w3.org/2000/svg"><g filter="url(#filter0_b)"><path fill="#fff" d="M0 0h360v178H0z"/></g><path d="M288.58 13.245c0-1.008-.711-1.656-1.773-1.809-.351-.054-.702-.117-1.062-.162-.477-.063-.954-.324-.954-.9 0-.288.099-.504.261-.693.279-.315.675-.441 1.134-.441.495 0 .882.162 1.125.441.18.207.297.486.315.801h.837a1.917 1.917 0 0 0-.612-1.368c-.423-.405-1.035-.612-1.656-.612-.666 0-1.233.216-1.674.63a1.76 1.76 0 0 0-.558 1.26c0 1.017.747 1.548 1.701 1.692l1.008.153c.756.117 1.071.531 1.071 1.026a.94.94 0 0 1-.324.747c-.288.27-.702.369-1.188.369-.45 0-.936-.117-1.224-.396-.261-.252-.45-.63-.45-1.008h-.837c0 .603.279 1.152.684 1.53.432.396 1.053.612 1.827.612.684 0 1.368-.207 1.809-.639.315-.306.54-.702.54-1.233zM295.001 15l-2.259-6.381h-.936L289.556 15h.81l.513-1.512h2.772l.522 1.512h.828zm-1.611-2.268h-2.259l1.125-3.312 1.134 3.312zM302.594 15V8.619h-1.125l-1.917 5.193-1.926-5.193h-1.152V15h.765V9.573l1.98 5.337h.63l1.98-5.292V15h.765zm6.772-4.455c0-.558-.18-1.017-.486-1.35-.342-.369-.873-.576-1.62-.576h-2.367V15h.801v-2.475h1.575c.702 0 1.224-.189 1.566-.531.342-.342.531-.828.531-1.449zm-.828 0c0 .855-.432 1.251-1.287 1.251h-1.557V9.348h1.548c.792 0 1.296.387 1.296 1.197zM314.906 15v-.747h-3.069V8.619h-.801V15h3.87zm5.791 0v-.738h-3.465v-2.205h3.042v-.756h-3.042V9.357h3.465v-.738h-4.266V15h4.266zm5.252 0V8.619h-.819V15h.819zm6.666-1.755c0-1.008-.711-1.656-1.773-1.809-.351-.054-.702-.117-1.062-.162-.477-.063-.954-.324-.954-.9 0-.288.099-.504.261-.693.279-.315.675-.441 1.134-.441.495 0 .882.162 1.125.441.18.207.297.486.315.801h.837a1.917 1.917 0 0 0-.612-1.368c-.423-.405-1.035-.612-1.656-.612-.666 0-1.233.216-1.674.63a1.76 1.76 0 0 0-.558 1.26c0 1.017.747 1.548 1.701 1.692l1.008.153c.756.117 1.071.531 1.071 1.026a.94.94 0 0 1-.324.747c-.288.27-.702.369-1.188.369-.45 0-.936-.117-1.224-.396-.261-.252-.45-.63-.45-1.008h-.837c0 .603.279 1.152.684 1.53.432.396 1.053.612 1.827.612.684 0 1.368-.207 1.809-.639.315-.306.54-.702.54-1.233zm6.213 0c0-1.008-.711-1.656-1.773-1.809-.351-.054-.702-.117-1.062-.162-.477-.063-.954-.324-.954-.9 0-.288.099-.504.261-.693.279-.315.675-.441 1.134-.441.495 0 .882.162 1.125.441.18.207.297.486.315.801h.837a1.917 1.917 0 0 0-.612-1.368c-.423-.405-1.035-.612-1.656-.612-.666 0-1.233.216-1.674.63a1.76 1.76 0 0 0-.558 1.26c0 1.017.747 1.548 1.701 1.692l1.008.153c.756.117 1.071.531 1.071 1.026a.94.94 0 0 1-.324.747c-.288.27-.702.369-1.188.369-.45 0-.936-.117-1.224-.396-.261-.252-.45-.63-.45-1.008h-.837c0 .603.279 1.152.684 1.53.432.396 1.053.612 1.827.612.684 0 1.368-.207 1.809-.639.315-.306.54-.702.54-1.233zm6.329-.585V8.619h-.801v4.059c0 1.017-.423 1.692-1.53 1.692s-1.53-.675-1.53-1.692V8.619h-.801v4.041c0 1.593.9 2.457 2.331 2.457s2.331-.864 2.331-2.457zm6.384 2.34v-.738h-3.465v-2.205h3.042v-.756h-3.042V9.357h3.465v-.738h-4.266V15h4.266z" fill="#9FA6BF"/><path d="M139.92 50.196v-5.381h-3.803v1.169h2.676c0 .916-.197 1.887-.859 2.535-.451.451-1.113.69-1.817.69-.676 0-1.31-.225-1.789-.718-.831-.845-.902-2.282-.902-3.282 0-1.042.056-2.395.873-3.24a2.538 2.538 0 0 1 1.818-.76c.817 0 1.507.253 1.958.788.253.31.408.634.451 1.099h1.31c-.043-.803-.381-1.437-.86-1.944-.69-.733-1.732-1.127-2.859-1.127-1 0-1.972.366-2.691 1.07-1.085 1.057-1.296 2.522-1.296 4.114 0 1.79.282 3.17 1.296 4.156.719.704 1.691 1.028 2.691 1.028 1.127 0 2.225-.578 2.718-1.395l.212 1.198h.873zm8.138-3.564c0-1.127-.239-2.155-1.014-2.916-.521-.507-1.254-.831-2.156-.831-.901 0-1.634.324-2.155.83-.775.761-1.014 1.79-1.014 2.917 0 1.127.239 2.155 1.014 2.916.521.507 1.254.83 2.155.83.902 0 1.635-.323 2.156-.83.775-.76 1.014-1.79 1.014-2.916zm-1.226 0c0 .83-.154 1.69-.662 2.212-.295.295-.718.507-1.282.507-.563 0-.986-.212-1.281-.508-.508-.52-.663-1.38-.663-2.211s.155-1.69.663-2.212c.295-.296.718-.507 1.281-.507.564 0 .987.211 1.282.507.508.521.662 1.38.662 2.212zm9.081 0c0-1.127-.239-2.155-1.014-2.916-.521-.507-1.254-.831-2.155-.831-.902 0-1.634.324-2.156.83-.774.761-1.014 1.79-1.014 2.917 0 1.127.24 2.155 1.014 2.916.522.507 1.254.83 2.156.83.901 0 1.634-.323 2.155-.83.775-.76 1.014-1.79 1.014-2.916zm-1.225 0c0 .83-.155 1.69-.662 2.212-.296.295-.719.507-1.282.507-.564 0-.986-.212-1.282-.508-.507-.52-.662-1.38-.662-2.211s.155-1.69.662-2.212c.296-.296.718-.507 1.282-.507.563 0 .986.211 1.282.507.507.521.662 1.38.662 2.212zm9.052 3.564V40.025h-1.197v3.874c-.381-.648-1.296-1.014-2.071-1.014-.831 0-1.493.281-1.958.718-.719.69-1.085 1.817-1.085 3.043 0 1.183.352 2.268 1.029 2.958.464.48 1.141.775 2.014.775.803 0 1.719-.395 2.127-1.113l.085.93h1.056zm-1.127-3.564c0 .887-.197 1.747-.789 2.268-.281.253-.634.465-1.155.465-1.592 0-2.014-1.423-2.014-2.733s.422-2.733 2.014-2.733c.521 0 .874.211 1.155.465.592.521.789 1.38.789 2.268zm16.851 3.564v-4.691c0-1.578-.761-2.62-2.381-2.62-.901 0-1.817.465-2.197 1.352-.31-.873-1.071-1.352-2.127-1.352-.803 0-1.62.394-2.001 1.197l-.113-1.014h-1.042v7.128h1.197v-3.79c0-.591.127-1.352.479-1.803.296-.38.705-.634 1.212-.634 1.141 0 1.437.69 1.437 1.69v4.537h1.197v-3.79c0-.746.127-1.465.606-1.958a1.447 1.447 0 0 1 1.085-.479c1.127 0 1.451.69 1.451 1.69v4.537h1.197zm8.296-3.564c0-1.127-.239-2.155-1.014-2.916-.521-.507-1.254-.831-2.155-.831-.902 0-1.635.324-2.156.83-.775.761-1.014 1.79-1.014 2.917 0 1.127.239 2.155 1.014 2.916.521.507 1.254.83 2.156.83.901 0 1.634-.323 2.155-.83.775-.76 1.014-1.79 1.014-2.916zm-1.225 0c0 .83-.155 1.69-.663 2.212-.295.295-.718.507-1.281.507-.564 0-.987-.212-1.282-.508-.507-.52-.662-1.38-.662-2.211s.155-1.69.662-2.212c.295-.296.718-.507 1.282-.507.563 0 .986.211 1.281.507.508.521.663 1.38.663 2.212zm7.136-2.395v-1.17a3.784 3.784 0 0 0-.563-.041c-.902 0-1.761.422-2.127 1.295l-.099-1.253h-1.056v7.128h1.183v-3.17c0-.746.07-1.733.648-2.282.324-.31.789-.563 1.352-.563.211 0 .451.014.662.056zm7.391 5.959v-4.691c0-1.648-.845-2.62-2.465-2.62-.803 0-1.789.436-2.155 1.253l-.099-1.07h-1.042v7.128h1.197v-3.31c0-.55.014-1.297.254-1.818.31-.648.859-1.099 1.549-1.099 1.127 0 1.564.634 1.564 1.705v4.522h1.197zm3.789-8.762v-1.409h-1.394v1.409h1.394zm-.084 8.762v-7.128h-1.226v7.128h1.226zm8.388 0v-4.691c0-1.648-.846-2.62-2.466-2.62-.803 0-1.789.436-2.155 1.253l-.099-1.07h-1.042v7.128h1.197v-3.31c0-.55.014-1.297.254-1.818.31-.648.859-1.099 1.549-1.099 1.127 0 1.564.634 1.564 1.705v4.522h1.198zm8.564 1.056c0-.591-.226-1.056-.564-1.394-.563-.578-1.507-.747-2.352-.747h-1.409c-.451 0-1.07-.084-1.07-.704 0-.338.338-.55.605-.634a3.15 3.15 0 0 0 1.198.197c.943 0 1.662-.338 2.127-.845a2.527 2.527 0 0 0 .648-1.705c0-.634-.169-1.099-.465-1.479.07-.394.408-.648.873-.648.099 0 .198 0 .268.014v-.972a2.977 2.977 0 0 0-.352-.028c-.676 0-1.226.366-1.465 1-.437-.267-.958-.422-1.634-.422-.944 0-1.62.296-2.113.803-.409.422-.677.957-.677 1.732 0 .676.296 1.38.817 1.846-.535.253-.943.746-.943 1.38 0 .55.352 1.014.831 1.198-.564.281-1.014.83-1.014 1.577 0 .564.211.972.507 1.268.69.69 1.761.831 2.704.831 1.001 0 2.184-.155 2.874-.83.338-.339.606-.818.606-1.438zm-1.986-5.832c0 .902-.648 1.592-1.62 1.592-1.015 0-1.62-.69-1.62-1.592 0-.901.648-1.563 1.62-1.563 1.014 0 1.62.662 1.62 1.563zm.817 5.832c0 .31-.113.55-.296.733-.451.45-1.338.507-1.944.507-.62 0-1.437-.028-1.902-.493a1.007 1.007 0 0 1-.296-.747c0-.55.423-.972.902-1.127h1.648c.859 0 1.888.07 1.888 1.127zm7.529-1.056V48.52h-1.662v1.676h1.662z" fill="#1C1E29"/><g style="mix-blend-mode:multiply" filter="url(#filter1_d)"><path fill-rule="evenodd" clip-rule="evenodd" d="M169 36h59v19h-59V36z" fill="#F2DEE3"/></g><path fill-rule="evenodd" clip-rule="evenodd" d="M68.87 63.892a6.26 6.26 0 0 1 6.26-6.261h209.74a6.26 6.26 0 0 1 6.26 6.26v69.653a6.26 6.26 0 0 1-6.26 6.261H75.13a6.26 6.26 0 0 1-6.26-6.261V63.892z" fill="#fff" stroke="#E4E6F2" stroke-width=".783" stroke-linecap="square"/><path d="M98.097 77.561h-.648a1.144 1.144 0 0 1-.274.718c-.198.219-.529.38-.909.38-.338 0-.67-.133-.909-.38-.408-.422-.422-1.098-.422-1.62 0-.52.014-1.197.422-1.62.24-.246.57-.38.909-.38.38 0 .704.148.901.366.162.183.268.423.275.698h.648a1.704 1.704 0 0 0-.493-1.141c-.303-.303-.789-.515-1.331-.515-.5 0-.993.184-1.352.536-.543.528-.627 1.26-.627 2.056s.084 1.529.627 2.057a1.93 1.93 0 0 0 1.352.535c.542 0 1.035-.232 1.338-.535a1.74 1.74 0 0 0 .493-1.155zm5.252-.902c0-.796-.098-1.528-.641-2.056a1.913 1.913 0 0 0-1.345-.536c-.5 0-.986.184-1.345.536-.543.528-.641 1.26-.641 2.056s.099 1.529.641 2.057c.359.352.845.535 1.345.535s.986-.183 1.345-.535c.543-.528.641-1.26.641-2.057zm-.648 0c0 .522-.021 1.198-.429 1.62-.24.247-.571.374-.909.374-.338 0-.669-.127-.908-.374-.409-.422-.43-1.098-.43-1.62 0-.52.021-1.197.43-1.62a1.26 1.26 0 0 1 .908-.373c.338 0 .669.127.909.373.408.423.429 1.1.429 1.62zm5.993 2.494l-1-2.198c.239-.077.451-.197.599-.352.239-.253.38-.55.38-.986 0-.437-.155-.76-.394-1.014-.275-.282-.684-.444-1.268-.444h-1.958v4.994h.627v-2.078h1.38l.944 2.078h.69zm-.669-3.536c0 .634-.423.873-1.014.873h-1.331v-1.753h1.331c.591 0 1.014.246 1.014.88zm5.959 3.536l-1-2.198c.239-.077.45-.197.598-.352.24-.253.381-.55.381-.986 0-.437-.155-.76-.395-1.014-.275-.282-.683-.444-1.268-.444h-1.958v4.994h.627v-2.078h1.381l.943 2.078h.691zm-.669-3.536c0 .634-.423.873-1.015.873h-1.331v-1.753h1.331c.592 0 1.015.246 1.015.88zm5.656 3.536v-.578h-2.712V76.85h2.38v-.592h-2.38v-1.521h2.712v-.578h-3.339v4.994h3.339zm5.134-1.592h-.648a1.143 1.143 0 0 1-.274.718c-.198.219-.529.38-.909.38a1.27 1.27 0 0 1-.909-.38c-.408-.422-.422-1.098-.422-1.62 0-.52.014-1.197.422-1.62.24-.246.571-.38.909-.38.38 0 .704.148.902.366.162.183.267.423.274.698h.648a1.702 1.702 0 0 0-.493-1.141c-.303-.303-.789-.515-1.331-.515-.5 0-.993.184-1.352.536-.543.528-.627 1.26-.627 2.056s.084 1.529.627 2.057a1.93 1.93 0 0 0 1.352.535c.542 0 1.035-.232 1.338-.535.289-.296.472-.69.493-1.155zm4.426-2.817v-.585h-3.607v.585h1.487v4.409h.633v-4.41h1.487zm5.183 4.409v-4.994h-.605v4.029l-2.451-4.029h-.705v4.994h.606v-4.015l2.451 4.015h.704zm5.376 0v-.578h-2.711V76.85h2.38v-.592h-2.38v-1.521h2.711v-.578h-3.338v4.994h3.338zm5.072-1.374c0-.788-.557-1.296-1.388-1.415-.274-.043-.549-.092-.831-.127-.373-.05-.747-.254-.747-.704 0-.226.078-.395.205-.543.218-.246.528-.345.887-.345.388 0 .69.127.881.345.141.162.232.38.246.627h.655a1.5 1.5 0 0 0-.479-1.07c-.331-.318-.81-.48-1.296-.48-.521 0-.965.17-1.31.494a1.38 1.38 0 0 0-.437.986c0 .796.585 1.211 1.332 1.324l.789.12c.591.091.838.415.838.802a.736.736 0 0 1-.254.585c-.225.211-.549.289-.93.289-.352 0-.732-.092-.957-.31a1.137 1.137 0 0 1-.353-.789h-.655c0 .472.219.902.536 1.197.338.31.824.48 1.429.48.536 0 1.071-.163 1.416-.5a1.3 1.3 0 0 0 .423-.966zm5.097 0c0-.788-.557-1.296-1.388-1.415-.274-.043-.549-.092-.831-.127-.373-.05-.746-.254-.746-.704 0-.226.077-.395.204-.543.218-.246.528-.345.887-.345.388 0 .691.127.881.345.141.162.232.38.246.627h.655a1.5 1.5 0 0 0-.479-1.07c-.331-.318-.81-.48-1.296-.48-.521 0-.965.17-1.31.494a1.379 1.379 0 0 0-.436.986c0 .796.584 1.211 1.331 1.324l.789.12c.591.091.838.415.838.802a.736.736 0 0 1-.254.585c-.225.211-.549.289-.93.289-.352 0-.732-.092-.957-.31a1.137 1.137 0 0 1-.353-.789h-.655c0 .472.219.902.536 1.197.338.31.824.48 1.429.48.536 0 1.071-.163 1.416-.5a1.3 1.3 0 0 0 .423-.966zm2.498-1.408v-.782h-.775v.782h.775zm0 2.789v-.775h-.775v.775h.775zm7.216-1.599h-.648a1.144 1.144 0 0 1-.275.718c-.197.219-.528.38-.908.38a1.27 1.27 0 0 1-.909-.38c-.408-.422-.422-1.098-.422-1.62 0-.52.014-1.197.422-1.62.24-.246.571-.38.909-.38.38 0 .704.148.901.366.162.183.268.423.275.698h.648a1.702 1.702 0 0 0-.493-1.141c-.303-.303-.789-.515-1.331-.515-.5 0-.993.184-1.353.536-.542.528-.626 1.26-.626 2.056s.084 1.529.626 2.057c.36.352.853.535 1.353.535.542 0 1.035-.232 1.338-.535.289-.296.472-.69.493-1.155zm5.252-.902c0-.796-.098-1.528-.641-2.056a1.913 1.913 0 0 0-1.345-.536c-.5 0-.986.184-1.345.536-.543.528-.641 1.26-.641 2.056s.098 1.529.641 2.057c.359.352.845.535 1.345.535s.986-.183 1.345-.535c.543-.528.641-1.26.641-2.057zm-.648 0c0 .522-.021 1.198-.429 1.62-.24.247-.571.374-.909.374-.338 0-.669-.127-.909-.374-.408-.422-.429-1.098-.429-1.62 0-.52.021-1.197.429-1.62.24-.246.571-.373.909-.373.338 0 .669.127.909.373.408.423.429 1.1.429 1.62zm6.113 2.494v-4.994h-.606v4.029l-2.451-4.029h-.705v4.994h.606v-4.015l2.451 4.015h.705zm5.383-4.994h-.641l-1.353 4.219-1.38-4.219h-.648l1.683 4.994h.655l1.684-4.994zm4.698 4.994v-.578h-2.712V76.85h2.381v-.592h-2.381v-1.521h2.712v-.578h-3.339v4.994h3.339zm5.451 0v-4.994h-.606v4.029l-2.451-4.029h-.705v4.994h.606v-4.015l2.451 4.015h.705zm5.03-4.41v-.584h-3.606v.585h1.486v4.409h.634v-4.41h1.486zm2.064 4.41v-4.994h-.641v4.994h.641zm5.676-2.494c0-.796-.098-1.528-.641-2.056a1.913 1.913 0 0 0-1.345-.536c-.5 0-.986.184-1.345.536-.543.528-.641 1.26-.641 2.056s.098 1.529.641 2.057c.359.352.845.535 1.345.535s.986-.183 1.345-.535c.543-.528.641-1.26.641-2.057zm-.648 0c0 .522-.021 1.198-.429 1.62-.24.247-.571.374-.909.374-.338 0-.669-.127-.909-.374-.408-.422-.429-1.098-.429-1.62 0-.52.021-1.197.429-1.62.24-.246.571-.373.909-.373.338 0 .669.127.909.373.408.423.429 1.1.429 1.62zm6.113 2.494v-4.994h-.606v4.029l-2.451-4.029h-.704v4.994h.605v-4.015l2.451 4.015h.705zm5.453-1.374c0-.788-.556-1.296-1.387-1.415-.275-.043-.55-.092-.831-.127-.374-.05-.747-.254-.747-.704 0-.226.077-.395.204-.543.219-.246.528-.345.888-.345.387 0 .69.127.88.345.141.162.233.38.247.627h.655a1.5 1.5 0 0 0-.479-1.07c-.331-.318-.81-.48-1.296-.48-.521 0-.965.17-1.31.494a1.376 1.376 0 0 0-.437.986c0 .796.585 1.211 1.331 1.324l.789.12c.592.091.838.415.838.802a.736.736 0 0 1-.253.585c-.226.211-.55.289-.93.289-.352 0-.733-.092-.958-.31a1.14 1.14 0 0 1-.352-.789h-.655c0 .472.218.902.535 1.197.338.31.824.48 1.43.48.535 0 1.071-.163 1.416-.5.246-.24.422-.55.422-.966z" fill="#8189A9"/><path fill-rule="evenodd" clip-rule="evenodd" d="M81.783 77.979a1.957 1.957 0 1 0 0-3.913 1.957 1.957 0 0 0 0 3.913z" fill="#EA1537"/><rect x="94.87" y="94.631" width="72" height="25" rx="3" fill="#EA1537"/><path d="M111.35 111.631v-4.945c0-1.521-.817-2.563-2.38-2.563-.986 0-1.775.436-2.212 1.197-.366-.747-1.071-1.197-2.099-1.197-.972 0-1.676.478-2.085 1.155l-.141-.972h-1.465v7.325h1.747v-4.001c0-.915.451-1.972 1.451-1.972.888 0 1.127.521 1.127 1.423v4.55h1.747v-4.001c0-.915.437-1.972 1.437-1.972.887 0 1.127.521 1.127 1.423v4.55h1.746zm8.421-3.663c0-1.239-.31-2.014-.859-2.704-.507-.62-1.451-1.141-2.564-1.141s-2.057.521-2.564 1.141c-.549.69-.859 1.465-.859 2.704 0 1.24.31 2.015.859 2.705.507.62 1.451 1.141 2.564 1.141s2.057-.521 2.564-1.141c.549-.69.859-1.465.859-2.705zm-1.789 0c0 .691-.099 1.381-.521 1.846-.24.253-.634.465-1.113.465s-.873-.212-1.113-.465c-.422-.465-.521-1.155-.521-1.846 0-.69.099-1.38.521-1.845.24-.254.634-.465 1.113-.465s.873.211 1.113.465c.422.465.521 1.155.521 1.845zm7.752-2.028v-1.691a3.625 3.625 0 0 0-.549-.042c-.859 0-1.733.352-2.071 1.197l-.155-1.098h-1.493v7.325h1.775v-3.691c0-1.183.648-2.071 1.888-2.071.197 0 .408.028.605.071zm7.599 5.691v-4.888c0-1.522-.916-2.62-2.479-2.62-.845 0-1.719.352-2.156 1.126l-.126-.943h-1.48v7.325h1.761v-2.987c0-.619-.014-1.38.24-1.958.239-.535.648-.929 1.268-.929.929 0 1.211.521 1.211 1.38v4.494h1.761zm3.942-8.34v-1.817h-1.888v1.817h1.888zm-.042 8.34v-7.325h-1.789v7.325h1.789zm8.454 0v-4.888c0-1.522-.916-2.62-2.48-2.62-.845 0-1.718.352-2.155 1.126l-.127-.943h-1.479v7.325h1.761v-2.987c0-.619-.014-1.38.239-1.958.24-.535.648-.929 1.268-.929.93 0 1.212.521 1.212 1.38v4.494h1.761zm8.534.972c0-.704-.254-1.324-.888-1.761-.69-.479-1.648-.493-2.38-.493h-1.212c-.366 0-.803-.099-.803-.535 0-.24.197-.423.366-.522.367.127.775.198 1.184.198 1.577 0 2.986-.986 2.986-2.663 0-.493-.141-.93-.38-1.324.113-.352.479-.465.887-.465.043 0 .099.014.141.014v-1.366c-.113-.028-.366-.028-.479-.028-.62 0-1.183.281-1.493.915a3.305 3.305 0 0 0-1.662-.45c-1.648 0-3.001.943-3.001 2.69 0 .747.282 1.352.733 1.803-.592.367-.874.86-.874 1.479 0 .479.268 1.001.733 1.254-.564.282-.874.859-.874 1.493 0 .691.324 1.212.888 1.606.761.536 1.704.606 2.592.606 1.634 0 3.536-.521 3.536-2.451zm-2.437-5.79c0 .789-.493 1.352-1.296 1.352s-1.296-.563-1.296-1.352c0-.789.493-1.366 1.296-1.366s1.296.577 1.296 1.366zm.775 5.832c0 .972-1.24 1.014-1.944 1.014-.691 0-1.846-.084-1.846-1.014 0-.465.282-.789.662-.901h1.381c.662 0 1.747 0 1.747.901zm7.941-1.014v-2.198h-2.141v2.198h2.141z" fill="#fff"/><path fill="#FF99AB" d="M155 98h3v18h-3z"/><defs><filter id="filter0_b" x="-16" y="-16" width="392" height="210" filterUnits="userSpaceOnUse" color-interpolation-filters="sRGB"><feFlood flood-opacity="0" result="BackgroundImageFix"/><feGaussianBlur in="BackgroundImage" stdDeviation="8"/><feComposite in2="SourceAlpha" operator="in" result="effect1_backgroundBlur"/><feBlend in="SourceGraphic" in2="effect1_backgroundBlur" result="shape"/></filter><filter id="filter1_d" x="169" y="36" width="59" height="20.565" filterUnits="userSpaceOnUse" color-interpolation-filters="sRGB"><feFlood flood-opacity="0" result="BackgroundImageFix"/><feColorMatrix in="SourceAlpha" values="0 0 0 0 0 0 0 0 0 0 0 0 0 0 0 0 0 0 127 0"/><feOffset dy="1.565"/><feColorMatrix values="0 0 0 0 0.917794 0 0 0 0 0.0831849 0 0 0 0 0.216603 0 0 0 1 0"/><feBlend in2="BackgroundImageFix" result="effect1_dropShadow"/><feBlend in="SourceGraphic" in2="effect1_dropShadow" result="shape"/></filter></defs></svg>