<svg width="360" height="178" viewBox="0 0 360 178" fill="none" xmlns="http://www.w3.org/2000/svg"><g filter="url(#filter0_b)"><path fill="#fff" d="M0 0h360v178H0z"/></g><path d="M288.58 13.245c0-1.008-.711-1.656-1.773-1.809-.351-.054-.702-.117-1.062-.162-.477-.063-.954-.324-.954-.9 0-.288.099-.504.261-.693.279-.315.675-.441 1.134-.441.495 0 .882.162 1.125.441.18.207.297.486.315.801h.837a1.917 1.917 0 0 0-.612-1.368c-.423-.405-1.035-.612-1.656-.612-.666 0-1.233.216-1.674.63a1.76 1.76 0 0 0-.558 1.26c0 1.017.747 1.548 1.701 1.692l1.008.153c.756.117 1.071.531 1.071 1.026a.94.94 0 0 1-.324.747c-.288.27-.702.369-1.188.369-.45 0-.936-.117-1.224-.396-.261-.252-.45-.63-.45-1.008h-.837c0 .603.279 1.152.684 1.53.432.396 1.053.612 1.827.612.684 0 1.368-.207 1.809-.639.315-.306.54-.702.54-1.233zM295.001 15l-2.259-6.381h-.936L289.556 15h.81l.513-1.512h2.772l.522 1.512h.828zm-1.611-2.268h-2.259l1.125-3.312 1.134 3.312zM302.594 15V8.619h-1.125l-1.917 5.193-1.926-5.193h-1.152V15h.765V9.573l1.98 5.337h.63l1.98-5.292V15h.765zm6.772-4.455c0-.558-.18-1.017-.486-1.35-.342-.369-.873-.576-1.62-.576h-2.367V15h.801v-2.475h1.575c.702 0 1.224-.189 1.566-.531.342-.342.531-.828.531-1.449zm-.828 0c0 .855-.432 1.251-1.287 1.251h-1.557V9.348h1.548c.792 0 1.296.387 1.296 1.197zM314.906 15v-.747h-3.069V8.619h-.801V15h3.87zm5.791 0v-.738h-3.465v-2.205h3.042v-.756h-3.042V9.357h3.465v-.738h-4.266V15h4.266zm5.252 0V8.619h-.819V15h.819zm6.666-1.755c0-1.008-.711-1.656-1.773-1.809-.351-.054-.702-.117-1.062-.162-.477-.063-.954-.324-.954-.9 0-.288.099-.504.261-.693.279-.315.675-.441 1.134-.441.495 0 .882.162 1.125.441.18.207.297.486.315.801h.837a1.917 1.917 0 0 0-.612-1.368c-.423-.405-1.035-.612-1.656-.612-.666 0-1.233.216-1.674.63a1.76 1.76 0 0 0-.558 1.26c0 1.017.747 1.548 1.701 1.692l1.008.153c.756.117 1.071.531 1.071 1.026a.94.94 0 0 1-.324.747c-.288.27-.702.369-1.188.369-.45 0-.936-.117-1.224-.396-.261-.252-.45-.63-.45-1.008h-.837c0 .603.279 1.152.684 1.53.432.396 1.053.612 1.827.612.684 0 1.368-.207 1.809-.639.315-.306.54-.702.54-1.233zm6.213 0c0-1.008-.711-1.656-1.773-1.809-.351-.054-.702-.117-1.062-.162-.477-.063-.954-.324-.954-.9 0-.288.099-.504.261-.693.279-.315.675-.441 1.134-.441.495 0 .882.162 1.125.441.18.207.297.486.315.801h.837a1.917 1.917 0 0 0-.612-1.368c-.423-.405-1.035-.612-1.656-.612-.666 0-1.233.216-1.674.63a1.76 1.76 0 0 0-.558 1.26c0 1.017.747 1.548 1.701 1.692l1.008.153c.756.117 1.071.531 1.071 1.026a.94.94 0 0 1-.324.747c-.288.27-.702.369-1.188.369-.45 0-.936-.117-1.224-.396-.261-.252-.45-.63-.45-1.008h-.837c0 .603.279 1.152.684 1.53.432.396 1.053.612 1.827.612.684 0 1.368-.207 1.809-.639.315-.306.54-.702.54-1.233zm6.329-.585V8.619h-.801v4.059c0 1.017-.423 1.692-1.53 1.692s-1.53-.675-1.53-1.692V8.619h-.801v4.041c0 1.593.9 2.457 2.331 2.457s2.331-.864 2.331-2.457zm6.384 2.34v-.738h-3.465v-2.205h3.042v-.756h-3.042V9.357h3.465v-.738h-4.266V15h4.266z" fill="#9FA6BF"/><path d="M34.303 49.196v-9.988h-1.282v9.988h1.282zM45.805 46.8h-1.212c-.056.465-.225.789-.479 1.056-.281.296-.718.48-1.211.48a1.8 1.8 0 0 1-1.24-.465c-.563-.48-.718-1.367-.718-2.24 0-.874.155-1.761.718-2.24a1.8 1.8 0 0 1 1.24-.465c.465 0 .873.17 1.155.437.268.268.45.62.507 1.113h1.212a2.733 2.733 0 0 0-.846-1.832c-.493-.479-1.183-.76-2.028-.76-1.282 0-2.085.591-2.592 1.338-.38.563-.592 1.338-.592 2.409 0 1.07.212 1.845.592 2.409.507.746 1.324 1.338 2.606 1.338.873 0 1.55-.282 2.057-.775.479-.465.774-1.042.83-1.803zm7.934 2.324v-.887s-.183.042-.31.042c-.24 0-.395-.099-.395-.479v-3.45c0-.409-.07-.775-.21-1.099-.339-.775-1.128-1.366-2.508-1.366-.874 0-1.719.253-2.198.76-.366.38-.605.846-.62 1.494h1.17c0-.353.126-.634.352-.86.24-.24.648-.422 1.296-.422.577 0 .93.14 1.169.366.324.296.366.733.366 1.085v.52l-2.17.128c-1.943.112-2.535 1.31-2.535 2.225 0 1.1.817 2.198 2.451 2.198 1 0 1.888-.45 2.297-1.17h.028c0 .606.394 1.085 1.028 1.085.296 0 .535-.042.789-.169zm-1.888-2.944c0 .592-.183 1.184-.605 1.62-.38.395-.916.578-1.465.578-1.015 0-1.41-.592-1.41-1.226 0-.901.846-1.24 1.564-1.282l1.916-.112v.422zm9.546 3.015v-4.691c0-1.648-.846-2.62-2.466-2.62-.803 0-1.789.436-2.155 1.253l-.099-1.07h-1.042v7.128h1.197v-3.31c0-.55.014-1.297.254-1.818.31-.648.86-1.099 1.55-1.099 1.126 0 1.563.634 1.563 1.705v4.522h1.198zm11.698-.07v-.888s-.183.042-.31.042c-.24 0-.395-.099-.395-.479v-3.45c0-.409-.07-.775-.211-1.099-.338-.775-1.127-1.366-2.507-1.366-.874 0-1.719.253-2.198.76-.366.38-.606.846-.62 1.494h1.17c0-.353.126-.634.352-.86.239-.24.648-.422 1.296-.422.577 0 .93.14 1.169.366.324.296.366.733.366 1.085v.52l-2.17.128c-1.943.112-2.535 1.31-2.535 2.225 0 1.1.817 2.198 2.451 2.198 1 0 1.888-.45 2.296-1.17h.029c0 .606.394 1.085 1.028 1.085.296 0 .535-.042.789-.169zm-1.888-2.945c0 .592-.183 1.184-.606 1.62-.38.395-.915.578-1.465.578-1.014 0-1.408-.592-1.408-1.226 0-.901.845-1.24 1.563-1.282l1.916-.112v.422zm9.066.944c0-1.07-.803-1.803-1.817-1.972-.76-.127-1.324-.183-1.719-.24-.591-.084-.957-.338-.957-.93 0-.394.267-.774.718-.957.338-.141.55-.141.831-.141.48 0 .874.113 1.17.38.21.183.394.521.408.888h1.197c0-.578-.197-.986-.507-1.367-.479-.605-1.324-.901-2.268-.901-.887 0-1.634.31-2.099.788-.324.325-.592.846-.592 1.395 0 1.085.677 1.747 1.747 1.916l1.606.211c.733.099 1.113.48 1.113 1.014 0 .324-.155.62-.352.775-.366.31-.817.395-1.31.395-.45 0-.958-.085-1.282-.324a1.39 1.39 0 0 1-.578-1.113h-1.197c0 .606.253 1.211.69 1.634.606.592 1.423.803 2.31.803.93 0 1.775-.24 2.325-.803.338-.352.563-.831.563-1.451zm7.346 0c0-1.07-.802-1.803-1.817-1.972-.76-.127-1.324-.183-1.718-.24-.592-.084-.958-.338-.958-.93 0-.394.267-.774.718-.957.338-.141.55-.141.831-.141.48 0 .874.113 1.17.38.21.183.394.521.408.888h1.197c0-.578-.197-.986-.507-1.367-.479-.605-1.324-.901-2.268-.901-.887 0-1.634.31-2.099.788-.324.325-.591.846-.591 1.395 0 1.085.676 1.747 1.746 1.916l1.606.211c.733.099 1.113.48 1.113 1.014 0 .324-.155.62-.352.775-.366.31-.817.395-1.31.395-.45 0-.958-.085-1.282-.324a1.39 1.39 0 0 1-.578-1.113h-1.197c0 .606.254 1.211.69 1.634.606.592 1.423.803 2.31.803.93 0 1.776-.24 2.325-.803.338-.352.563-.831.563-1.451zm7.642 2.07v-7.127h-1.197v3.705c0 .732-.14 1.507-.592 1.972-.31.324-.704.535-1.183.535-1.127 0-1.521-.634-1.521-1.704v-4.508H89.57v4.677c0 1.648.817 2.62 2.437 2.62.831 0 1.747-.437 2.113-1.254l.099 1.085h1.042zm6.467-5.958v-1.17a3.797 3.797 0 0 0-.564-.041c-.901 0-1.76.422-2.127 1.295l-.099-1.253h-1.056v7.128h1.183v-3.17c0-.746.07-1.733.648-2.282.324-.31.789-.563 1.353-.563.211 0 .45.014.662.056zm7.17 2.07c.014-.957-.324-1.873-.901-2.507-.521-.563-1.254-.915-2.17-.915-1.239 0-2.183.634-2.69 1.493-.395.662-.55 1.423-.55 2.282 0 1.014.296 1.958.888 2.648.549.648 1.366 1.07 2.366 1.07.677 0 1.311-.196 1.818-.534.577-.395 1-1.057 1.098-1.761h-1.169c-.098.38-.225.577-.422.775-.296.31-.761.464-1.325.464-.549 0-.986-.183-1.31-.507-.436-.436-.69-1.14-.69-1.789h5.043l.014-.718zm-1.225-.31h-3.804c.028-1.041.662-2.098 1.958-2.098.634 0 1.113.254 1.409.648.282.38.437.916.437 1.45zm12.048-2.93h-1.254l-2 5.621-2.099-5.62h-1.353l2.846 7.128-.451 1.197c-.197.535-.563.719-1.071.719-.464 0-.845-.113-.845-.113v1.042c.099.029.493.141 1.085.141 1.071 0 1.592-.605 1.93-1.521l3.212-8.593zm7.035 3.565c0-1.127-.24-2.155-1.015-2.916-.521-.507-1.253-.831-2.155-.831-.901 0-1.634.324-2.155.83-.775.761-1.014 1.79-1.014 2.917 0 1.127.239 2.155 1.014 2.916.521.507 1.254.83 2.155.83.902 0 1.634-.323 2.155-.83.775-.76 1.015-1.79 1.015-2.916zm-1.226 0c0 .83-.155 1.69-.662 2.212-.296.295-.718.507-1.282.507-.563 0-.986-.212-1.282-.508-.507-.52-.662-1.38-.662-2.211s.155-1.69.662-2.212c.296-.296.719-.507 1.282-.507.564 0 .986.211 1.282.507.507.521.662 1.38.662 2.212zm8.869 3.564v-7.128h-1.197v3.705c0 .732-.141 1.507-.592 1.972-.309.324-.704.535-1.183.535-1.127 0-1.521-.634-1.521-1.704v-4.508h-1.198v4.677c0 1.648.817 2.62 2.437 2.62.832 0 1.747-.437 2.113-1.254l.099 1.085h1.042zm9.558-.099V48.07s-.718.127-1.225.127c-.662 0-.958-.282-.958-.972v-4.128h2.113v-1.028h-2.113v-2.1l-1.197.283v1.817h-1.381v1.028h1.381v4.269c0 .957.422 1.93 1.958 1.93a5.13 5.13 0 0 0 1.422-.198zm7.491.099v-4.691c0-1.648-.859-2.62-2.479-2.62-.803 0-1.662.394-2.085 1.127v-3.987h-1.197v10.17h1.197v-3.31c0-.549.014-1.296.254-1.817.31-.648.859-1.099 1.549-1.099 1.127 0 1.564.634 1.564 1.705v4.522h1.197zm3.817-8.762v-1.409h-1.395v1.409h1.395zm-.085 8.762v-7.128h-1.225v7.128h1.225zm7.909-2.071c0-1.07-.803-1.803-1.817-1.972-.761-.127-1.324-.183-1.719-.24-.591-.084-.958-.338-.958-.93 0-.394.268-.774.719-.957.338-.141.549-.141.831-.141.479 0 .873.113 1.169.38.212.183.395.521.409.888h1.197c0-.578-.197-.986-.507-1.367-.479-.605-1.324-.901-2.268-.901-.887 0-1.634.31-2.099.788-.324.325-.592.846-.592 1.395 0 1.085.677 1.747 1.747 1.916l1.606.211c.733.099 1.113.48 1.113 1.014 0 .324-.155.62-.352.775-.366.31-.817.395-1.31.395-.451 0-.958-.085-1.282-.324a1.39 1.39 0 0 1-.578-1.113h-1.197c0 .606.253 1.211.69 1.634.606.592 1.423.803 2.31.803.93 0 1.775-.24 2.325-.803.338-.352.563-.831.563-1.451zm14.27-5.057h-1.17l-1.38 5.381-1.789-5.297h-1.028l-1.818 5.297-1.366-5.381h-1.183l1.831 7.128h1.141l1.902-5.452 1.859 5.452h1.155l1.846-7.128zm7.56 3.564c0-1.127-.239-2.155-1.014-2.916-.521-.507-1.254-.831-2.155-.831-.902 0-1.634.324-2.155.83-.775.761-1.015 1.79-1.015 2.917 0 1.127.24 2.155 1.015 2.916.521.507 1.253.83 2.155.83.901 0 1.634-.323 2.155-.83.775-.76 1.014-1.79 1.014-2.916zm-1.225 0c0 .83-.155 1.69-.662 2.212-.296.295-.719.507-1.282.507-.564 0-.986-.212-1.282-.508-.507-.52-.662-1.38-.662-2.211s.155-1.69.662-2.212c.296-.296.718-.507 1.282-.507.563 0 .986.211 1.282.507.507.521.662 1.38.662 2.212zm9.052 3.564v-4.691c0-1.648-.845-2.62-2.465-2.62-.803 0-1.789.436-2.155 1.253l-.099-1.07h-1.042v7.128h1.197v-3.31c0-.55.014-1.297.254-1.818.31-.648.859-1.099 1.549-1.099 1.127 0 1.564.634 1.564 1.705v4.522h1.197zm2.98-8.283v-1.648h-1.718v1.648h.873c0 .803-.169 1.225-.902 1.55l.367.661c1.028-.436 1.38-1.169 1.38-2.211zm5.982 8.184V48.07s-.718.127-1.225.127c-.662 0-.958-.282-.958-.972v-4.128h2.113v-1.028h-2.113v-2.1l-1.197.283v1.817h-1.381v1.028h1.381v4.269c0 .957.422 1.93 1.958 1.93a5.13 5.13 0 0 0 1.422-.198zm10.724-3.79c.014-.957-.324-1.873-.902-2.507-.521-.563-1.253-.915-2.169-.915-1.24 0-2.183.634-2.691 1.493-.394.662-.549 1.423-.549 2.282 0 1.014.296 1.958.887 2.648.55.648 1.367 1.07 2.367 1.07.676 0 1.31-.196 1.817-.534.578-.395 1-1.057 1.099-1.761h-1.169c-.099.38-.226.577-.423.775-.296.31-.76.464-1.324.464-.549 0-.986-.183-1.31-.507-.437-.436-.69-1.14-.69-1.789h5.043l.014-.718zm-1.226-.31h-3.803c.028-1.041.662-2.098 1.958-2.098.634 0 1.113.254 1.409.648.281.38.436.916.436 1.45zm6.944-4.986v-1a7.42 7.42 0 0 0-1.324-.127c-1.24 0-2.071.845-2.071 1.916v1.268h-1.296v1.014h1.296v6.114h1.197v-6.114h2.057v-1.014h-2.057V40.87c0-.577.381-.972 1.015-.972.507 0 .802.07 1.183.113zm5.159 0v-1a7.423 7.423 0 0 0-1.325-.127c-1.239 0-2.07.845-2.07 1.916v1.268h-1.296v1.014h1.296v6.114h1.197v-6.114h2.057v-1.014h-2.057V40.87c0-.577.38-.972 1.014-.972.507 0 .803.07 1.184.113zm7.062 5.297c.014-.958-.324-1.874-.902-2.508-.521-.563-1.253-.915-2.169-.915-1.24 0-2.184.634-2.691 1.493-.394.662-.549 1.423-.549 2.282 0 1.014.296 1.958.887 2.648.55.648 1.367 1.07 2.367 1.07.676 0 1.31-.196 1.817-.534.578-.395 1-1.057 1.099-1.761h-1.169c-.099.38-.226.577-.423.775-.296.31-.761.464-1.324.464-.549 0-.986-.183-1.31-.507-.437-.436-.69-1.14-.69-1.789h5.043l.014-.718zm-1.226-.31h-3.803c.028-1.042.662-2.1 1.958-2.1.634 0 1.113.255 1.409.649.281.38.436.916.436 1.45zm8.773 1.803h-1.211c-.056.465-.226.789-.479 1.056-.282.296-.719.48-1.212.48-.549 0-.929-.198-1.239-.465-.564-.48-.719-1.367-.719-2.24 0-.874.155-1.761.719-2.24.31-.268.69-.465 1.239-.465.465 0 .874.17 1.156.437.267.268.45.62.507 1.113h1.211a2.73 2.73 0 0 0-.845-1.832c-.493-.479-1.183-.76-2.029-.76-1.281 0-2.084.591-2.592 1.338-.38.563-.591 1.338-.591 2.409 0 1.07.211 1.845.591 2.409.508.746 1.325 1.338 2.607 1.338.873 0 1.549-.282 2.056-.775.479-.465.775-1.042.831-1.803zm5.584 2.296V48.07s-.719.127-1.226.127c-.662 0-.958-.282-.958-.972v-4.128h2.113v-1.028h-2.113v-2.1l-1.197.283v1.817h-1.381v1.028h1.381v4.269c0 .957.422 1.93 1.958 1.93.662 0 1.099-.113 1.423-.198zm10.765-3.465c0-1.127-.239-2.155-1.014-2.916-.521-.507-1.254-.831-2.155-.831-.902 0-1.634.324-2.156.83-.774.761-1.014 1.79-1.014 2.917 0 1.127.24 2.155 1.014 2.916.522.507 1.254.83 2.156.83.901 0 1.634-.323 2.155-.83.775-.76 1.014-1.79 1.014-2.916zm-1.225 0c0 .83-.155 1.69-.662 2.212-.296.295-.719.507-1.282.507-.564 0-.986-.212-1.282-.508-.507-.52-.662-1.38-.662-2.211s.155-1.69.662-2.212c.296-.296.718-.507 1.282-.507.563 0 .986.211 1.282.507.507.521.662 1.38.662 2.212zm8.869 3.564v-7.128h-1.197v3.705c0 .732-.141 1.507-.592 1.972-.31.324-.704.535-1.183.535-1.127 0-1.522-.634-1.522-1.704v-4.508h-1.197v4.677c0 1.648.817 2.62 2.437 2.62.831 0 1.747-.437 2.113-1.254l.099 1.085h1.042zm6.467-5.959v-1.17a3.807 3.807 0 0 0-.564-.041c-.901 0-1.761.422-2.127 1.295l-.099-1.253h-1.056v7.128h1.183v-3.17c0-.746.071-1.733.648-2.282.324-.31.789-.563 1.352-.563.212 0 .451.014.663.056zm8.498 5.86V48.07s-.719.127-1.226.127c-.662 0-.958-.282-.958-.972v-4.128h2.113v-1.028h-2.113v-2.1l-1.197.283v1.817h-1.381v1.028h1.381v4.269c0 .957.422 1.93 1.958 1.93.662 0 1.099-.113 1.423-.198zm3.039-8.663v-1.409h-1.395v1.409h1.395zm-.084 8.762v-7.128h-1.226v7.128h1.226zm12.487 0v-4.691c0-1.578-.761-2.62-2.381-2.62-.901 0-1.817.465-2.197 1.352-.31-.873-1.071-1.352-2.128-1.352-.803 0-1.62.394-2 1.197l-.113-1.014h-1.042v7.128h1.197v-3.79c0-.591.127-1.352.479-1.803.296-.38.705-.634 1.212-.634 1.141 0 1.437.69 1.437 1.69v4.537h1.197v-3.79c0-.746.127-1.465.606-1.958a1.444 1.444 0 0 1 1.084-.479c1.127 0 1.451.69 1.451 1.69v4.537h1.198zm8.254-3.888c.014-.958-.324-1.874-.902-2.508-.521-.563-1.254-.915-2.169-.915-1.24 0-2.184.634-2.691 1.493-.394.662-.549 1.423-.549 2.282 0 1.014.296 1.958.887 2.648.55.648 1.367 1.07 2.367 1.07.676 0 1.31-.196 1.817-.534.578-.395 1-1.057 1.099-1.761h-1.169c-.099.38-.226.577-.423.775-.296.31-.761.464-1.324.464-.55 0-.986-.183-1.31-.507-.437-.436-.69-1.14-.69-1.789h5.043l.014-.718zm-1.226-.31h-3.803c.028-1.042.662-2.1 1.958-2.1.634 0 1.113.255 1.408.649.282.38.437.916.437 1.45zm5.533 4.198v-1.014s-.098.014-.493.014c-.493 0-.648-.254-.648-.733v-8.438h-1.197v8.508c0 1.127.451 1.747 1.493 1.747.578 0 .845-.084.845-.084zm3.114-8.762v-1.409h-1.395v1.409h1.395zm-.085 8.762v-7.128h-1.225v7.128h1.225zm8.388 0v-4.691c0-1.648-.845-2.62-2.465-2.62-.803 0-1.789.436-2.155 1.253l-.099-1.07h-1.042v7.128h1.197v-3.31c0-.55.014-1.297.253-1.818.31-.648.86-1.099 1.55-1.099 1.127 0 1.564.634 1.564 1.705v4.522h1.197zm8.226-3.888c.014-.958-.324-1.874-.901-2.508-.521-.563-1.254-.915-2.17-.915-1.239 0-2.183.634-2.69 1.493-.395.662-.55 1.423-.55 2.282 0 1.014.296 1.958.888 2.648.549.648 1.366 1.07 2.366 1.07.677 0 1.311-.196 1.818-.534.577-.395 1-1.057 1.098-1.761h-1.169c-.098.38-.225.577-.422.775-.296.31-.761.464-1.325.464-.549 0-.986-.183-1.31-.507-.436-.436-.69-1.14-.69-1.789h5.043l.014-.718zm-1.225-.31h-3.804c.028-1.042.662-2.1 1.958-2.1.634 0 1.113.255 1.409.649.282.38.437.916.437 1.45zm4.553 4.198V47.52h-1.662v1.676h1.662z" fill="#1C1E29"/><g style="mix-blend-mode:multiply" filter="url(#filter1_d)"><path fill-rule="evenodd" clip-rule="evenodd" d="M205.043 35.196h39.914v18.782h-39.914V35.196z" fill="#F2DEE3"/></g><path fill-rule="evenodd" clip-rule="evenodd" d="M68.87 75.892a6.26 6.26 0 0 1 6.26-6.261h209.74a6.26 6.26 0 0 1 6.26 6.26v69.653a6.26 6.26 0 0 1-6.26 6.261H75.13a6.26 6.26 0 0 1-6.26-6.261V75.892z" fill="#fff" stroke="#E4E6F2" stroke-width=".783" stroke-linecap="square"/><path d="M98.097 89.561h-.648a1.143 1.143 0 0 1-.274.718c-.197.219-.529.38-.909.38-.338 0-.669-.133-.909-.38-.408-.422-.422-1.098-.422-1.62 0-.52.014-1.197.422-1.62.24-.246.571-.38.91-.38.38 0 .703.148.9.366.163.183.268.423.275.698h.648a1.704 1.704 0 0 0-.493-1.141c-.303-.303-.789-.515-1.33-.515-.501 0-.994.184-1.353.536-.543.528-.627 1.26-.627 2.056s.084 1.529.627 2.057a1.93 1.93 0 0 0 1.352.535c.542 0 1.035-.232 1.338-.535a1.74 1.74 0 0 0 .493-1.155zm5.253-.902c0-.796-.099-1.528-.641-2.056a1.917 1.917 0 0 0-1.346-.536c-.5 0-.986.184-1.345.536-.542.528-.641 1.26-.641 2.056s.099 1.529.641 2.057c.359.352.845.535 1.345.535s.986-.183 1.346-.535c.542-.528.641-1.26.641-2.057zm-.648 0c0 .522-.022 1.198-.43 1.62-.24.247-.571.374-.909.374-.338 0-.669-.127-.908-.374-.409-.422-.43-1.098-.43-1.62 0-.52.021-1.197.43-1.62a1.26 1.26 0 0 1 .908-.373c.338 0 .669.127.909.373.408.423.43 1.1.43 1.62zm5.992 2.494l-1-2.198c.24-.077.451-.197.599-.352.239-.253.38-.55.38-.986 0-.437-.155-.76-.394-1.014-.275-.282-.684-.444-1.268-.444h-1.958v4.994h.627v-2.078h1.38l.944 2.078h.69zm-.669-3.536c0 .634-.423.873-1.014.873h-1.331v-1.753h1.331c.591 0 1.014.246 1.014.88zm5.959 3.536l-1-2.198c.239-.077.45-.197.598-.352.24-.253.381-.55.381-.986 0-.437-.155-.76-.395-1.014-.274-.282-.683-.444-1.268-.444h-1.958v4.994h.627v-2.078h1.381l.944 2.078h.69zm-.669-3.536c0 .634-.423.873-1.015.873h-1.331v-1.753h1.331c.592 0 1.015.246 1.015.88zm5.656 3.536v-.578h-2.712V88.85h2.381v-.592h-2.381v-1.521h2.712v-.578h-3.339v4.994h3.339zm5.134-1.592h-.648a1.143 1.143 0 0 1-.274.718c-.198.219-.529.38-.909.38a1.27 1.27 0 0 1-.909-.38c-.408-.422-.422-1.098-.422-1.62 0-.52.014-1.197.422-1.62.24-.246.571-.38.909-.38.38 0 .704.148.902.366.162.183.267.423.274.698h.648a1.702 1.702 0 0 0-.493-1.141c-.303-.303-.789-.515-1.331-.515-.5 0-.993.184-1.352.536-.543.528-.627 1.26-.627 2.056s.084 1.529.627 2.057a1.93 1.93 0 0 0 1.352.535c.542 0 1.035-.232 1.338-.535.289-.296.472-.69.493-1.155zm4.426-2.817v-.585h-3.607v.585h1.487v4.409h.634v-4.41h1.486zm5.184 4.409v-4.994h-.606v4.029l-2.451-4.029h-.705v4.994h.606v-4.015l2.451 4.015h.705zm5.376 0v-.578h-2.712V88.85h2.381v-.592h-2.381v-1.521h2.712v-.578h-3.339v4.994h3.339zm5.071-1.374c0-.788-.557-1.296-1.388-1.415-.274-.043-.549-.092-.831-.127-.373-.05-.746-.254-.746-.704 0-.226.077-.395.204-.543.218-.246.528-.345.887-.345.388 0 .691.127.881.345.141.162.232.38.246.627h.655a1.5 1.5 0 0 0-.479-1.07c-.331-.318-.81-.48-1.296-.48-.521 0-.965.17-1.31.494a1.379 1.379 0 0 0-.436.986c0 .796.584 1.211 1.331 1.324l.789.12c.591.091.838.415.838.802a.736.736 0 0 1-.254.585c-.225.211-.549.289-.929.289-.353 0-.733-.092-.958-.31a1.137 1.137 0 0 1-.353-.789h-.655c0 .472.219.902.536 1.197.338.31.824.48 1.43.48.535 0 1.07-.163 1.415-.5a1.3 1.3 0 0 0 .423-.966zm5.097 0c0-.788-.556-1.296-1.388-1.415-.274-.043-.549-.092-.831-.127-.373-.05-.746-.254-.746-.704 0-.226.077-.395.204-.543.218-.246.528-.345.887-.345.388 0 .691.127.881.345.141.162.232.38.246.627h.655a1.5 1.5 0 0 0-.479-1.07c-.331-.318-.81-.48-1.296-.48-.521 0-.965.17-1.31.494a1.379 1.379 0 0 0-.436.986c0 .796.584 1.211 1.331 1.324l.789.12c.591.091.838.415.838.802a.736.736 0 0 1-.254.585c-.225.211-.549.289-.929.289-.353 0-.733-.092-.958-.31a1.136 1.136 0 0 1-.352-.789h-.656c0 .472.219.902.536 1.197.338.31.824.48 1.43.48.535 0 1.07-.163 1.415-.5a1.3 1.3 0 0 0 .423-.966zm2.498-1.408v-.782h-.775v.782h.775zm0 2.789v-.775h-.775v.775h.775zm7.153-1.38c0-.79-.557-1.297-1.388-1.416-.274-.043-.549-.092-.831-.127-.373-.05-.746-.254-.746-.704 0-.226.077-.395.204-.543.218-.246.528-.345.887-.345.388 0 .691.127.881.345.141.162.232.38.246.627h.655a1.5 1.5 0 0 0-.479-1.07c-.331-.318-.81-.48-1.296-.48-.521 0-.965.17-1.31.494a1.379 1.379 0 0 0-.436.986c0 .796.584 1.211 1.331 1.324l.789.12c.591.091.838.415.838.802a.736.736 0 0 1-.254.585c-.225.211-.549.289-.93.289-.352 0-.732-.092-.957-.31a1.137 1.137 0 0 1-.353-.789h-.655c0 .472.219.902.536 1.197.338.31.824.48 1.429.48.536 0 1.071-.163 1.416-.5a1.3 1.3 0 0 0 .423-.966zm5.181-2.114c0-.436-.14-.796-.38-1.056-.268-.289-.683-.451-1.268-.451h-1.852v4.994h.627v-1.937h1.232c.55 0 .958-.148 1.226-.416.267-.267.415-.648.415-1.134zm-.648 0c0 .67-.338.98-1.007.98h-1.218V86.73h1.211c.62 0 1.014.302 1.014.936zm5.528 3.487v-.578h-2.711V88.85h2.38v-.592h-2.38v-1.521h2.711v-.578h-3.338v4.994h3.338zm4.719 0v-.585h-2.402V86.16h-.627v4.994h3.029zm4.278 0v-.585h-2.402V86.16h-.626v4.994h3.028zm2.07 0v-4.994h-.641v4.994h.641zm5.796 0v-4.994h-.606v4.029l-2.451-4.029h-.704v4.994h.605v-4.015l2.452 4.015h.704zm5.601 0v-2.69h-1.901v.584h1.338c0 .458-.099.944-.43 1.268-.225.225-.556.345-.908.345-.338 0-.655-.113-.895-.36-.415-.422-.451-1.14-.451-1.64 0-.522.029-1.198.437-1.62.24-.247.571-.38.909-.38.408 0 .753.126.979.394a.951.951 0 0 1 .225.549h.655a1.495 1.495 0 0 0-.43-.972c-.345-.366-.866-.564-1.429-.564-.5 0-.986.184-1.346.536-.542.528-.648 1.26-.648 2.056 0 .895.141 1.585.648 2.078.36.352.846.514 1.346.514.563 0 1.113-.288 1.359-.697l.106.599h.436z" fill="#8189A9"/><path fill-rule="evenodd" clip-rule="evenodd" d="M81.783 89.979a1.957 1.957 0 1 0 0-3.913 1.957 1.957 0 0 0 0 3.913z" fill="#EA1537"/><path d="M100.971 119.656c.014-.958-.324-1.874-.901-2.508-.522-.563-1.254-.915-2.17-.915-1.24 0-2.183.634-2.69 1.493-.395.662-.55 1.423-.55 2.282 0 1.014.296 1.958.888 2.648.55.648 1.366 1.071 2.366 1.071.676 0 1.31-.197 1.817-.535a2.623 2.623 0 0 0 1.099-1.761h-1.169c-.099.38-.225.577-.423.775-.295.31-.76.465-1.324.465-.55 0-.986-.184-1.31-.508-.436-.436-.69-1.141-.69-1.789h5.043l.014-.718zm-1.225-.31h-3.804c.028-1.042.662-2.099 1.958-2.099.634 0 1.113.254 1.409.648.282.38.437.916.437 1.451zm6.943-4.987v-1a7.447 7.447 0 0 0-1.324-.127c-1.24 0-2.071.846-2.071 1.916v1.268h-1.296v1.014h1.296v6.114h1.197v-6.114h2.057v-1.014h-2.057v-1.197c0-.578.381-.972 1.015-.972.507 0 .803.07 1.183.112zm5.159 0v-1a7.456 7.456 0 0 0-1.324-.127c-1.24 0-2.071.846-2.071 1.916v1.268h-1.296v1.014h1.296v6.114h1.197v-6.114h2.057v-1.014h-2.057v-1.197c0-.578.381-.972 1.015-.972.507 0 .802.07 1.183.112zm7.062 5.297c.014-.958-.324-1.874-.902-2.508-.521-.563-1.253-.915-2.169-.915-1.24 0-2.183.634-2.691 1.493-.394.662-.549 1.423-.549 2.282 0 1.014.296 1.958.888 2.648.549.648 1.366 1.071 2.366 1.071.676 0 1.31-.197 1.817-.535a2.623 2.623 0 0 0 1.099-1.761H117.6c-.099.38-.225.577-.423.775-.296.31-.76.465-1.324.465-.549 0-.986-.184-1.31-.508-.437-.436-.69-1.141-.69-1.789h5.043l.014-.718zm-1.226-.31h-3.803c.028-1.042.662-2.099 1.958-2.099.634 0 1.113.254 1.409.648.281.38.436.916.436 1.451zm8.774 1.803h-1.212c-.056.465-.225.789-.479 1.057-.282.296-.718.479-1.211.479-.55 0-.93-.198-1.24-.465-.564-.479-.718-1.367-.718-2.24 0-.873.154-1.761.718-2.24.31-.268.69-.465 1.24-.465.464 0 .873.169 1.155.437.267.268.451.62.507 1.113h1.211a2.728 2.728 0 0 0-.845-1.831c-.493-.479-1.183-.761-2.028-.761-1.282 0-2.085.591-2.592 1.338-.381.564-.592 1.338-.592 2.409 0 1.071.211 1.845.592 2.409.507.746 1.324 1.338 2.606 1.338.873 0 1.549-.282 2.056-.775.479-.465.775-1.042.832-1.803zm5.583 2.296v-1.028s-.719.127-1.226.127c-.662 0-.958-.282-.958-.972v-4.128h2.113v-1.028h-2.113v-2.099l-1.197.282v1.817h-1.381v1.028h1.381v4.269c0 .958.423 1.93 1.958 1.93.662 0 1.099-.113 1.423-.198z" fill="#1C1E29"/><path d="M93.914 120.892h39.13" stroke="#EA1537" stroke-width=".783" stroke-linecap="square"/><path fill-rule="evenodd" clip-rule="evenodd" d="M150.873 121.283h-10.394a.381.381 0 0 1-.282-.11.381.381 0 0 1-.11-.281c0-.114.037-.208.11-.281a.381.381 0 0 1 .282-.11h10.394l-3.62-3.644a.328.328 0 0 1-.122-.269c0-.115.041-.204.122-.269a.325.325 0 0 1 .269-.123c.114 0 .204.041.269.123l4.305 4.304a.327.327 0 0 1 .122.269.327.327 0 0 1-.122.269l-4.28 4.304a.388.388 0 0 1-.282.123.386.386 0 0 1-.281-.123.327.327 0 0 1-.122-.269c0-.114.041-.204.122-.269l3.62-3.644z" fill="#9FA6BF"/><rect x="159.653" y="107.196" width="52.435" height="25.044" rx="3.13" fill="#11A683"/><path d="M173.394 124.459v-1.296s-.113.029-.226.029c-.295 0-.408-.127-.408-.465v-2.719c0-.493-.028-1.014-.211-1.479-.423-1.099-1.494-1.493-2.747-1.493-1.635 0-2.945.732-3.043 2.38h1.704c.043-.676.522-1.042 1.339-1.042 1 0 1.239.465 1.239 1.155v.451l-2.155.155c-1.395.098-2.479.901-2.479 2.296 0 1.197.901 2.296 2.648 2.296 1.042 0 1.888-.507 2.226-1.099.056.55.479 1.029 1.239 1.029.423 0 .578-.071.874-.198zm-2.353-2.831c0 1.085-.775 1.676-1.873 1.676-.55 0-1.043-.352-1.043-.915 0-.592.521-.916 1.057-.958l1.859-.141v.338zm7.868-6.269v-1a7.447 7.447 0 0 0-1.324-.127c-1.24 0-2.071.846-2.071 1.916v1.268h-1.296v1.014h1.296v6.114h1.198v-6.114h2.056v-1.014h-2.056v-1.197c0-.578.38-.972 1.014-.972.507 0 .803.07 1.183.112zm5.159 0v-1a7.456 7.456 0 0 0-1.324-.127c-1.24 0-2.071.846-2.071 1.916v1.268h-1.296v1.014h1.296v6.114h1.197v-6.114h2.057v-1.014h-2.057v-1.197c0-.578.381-.972 1.015-.972.507 0 .803.07 1.183.112zm7.062 5.297c.014-.958-.324-1.874-.901-2.508-.522-.563-1.254-.915-2.17-.915-1.24 0-2.183.634-2.69 1.493-.395.662-.55 1.423-.55 2.282 0 1.014.296 1.958.888 2.648.549.648 1.366 1.071 2.366 1.071.676 0 1.31-.197 1.817-.535a2.623 2.623 0 0 0 1.099-1.761h-1.169c-.099.38-.225.577-.423.775-.295.31-.76.465-1.324.465-.549 0-.986-.184-1.31-.508-.437-.436-.69-1.141-.69-1.789h5.043l.014-.718zm-1.225-.31h-3.804c.028-1.042.662-2.099 1.958-2.099.634 0 1.113.254 1.409.648.282.38.437.916.437 1.451zm8.773 1.803h-1.212c-.056.465-.225.789-.479 1.057-.282.296-.718.479-1.211.479-.55 0-.93-.198-1.24-.465-.563-.479-.718-1.367-.718-2.24 0-.873.155-1.761.718-2.24.31-.268.69-.465 1.24-.465.465 0 .873.169 1.155.437.268.268.451.62.507 1.113h1.211a2.728 2.728 0 0 0-.845-1.831c-.493-.479-1.183-.761-2.028-.761-1.282 0-2.085.591-2.592 1.338-.381.564-.592 1.338-.592 2.409 0 1.071.211 1.845.592 2.409.507.746 1.324 1.338 2.606 1.338.873 0 1.549-.282 2.057-.775.478-.465.774-1.042.831-1.803zm5.583 2.296v-1.028s-.719.127-1.226.127c-.662 0-.958-.282-.958-.972v-4.128h2.113v-1.028h-2.113v-2.099l-1.197.282v1.817h-1.38v1.028h1.38v4.269c0 .958.423 1.93 1.958 1.93.662 0 1.099-.113 1.423-.198z" fill="#fff"/><defs><filter id="filter0_b" x="-16" y="-16" width="392" height="210" filterUnits="userSpaceOnUse" color-interpolation-filters="sRGB"><feFlood flood-opacity="0" result="BackgroundImageFix"/><feGaussianBlur in="BackgroundImage" stdDeviation="8"/><feComposite in2="SourceAlpha" operator="in" result="effect1_backgroundBlur"/><feBlend in="SourceGraphic" in2="effect1_backgroundBlur" result="shape"/></filter><filter id="filter1_d" x="205.043" y="35.196" width="39.913" height="20.348" filterUnits="userSpaceOnUse" color-interpolation-filters="sRGB"><feFlood flood-opacity="0" result="BackgroundImageFix"/><feColorMatrix in="SourceAlpha" values="0 0 0 0 0 0 0 0 0 0 0 0 0 0 0 0 0 0 127 0"/><feOffset dy="1.565"/><feColorMatrix values="0 0 0 0 0.917794 0 0 0 0 0.0831849 0 0 0 0 0.216603 0 0 0 1 0"/><feBlend in2="BackgroundImageFix" result="effect1_dropShadow"/><feBlend in="SourceGraphic" in2="effect1_dropShadow" result="shape"/></filter></defs></svg>